<?xml version="1.0" encoding="utf-8"?>
<!-- Generator: Adobe Illustrator 19.2.1, SVG Export Plug-In . SVG Version: 6.00 Build 0)  -->
<svg version="1.1" xmlns="http://www.w3.org/2000/svg" xmlns:xlink="http://www.w3.org/1999/xlink" x="0px" y="0px"
	 viewBox="0 0 500 500" style="enable-background:new 0 0 500 500;" xml:space="preserve">
<style type="text/css">
	.st0{display:none;}
	.st1{display:inline;fill:#DCDDDE;}
	.st2{fill:none;stroke:#FFFFFF;stroke-width:2;stroke-linecap:round;stroke-linejoin:round;stroke-miterlimit:10;}
	.st3{fill:none;}
	.st4{fill:#59C8DC;}
	.st5{fill:#3A4755;}
	.st6{fill:#FFFFFF;}
	.st7{fill:#26303A;}
	.st8{opacity:0.2;fill:#FFFFFF;}
	.st9{opacity:0.1;clip-path:url(#SVGID_2_);fill:#414042;}
	.st10{fill:#8DC63F;}
	.st11{opacity:0.2;fill:#231F20;}
	.st12{opacity:0.3;fill:#FFFFFF;}
	.st13{fill:#A7A9AC;}
	.st14{clip-path:url(#SVGID_4_);}
	.st15{fill:#F7941E;}
	.st16{font-family:'Bebas';}
	.st17{font-size:6.476px;}
</style>
<g id="BACKGROUND" class="st0">
	<rect transform="matrix(-1.836970e-016 1 -1 -1.836970e-016 500 5.684342e-014)" class="st1" width="500" height="500"/>
</g>
<g id="OBJECTS">
	<g>
		<g>
			<polygon class="st2" points="174.1,119.3 269.6,124.8 329.3,145.5 421.8,222.6 410.7,326.5 324.2,415.1 182.1,433 95.8,327.4 
				85.9,223.2 145.7,194.7 			"/>
			<polygon class="st2" points="128.6,173.9 323.4,143 402.2,237.7 411.8,346.7 331.3,426.7 172.4,410.6 79.9,338.8 103,237.1 			
				"/>
			<line class="st2" x1="175" y1="128.6" x2="264.1" y2="181.6"/>
			<line class="st2" x1="264.1" y1="181.6" x2="320.9" y2="151.7"/>
			<line class="st2" x1="320.9" y1="151.3" x2="338.2" y2="205.7"/>
			<line class="st2" x1="338.2" y1="205.7" x2="264.1" y2="181.6"/>
			<line class="st2" x1="264.1" y1="181.6" x2="180" y2="198.6"/>
			<line class="st2" x1="180" y1="198.6" x2="216.3" y2="246.3"/>
			<line class="st2" x1="216.3" y1="246.5" x2="264.1" y2="181.6"/>
			<line class="st2" x1="264.1" y1="181.6" x2="306.2" y2="262.3"/>
			<line class="st2" x1="306.4" y1="262.3" x2="338.6" y2="205.7"/>
			<line class="st2" x1="180" y1="198.6" x2="144.7" y2="194.8"/>
			<line class="st2" x1="144.7" y1="194.8" x2="183.1" y2="133.2"/>
			<line class="st2" x1="144.7" y1="194.8" x2="138.2" y2="236.9"/>
			<line class="st2" x1="138.2" y1="236.9" x2="180" y2="198.6"/>
			<line class="st2" x1="138.2" y1="236.9" x2="103.3" y2="233.3"/>
			<line class="st2" x1="128.6" y1="173.9" x2="144.7" y2="194.8"/>
			<line class="st2" x1="144.7" y1="194.8" x2="103.7" y2="230.3"/>
			<line class="st2" x1="138.2" y1="236.9" x2="176.3" y2="268.7"/>
			<line class="st2" x1="176.3" y1="268.7" x2="128" y2="286.2"/>
			<line class="st2" x1="128" y1="286.2" x2="86" y2="224.3"/>
			<line class="st2" x1="128" y1="286.2" x2="96.9" y2="328.5"/>
			<line class="st2" x1="128" y1="286.2" x2="141.7" y2="349.3"/>
			<line class="st2" x1="141.7" y1="349.3" x2="179.3" y2="320.6"/>
			<line class="st2" x1="141.7" y1="349.3" x2="102.7" y2="325.9"/>
			<line class="st2" x1="141.7" y1="349.3" x2="193.7" y2="380.2"/>
			<line class="st2" x1="193.7" y1="380.2" x2="221.8" y2="330.6"/>
			<line class="st2" x1="178.3" y1="320.2" x2="193.7" y2="380.2"/>
			<line class="st2" x1="128" y1="286.2" x2="180.4" y2="320.8"/>
			<line class="st2" x1="141.7" y1="349.3" x2="183.6" y2="422.7"/>
			<line class="st2" x1="193.7" y1="380.2" x2="186.6" y2="419.9"/>
			<line class="st2" x1="193.7" y1="380.2" x2="266.6" y2="388.8"/>
			<line class="st2" x1="266.6" y1="388.8" x2="258.5" y2="330.6"/>
			<line class="st2" x1="222.5" y1="331.5" x2="266.6" y2="388.8"/>
			<line class="st2" x1="266.6" y1="388.8" x2="198.5" y2="424.4"/>
			<line class="st2" x1="266.6" y1="388.8" x2="321.1" y2="422.2"/>
			<line class="st2" x1="266.6" y1="388.8" x2="321.6" y2="359.1"/>
			<line class="st2" x1="321.6" y1="359.1" x2="320.7" y2="412"/>
			<line class="st2" x1="321.6" y1="359.1" x2="354" y2="365.5"/>
			<line class="st2" x1="354" y1="365.5" x2="339.5" y2="312.5"/>
			<line class="st2" x1="339.5" y1="312.3" x2="274.3" y2="327.2"/>
			<line class="st2" x1="260.2" y1="330.6" x2="321.6" y2="359.1"/>
			<line class="st2" x1="354" y1="365.5" x2="328.4" y2="406.9"/>
			<line class="st2" x1="354" y1="365.5" x2="410.8" y2="326.8"/>
			<line class="st2" x1="336.7" y1="312.9" x2="369.7" y2="272.1"/>
			<line class="st2" x1="369.7" y1="272.1" x2="408.7" y2="327.4"/>
			<line class="st2" x1="369.7" y1="272.1" x2="354" y2="365.5"/>
			<line class="st2" x1="369.7" y1="272.1" x2="402.7" y2="239.4"/>
			<line class="st2" x1="369.7" y1="272.1" x2="360.5" y2="217.4"/>
			<line class="st2" x1="360.5" y1="217.4" x2="337.5" y2="205.7"/>
			<line class="st2" x1="360.5" y1="217.4" x2="323.6" y2="266.2"/>
			<line class="st2" x1="307.1" y1="261.3" x2="326.2" y2="265.9"/>
			<line class="st2" x1="360.5" y1="217.4" x2="417.5" y2="219.8"/>
			<line class="st2" x1="320.7" y1="152.3" x2="351.9" y2="188.9"/>
			<line class="st2" x1="351.9" y1="188.9" x2="338.7" y2="205.7"/>
			<line class="st2" x1="351.9" y1="188.9" x2="360.5" y2="217.4"/>
			<line class="st2" x1="351.9" y1="188.9" x2="420.1" y2="221.5"/>
			<line class="st2" x1="269.6" y1="124.8" x2="183.4" y2="128.6"/>
			<circle class="st3" cx="269.5" cy="124.7" r="3.2"/>
			<circle class="st3" cx="264.1" cy="181.9" r="3.2"/>
			<circle class="st3" cx="223.3" cy="158.8" r="3.2"/>
			<circle class="st3" cx="128.4" cy="174.1" r="3.2"/>
			<circle class="st3" cx="145" cy="195.2" r="3.2"/>
			<circle class="st3" cx="180" cy="199" r="3.2"/>
			<circle class="st3" cx="138.1" cy="236.4" r="3.2"/>
			<circle class="st3" cx="128.3" cy="286.8" r="3.2"/>
			<circle class="st3" cx="94.8" cy="283.1" r="3.2"/>
			<circle class="st3" cx="142.2" cy="349.5" r="3.2"/>
			<circle class="st3" cx="193.6" cy="379.9" r="3.2"/>
			<circle class="st3" cx="148.6" cy="391.6" r="3.2"/>
			<circle class="st3" cx="266.9" cy="388.3" r="3.2"/>
			<circle class="st3" cx="278.2" cy="420.3" r="3.2"/>
			<circle class="st3" cx="218.6" cy="414.1" r="3.2"/>
			<circle class="st3" cx="354" cy="365.4" r="3.2"/>
			<circle class="st3" cx="321.7" cy="359.3" r="3.2"/>
			<circle class="st3" cx="370.2" cy="271.7" r="3.2"/>
			<circle class="st3" cx="360.6" cy="217.1" r="3.2"/>
			<circle class="st3" cx="337.8" cy="206" r="3.2"/>
			<circle class="st3" cx="351.8" cy="188.7" r="3.2"/>
			<circle class="st3" cx="367.4" cy="195.7" r="3.2"/>
			<polyline class="st2" points="179.5,198.7 223.7,158.6 270.3,124.4 			"/>
		</g>
		<line class="st2" x1="128.4" y1="174.1" x2="175.4" y2="121.2"/>
	</g>
	<g>
		<path class="st4" d="M348.6,330.6c0,5.2-4.2,9.5-9.5,9.5H168.6c-5.2,0-9.5-4.2-9.5-9.5V227.9c0-5.2,4.2-9.5,9.5-9.5h170.6
			c5.2,0,9.5,4.2,9.5,9.5V330.6z"/>
		<g>
			<rect x="242.2" y="332.7" class="st5" width="23.5" height="14.7"/>
			<rect x="233.1" y="344" class="st5" width="41.7" height="6.8"/>
		</g>
		<g>
			<circle class="st6" cx="254" cy="269.3" r="19.9"/>
			<path class="st6" d="M254,282.6c-16.2,0-29.3,13.1-29.3,29.3h58.5C283.3,295.8,270.2,282.6,254,282.6z"/>
			<g>
				<polygon class="st5" points="255.9,291.1 252.1,291.1 250.1,306.3 254,310.1 257.9,306.3 				"/>
				<path class="st5" d="M254,288.8c-1.2,0-2.3-0.1-3.5-0.3l-0.4,1.8l3.9,3.7l3.9-3.7l-0.4-1.8C256.4,288.7,255.2,288.8,254,288.8z"
					/>
			</g>
			<path class="st5" d="M247.5,245.4c0,0-4-0.7-7-0.1c-3.5,0.8-6.1-0.1-6.7-1.4c0,0-1.1,5.8,2,8c0,0-4.1,2.2-4.8,6.3
				c0,0,2.2-0.5,4.2-1c0,0-4.1,4.5-0.9,13c2.4-12,13.3-14.7,13.3-14.7c-5.2,2.4-5,7.3-5,7.3c5.3-8,25.7-5.4,25.7-5.4
				c2.2,10.1,5.8,12.7,5.8,12.7c5.9-11.7-3.2-20.5-3.2-20.5c-4.3-11.2-16.8-10.4-22.2-9.8c-5.4,0.6-6.3-1.3-6.3-1.3
				S240.7,243.5,247.5,245.4z"/>
		</g>
		<g>
			<path class="st5" d="M159.1,311.6v18.9c0,5.2,4.2,9.5,9.5,9.5h170.6c5.2,0,9.5-4.2,9.5-9.5v-18.9H159.1z"/>
			<g>
				<rect x="164.1" y="323.3" class="st7" width="180" height="2.8"/>
				<rect x="224.2" y="323.3" class="st4" width="119.9" height="2.8"/>
				<circle class="st6" cx="224.2" cy="324.6" r="5.8"/>
				<circle class="st4" cx="224.2" cy="324.6" r="2.9"/>
			</g>
		</g>
		<g>
			<path class="st6" d="M307.6,234.7c-9.5,0-17.2,7.7-17.2,17.2c0,2.6,0.6,5.1,1.6,7.3l-7,7.8l12.2-1.4c2.9,2.2,6.5,3.5,10.4,3.5
				c9.5,0,17.2-7.7,17.2-17.2C324.9,242.4,317.2,234.7,307.6,234.7z"/>
			<g>
				<circle class="st5" cx="302.1" cy="253.7" r="1.3"/>
				<circle class="st5" cx="307.6" cy="253.7" r="1.3"/>
				<circle class="st5" cx="313.2" cy="253.7" r="1.3"/>
			</g>
		</g>
		<g>
			<path class="st6" d="M325.8,275.3c0,0.7-0.5,1.2-1.2,1.2h-33.7c-0.7,0-1.2-0.5-1.2-1.2l0,0c0-0.7,0.5-1.2,1.2-1.2h33.7
				C325.3,274.1,325.8,274.7,325.8,275.3L325.8,275.3z"/>
			<path class="st6" d="M325.8,282.4c0,0.7-0.5,1.2-1.2,1.2h-33.7c-0.7,0-1.2-0.5-1.2-1.2l0,0c0-0.7,0.5-1.2,1.2-1.2h33.7
				C325.3,281.2,325.8,281.7,325.8,282.4L325.8,282.4z"/>
			<path class="st6" d="M325.8,289.5c0,0.7-0.5,1.2-1.2,1.2h-33.7c-0.7,0-1.2-0.5-1.2-1.2l0,0c0-0.7,0.5-1.2,1.2-1.2h33.7
				C325.3,288.3,325.8,288.8,325.8,289.5L325.8,289.5z"/>
		</g>
		<g>
			<path class="st6" d="M195.7,249.9c0,2.3-1.8,4.1-4.1,4.1h-10.9c-2.3,0-4.1-1.8-4.1-4.1V239c0-2.3,1.8-4.1,4.1-4.1h10.9
				c2.3,0,4.1,1.8,4.1,4.1V249.9z"/>
			<path class="st5" d="M217.3,249.9c0,2.3-1.8,4.1-4.1,4.1h-10.9c-2.3,0-4.1-1.8-4.1-4.1V239c0-2.3,1.8-4.1,4.1-4.1h10.9
				c2.3,0,4.1,1.8,4.1,4.1V249.9z"/>
			<path class="st5" d="M195.7,271.3c0,2.3-1.8,4.1-4.1,4.1h-10.9c-2.3,0-4.1-1.8-4.1-4.1v-10.9c0-2.3,1.8-4.1,4.1-4.1h10.9
				c2.3,0,4.1,1.8,4.1,4.1V271.3z"/>
			<path class="st6" d="M217.3,271.3c0,2.3-1.8,4.1-4.1,4.1h-10.9c-2.3,0-4.1-1.8-4.1-4.1v-10.9c0-2.3,1.8-4.1,4.1-4.1h10.9
				c2.3,0,4.1,1.8,4.1,4.1V271.3z"/>
		</g>
		<path class="st8" d="M168.6,218.5c-5.2,0-9.5,4.2-9.5,9.5v102.6c0,5.2,4.2,9.5,9.5,9.5h21.8L312,218.5H168.6z"/>
	</g>
	<g>
		<circle class="st5" cx="335.4" cy="141.3" r="39.3"/>
		<g>
			<rect x="306.5" y="122.8" class="st6" width="56.3" height="37"/>
			<g>
				<defs>
					<rect id="SVGID_1_" x="306.5" y="122.8" width="56.3" height="37"/>
				</defs>
				<clipPath id="SVGID_2_">
					<use xlink:href="#SVGID_1_"  style="overflow:visible;"/>
				</clipPath>
				<circle class="st9" cx="335" cy="143.7" r="18.6"/>
			</g>
			<g>
				<g>
					<circle class="st4" cx="335" cy="143.7" r="14"/>
					<g>
						<g>
							<path class="st10" d="M336.2,152.9c1-0.8,3.6-2.1,2.9-3.6c-0.7-1.5-3.2-1.6-4.5-1.7c-1-0.1-1.9-0.8-2.9-0.5
								c-1,0.4-1.4,1.4-1.8,2.2c-0.7,1.1-1.5,2.1-2.1,3.3c-0.4,0.9-0.4,1.8-0.4,2.8c2,1.3,4.3,2.1,6.8,2.3c0.7-0.4,1.3-1.1,1.5-2.1
								C335.8,154.3,334.9,154,336.2,152.9z"/>
						</g>
						<g>
							<path class="st10" d="M337.4,129.9c-1.4,1.6-2.4,3.6-2.2,5.8c0.3,2,2.7,1.2,3.7,2.5c0.8,0.9,0.3,2.6,0.8,3.6
								c0.5,1.2,1.6,1.7,2.7,2.4c1.3,0.8,1.9,1.4,2.4,2.8c0.6,1.4,1.4,2.6,2.5,3.4c1.1-2,1.7-4.3,1.7-6.7
								C349,136.8,344,131.1,337.4,129.9z"/>
						</g>
						<g>
							<path class="st10" d="M326.5,147.9c-0.1-0.5-0.5-1.8-0.8-2.1c-0.5-0.7-1.3-0.4-2.1-0.5c-0.8-0.1-1.7-0.4-2.5-0.7
								c0.2,3,1.3,5.8,3.1,8C325.7,151.8,326.7,149.9,326.5,147.9z"/>
						</g>
						<g>
							<path class="st10" d="M332.5,139.7c0.3-1.6-0.6-1.8-1.8-2.5l-0.5-0.5c-1.7,0.5-4.9,2.8-4,5c0.6,1.4,3.4,2,4.6,1.4
								c-0.4-0.8-0.1-1.1,0.5-1.6C332,140.7,332.3,140.9,332.5,139.7z"/>
						</g>
					</g>
				</g>
				<path class="st11" d="M349,143.7c0-4-1.7-7.6-4.4-10.1c-1.6,5.6-6.6,17.6-20.9,18.4c2.5,3.5,6.6,5.7,11.3,5.7
					C342.7,157.7,349,151.4,349,143.7z"/>
				
					<ellipse transform="matrix(0.6987 -0.7154 0.7154 0.6987 0.691 276.4297)" class="st12" cx="328.5" cy="137.4" rx="6.9" ry="3.6"/>
			</g>
			<g>
				<rect x="306.5" y="122.8" class="st4" width="56.3" height="4.5"/>
				<g>
					<circle class="st6" cx="308.4" cy="125.1" r="0.6"/>
					<circle class="st6" cx="310.1" cy="125.1" r="0.6"/>
					<circle class="st6" cx="311.9" cy="125.1" r="0.6"/>
				</g>
			</g>
		</g>
	</g>
	<g>
		<circle class="st5" cx="428.3" cy="221.3" r="34.7"/>
		<g>
			<rect x="403.4" y="205.1" class="st6" width="50.1" height="32.9"/>
			<g>
				<rect x="403.4" y="205.1" class="st4" width="50.1" height="4"/>
				<g>
					<circle class="st6" cx="405.1" cy="207.1" r="0.5"/>
					<circle class="st6" cx="406.6" cy="207.1" r="0.5"/>
					<circle class="st6" cx="408.2" cy="207.1" r="0.5"/>
				</g>
			</g>
			<g>
				<circle class="st10" cx="415.3" cy="223.2" r="8"/>
				<polygon class="st6" points="412.7,217.4 412.7,229.1 421.2,223.3 				"/>
			</g>
			<rect x="426.8" y="216" class="st5" width="23.6" height="3.3"/>
			<g>
				<rect x="426.8" y="221.1" class="st13" width="23.7" height="1.2"/>
				<rect x="426.8" y="223.6" class="st13" width="23.7" height="1.2"/>
				<rect x="426.8" y="226.1" class="st13" width="23.7" height="1.2"/>
				<rect x="426.8" y="228.5" class="st13" width="23.7" height="1.2"/>
			</g>
		</g>
	</g>
	<g>
		<circle class="st5" cx="417.6" cy="328.3" r="24.5"/>
		<g>
			<g>
				<rect x="400.1" y="316.9" class="st6" width="35.3" height="23.2"/>
				<g>
					<rect x="400.1" y="316.9" class="st4" width="35.3" height="2.8"/>
					<g>
						<circle class="st6" cx="401.3" cy="318.3" r="0.4"/>
						<circle class="st6" cx="402.4" cy="318.3" r="0.4"/>
						<circle class="st6" cx="403.5" cy="318.3" r="0.4"/>
					</g>
				</g>
			</g>
			<g>
				<defs>
					<rect id="SVGID_3_" x="400.1" y="316.9" width="35.3" height="23.2"/>
				</defs>
				<clipPath id="SVGID_4_">
					<use xlink:href="#SVGID_3_"  style="overflow:visible;"/>
				</clipPath>
				<g class="st14">
					<polygon class="st15" points="436.8,333.1 427.1,322.4 420.8,331.3 415.2,326 409.6,332.8 405.4,329.2 399.3,336.5 
						399.9,340.6 436.7,340.6 					"/>
					<polygon class="st5" points="436.8,336 427.1,329.2 420.8,334.2 415.2,330.8 409.6,335.7 405.4,334.9 399.3,339.4 399.9,343.5 
						436.7,343.5 					"/>
					<polygon class="st10" points="436.8,339.9 427.1,337.5 420.8,338.1 415.2,334.7 409.6,339.5 405.4,336.9 396.8,341.9 
						399.9,347.4 436.7,347.4 					"/>
				</g>
			</g>
		</g>
	</g>
	<g>
		<circle class="st5" cx="337.2" cy="419.4" r="41.6"/>
		<g>
			<g>
				<rect x="307.6" y="400.2" class="st6" width="60" height="39.4"/>
				<g>
					<rect x="307.6" y="400.2" class="st4" width="60" height="4.8"/>
					<g>
						<circle class="st6" cx="309.6" cy="402.6" r="0.7"/>
						<circle class="st6" cx="311.5" cy="402.6" r="0.7"/>
						<circle class="st6" cx="313.4" cy="402.6" r="0.7"/>
					</g>
				</g>
			</g>
			<g>
				<path class="st15" d="M341.1,416.2c0.3,0.1,0.6,0.3,0.9,0.4l8.1-4.9c-2.4-2.5-5.5-4.2-9-4.7V416.2z"/>
				<path class="st5" d="M340.4,428.8c-0.5,0.1-1,0.2-1.5,0.2c-3.6,0-6.6-3-6.6-6.6c0-2.9,1.9-5.4,4.6-6.3v-9.1
					c-7.6,1-13.5,7.5-13.5,15.4c0,8.6,7,15.5,15.5,15.5c3.7,0,7.2-1.3,9.9-3.5L340.4,428.8z"/>
				<path class="st10" d="M344.9,419.7c0.3,0.8,0.5,1.7,0.5,2.6c0,1.4-0.5,2.8-1.3,3.9l7.4,5c1.8-2.5,2.8-5.6,2.8-8.9
					c0-2.6-0.7-5.1-1.8-7.3L344.9,419.7z"/>
			</g>
		</g>
	</g>
	<g>
		<circle class="st5" cx="176.8" cy="430.9" r="25.6"/>
		<g>
			<g>
				<rect x="157.9" y="418.6" class="st6" width="37" height="24.3"/>
				<g>
					<rect x="157.9" y="418.6" class="st4" width="37" height="3"/>
					<g>
						<circle class="st6" cx="159.2" cy="420.1" r="0.4"/>
						<circle class="st6" cx="160.3" cy="420.1" r="0.4"/>
						<circle class="st6" cx="161.5" cy="420.1" r="0.4"/>
					</g>
				</g>
			</g>
			<g>
				<path class="st15" d="M173.3,434.7c0,2-1.6,3.6-3.6,3.6h-4.8c-2,0-3.6-1.6-3.6-3.6v-4.8c0-2,1.6-3.6,3.6-3.6h4.8
					c2,0,3.6,1.6,3.6,3.6V434.7z"/>
				<path class="st5" d="M161.5,428.6h11.6c-0.5-1.4-1.8-2.4-3.4-2.4h-4.8C163.4,426.3,162.1,427.2,161.5,428.6z"/>
				<text transform="matrix(1 0 0 1 163.9785 435.625)" class="st6 st16 st17">23</text>
			</g>
			<g>
				<circle class="st5" cx="183.9" cy="432.3" r="7.8"/>
				<circle class="st6" cx="183.9" cy="432.3" r="6.8"/>
				<rect x="183.6" y="428" class="st5" width="0.6" height="4.8"/>
				<rect x="183.6" y="432.1" class="st5" width="2.9" height="0.6"/>
				<circle class="st15" cx="183.9" cy="432.3" r="0.8"/>
				<rect x="183.7" y="424.9" class="st5" width="0.4" height="1.4"/>
				
					<rect x="180.4" y="425.8" transform="matrix(0.8654 -0.501 0.501 0.8654 -189.3981 147.8686)" class="st5" width="0.4" height="1.4"/>
				
					<rect x="177.9" y="428.2" transform="matrix(0.5004 -0.8658 0.8658 0.5004 -282.3954 368.542)" class="st5" width="0.4" height="1.4"/>
				<rect x="176.5" y="432.1" class="st5" width="1.4" height="0.4"/>
				
					<rect x="177.4" y="435.4" transform="matrix(0.8647 -0.5023 0.5023 0.8647 -194.7251 148.4107)" class="st5" width="1.4" height="0.4"/>
				
					<rect x="179.8" y="437.9" transform="matrix(0.5001 -0.866 0.866 0.5001 -289.1132 375.2975)" class="st5" width="1.4" height="0.4"/>
				<polygon class="st5" points="183.6,438.3 184,438.3 184,439.7 183.6,439.7 				"/>
				
					<rect x="187" y="437.4" transform="matrix(0.8667 -0.4988 0.4988 0.8667 -193.5825 151.761)" class="st5" width="0.4" height="1.4"/>
				
					<rect x="189.4" y="435" transform="matrix(0.4996 -0.8662 0.8662 0.4996 -282.5179 382.2715)" class="st5" width="0.4" height="1.4"/>
				<rect x="189.8" y="432.2" class="st5" width="1.4" height="0.4"/>
				
					<rect x="189" y="428.8" transform="matrix(0.8657 -0.5005 0.5005 0.8657 -189.2638 152.5405)" class="st5" width="1.4" height="0.4"/>
				
					<rect x="186.5" y="426.4" transform="matrix(0.4994 -0.8664 0.8664 0.4994 -275.8279 375.7574)" class="st5" width="1.4" height="0.4"/>
			</g>
		</g>
	</g>
	<g>
		<circle class="st5" cx="85.8" cy="343.3" r="33"/>
		<g>
			<g>
				<rect x="61.9" y="327.2" class="st6" width="47.6" height="31.3"/>
				<g>
					<rect x="61.9" y="327.2" class="st4" width="47.6" height="3.8"/>
					<g>
						<circle class="st6" cx="63.5" cy="329.1" r="0.5"/>
						<circle class="st6" cx="65" cy="329.1" r="0.5"/>
						<circle class="st6" cx="66.5" cy="329.1" r="0.5"/>
					</g>
				</g>
			</g>
			<g>
				<g>
					<g>
						<rect x="77.9" y="332.7" class="st15" width="16.9" height="23.3"/>
						<rect x="78.8" y="334.2" class="st5" width="15.1" height="19.2"/>
					</g>
					<g>
						<circle class="st10" cx="86" cy="343.9" r="4.4"/>
						<polygon class="st6" points="84.6,340.7 84.6,347.1 89.2,343.9 						"/>
					</g>
					<polygon class="st8" points="90.7,334.2 78.8,334.2 78.8,346.2 					"/>
				</g>
				<g>
					<g>
						<rect x="92.3" y="338.4" class="st15" width="10.6" height="17.6"/>
						<rect x="93" y="339.7" class="st5" width="9.3" height="15"/>
					</g>
					<g>
						<circle class="st10" cx="97.6" cy="347" r="3.4"/>
						<polygon class="st6" points="96.5,344.6 96.5,349.5 100,347 						"/>
					</g>
					<polygon class="st8" points="100.7,339.7 93,339.7 93,347.3 					"/>
				</g>
				<g>
					<g>
						<g>
							<rect x="68.8" y="337.1" class="st15" width="11.7" height="19"/>
						</g>
						<g>
							<rect x="68.8" y="338.3" class="st5" width="11.7" height="16.5"/>
						</g>
					</g>
					<g>
						<circle class="st10" cx="74.6" cy="346.8" r="4.4"/>
						<polygon class="st6" points="73.1,343.7 73.1,350.1 77.8,346.9 						"/>
					</g>
				</g>
			</g>
			<polygon class="st8" points="78.1,337.8 68,337.8 68,347.9 			"/>
		</g>
	</g>
	<g>
		<circle class="st5" cx="81.4" cy="214.6" r="40.4"/>
		<g>
			<g>
				<rect x="52.5" y="194.9" class="st6" width="58.3" height="38.3"/>
				<g>
					<rect x="52.5" y="194.9" class="st4" width="58.3" height="4.7"/>
					<g>
						<circle class="st6" cx="54.5" cy="197.2" r="0.6"/>
						<circle class="st6" cx="56.3" cy="197.2" r="0.6"/>
						<circle class="st6" cx="58.1" cy="197.2" r="0.6"/>
					</g>
				</g>
			</g>
			<g>
				<g>
					<path class="st5" d="M80.6,219.3c0,2-1.7,3.7-3.7,3.7h-8.4c-2,0-3.7-1.7-3.7-3.7v-8.4c0-2,1.7-3.7,3.7-3.7h8.4
						c2,0,3.7,1.6,3.7,3.7V219.3z"/>
					<polygon class="st5" points="74,221.3 80.6,228.5 80.6,211.8 					"/>
					<path class="st15" d="M81.8,218.5c0,2.5,2,4.5,4.5,4.5h10.2c2.5,0,4.5-2,4.5-4.5v-10.2c0-2.5-2-4.5-4.5-4.5H86.2
						c-2.5,0-4.5,2-4.5,4.5V218.5z"/>
					<polygon class="st15" points="88.3,221.3 81.8,228.5 81.8,211.8 					"/>
				</g>
				<path class="st8" d="M75.2,207.2h-6.7c-2,0-3.7,1.6-3.7,3.7v6.7L75.2,207.2z"/>
				<path class="st8" d="M96.4,203.8H86.2c-2.5,0-4.5,2-4.5,4.5v10.2c0,0.1,0,0.3,0,0.4l15.1-15.1C96.7,203.8,96.6,203.8,96.4,203.8
					z"/>
			</g>
		</g>
	</g>
	<g>
		<circle class="st5" cx="173.6" cy="128.9" r="23.9"/>
		<g>
			<g>
				<rect x="156.5" y="117.4" class="st6" width="34.5" height="22.7"/>
				<g>
					<rect x="156.5" y="117.4" class="st4" width="34.5" height="2.8"/>
					<g>
						<circle class="st6" cx="157.7" cy="118.8" r="0.4"/>
						<circle class="st6" cx="158.7" cy="118.8" r="0.4"/>
						<circle class="st6" cx="159.8" cy="118.8" r="0.4"/>
					</g>
				</g>
			</g>
			<g>
				<g>
					<circle class="st15" cx="173.5" cy="127.2" r="5.9"/>
					<circle class="st6" cx="173.5" cy="127.2" r="5.1"/>
					<circle class="st15" cx="173.5" cy="127.2" r="4.8"/>
					<g>
						<path class="st6" d="M175.3,128.7c0,0.6-0.1,1-0.5,1.4c-0.2,0.2-0.5,0.3-0.8,0.4v0.5h-0.9v-0.5c-0.4-0.1-0.7-0.3-0.9-0.7
							c-0.2-0.3-0.3-0.7-0.3-1.1l1-0.1c0,0.4,0.1,0.7,0.3,0.8c0.1,0.1,0.3,0.2,0.4,0.2c0.2,0,0.4-0.1,0.5-0.3
							c0.1-0.1,0.1-0.3,0.1-0.4c0-0.3-0.1-0.6-0.4-0.8c-0.2-0.2-0.5-0.5-0.9-0.9c-0.3-0.3-0.5-0.6-0.7-0.8c-0.2-0.3-0.3-0.6-0.3-1
							c0-0.3,0.1-0.7,0.2-1c0.2-0.4,0.5-0.6,0.9-0.7v-0.4h0.9v0.4c0.3,0.1,0.5,0.2,0.7,0.3c0.3,0.3,0.5,0.7,0.5,1.2l-1,0.2
							c0-0.3-0.1-0.5-0.2-0.6c-0.1-0.1-0.2-0.2-0.4-0.2c-0.2,0-0.3,0.1-0.4,0.2c-0.1,0.1-0.1,0.3-0.1,0.5c0,0.3,0.1,0.6,0.4,0.9
							c0.1,0.1,0.2,0.3,0.4,0.4c0.2,0.2,0.4,0.3,0.5,0.4c0.2,0.3,0.4,0.5,0.6,0.7C175.2,128.1,175.3,128.4,175.3,128.7z"/>
					</g>
					<path class="st11" d="M177.5,122.9c-0.8,2.5-3.2,7.5-8.5,8.1c1.1,1.2,2.7,2,4.4,2c3.2,0,5.9-2.6,5.9-5.9
						C179.3,125.5,178.6,124,177.5,122.9z"/>
					<g>
						
							<ellipse transform="matrix(0.6988 -0.7154 0.7154 0.6988 -37.5341 159.3279)" class="st12" cx="170.4" cy="124.2" rx="2.4" ry="1.3"/>
					</g>
				</g>
				<g>
					<circle class="st15" cx="169.8" cy="132.2" r="5.9"/>
					<circle class="st6" cx="169.8" cy="132.2" r="5.1"/>
					<circle class="st15" cx="169.8" cy="132.2" r="4.8"/>
					<g>
						<path class="st6" d="M171.6,133.7c0,0.6-0.1,1-0.5,1.4c-0.2,0.2-0.5,0.3-0.8,0.4v0.5h-0.9v-0.5c-0.4-0.1-0.7-0.3-0.9-0.7
							c-0.2-0.3-0.3-0.7-0.3-1.1l1-0.1c0,0.4,0.1,0.7,0.3,0.8c0.1,0.1,0.3,0.2,0.4,0.2c0.2,0,0.4-0.1,0.5-0.3
							c0.1-0.1,0.1-0.3,0.1-0.4c0-0.3-0.1-0.6-0.4-0.8c-0.2-0.2-0.5-0.5-0.9-0.9c-0.3-0.3-0.5-0.6-0.7-0.8c-0.2-0.3-0.3-0.6-0.3-1
							c0-0.3,0.1-0.7,0.2-1c0.2-0.4,0.5-0.6,0.9-0.7v-0.4h0.9v0.4c0.3,0.1,0.5,0.2,0.7,0.3c0.3,0.3,0.5,0.7,0.5,1.2l-1,0.2
							c0-0.3-0.1-0.5-0.2-0.7c-0.1-0.1-0.2-0.2-0.4-0.2c-0.2,0-0.3,0.1-0.4,0.2c-0.1,0.1-0.1,0.3-0.1,0.5c0,0.3,0.1,0.6,0.4,0.9
							c0.1,0.1,0.2,0.3,0.4,0.4c0.2,0.2,0.4,0.3,0.5,0.4c0.3,0.3,0.4,0.5,0.6,0.7C171.5,133.1,171.6,133.4,171.6,133.7z"/>
					</g>
					<path class="st11" d="M173.8,127.9c-0.8,2.5-3.2,7.5-8.5,8.1c1.1,1.2,2.7,2,4.4,2c3.2,0,5.9-2.6,5.9-5.9
						C175.7,130.5,175,129,173.8,127.9z"/>
					<g>
						
							<ellipse transform="matrix(0.6985 -0.7156 0.7156 0.6985 -42.1897 158.2701)" class="st12" cx="166.7" cy="129.2" rx="2.4" ry="1.3"/>
					</g>
				</g>
				<g>
					<circle class="st15" cx="177.8" cy="132.2" r="5.9"/>
					<circle class="st6" cx="177.8" cy="132.2" r="5.1"/>
					<circle class="st15" cx="177.8" cy="132.2" r="4.8"/>
					<g>
						<path class="st6" d="M179.6,133.7c0,0.6-0.2,1-0.5,1.4c-0.2,0.2-0.5,0.3-0.8,0.4v0.5h-0.9v-0.5c-0.4-0.1-0.7-0.3-0.9-0.7
							c-0.2-0.3-0.3-0.7-0.3-1.1l1-0.1c0,0.4,0.1,0.7,0.3,0.8c0.1,0.1,0.3,0.2,0.4,0.2c0.2,0,0.4-0.1,0.5-0.3
							c0.1-0.1,0.1-0.3,0.1-0.4c0-0.3-0.1-0.6-0.4-0.8c-0.2-0.2-0.5-0.5-0.9-0.9c-0.3-0.3-0.5-0.6-0.7-0.8c-0.2-0.3-0.3-0.6-0.3-1
							c0-0.3,0.1-0.7,0.2-1c0.2-0.4,0.5-0.6,0.9-0.7v-0.4h0.9v0.4c0.3,0.1,0.5,0.2,0.7,0.3c0.3,0.3,0.5,0.7,0.5,1.2l-1,0.2
							c0-0.3-0.1-0.5-0.2-0.7c-0.1-0.1-0.2-0.2-0.4-0.2c-0.2,0-0.3,0.1-0.4,0.2c-0.1,0.1-0.1,0.3-0.1,0.5c0,0.3,0.1,0.6,0.4,0.9
							c0.1,0.1,0.2,0.3,0.4,0.4c0.2,0.2,0.4,0.3,0.5,0.4c0.2,0.3,0.4,0.5,0.6,0.7C179.5,133.1,179.6,133.4,179.6,133.7z"/>
					</g>
					<path class="st11" d="M181.8,127.9c-0.8,2.5-3.2,7.5-8.5,8.1c1.1,1.2,2.7,2,4.4,2c3.2,0,5.9-2.6,5.9-5.9
						C183.7,130.5,183,129,181.8,127.9z"/>
					<g>
						
							<ellipse transform="matrix(0.6985 -0.7156 0.7156 0.6985 -39.7764 164)" class="st12" cx="174.7" cy="129.2" rx="2.4" ry="1.3"/>
					</g>
				</g>
			</g>
		</g>
	</g>
</g>
<g id="DESIGNED_BY_FREEPIK">
</g>
</svg>
