<?xml version="1.0" encoding="utf-8"?>
<!-- Generator: Adobe Illustrator 19.2.1, SVG Export Plug-In . SVG Version: 6.00 Build 0)  -->
<svg version="1.1" xmlns="http://www.w3.org/2000/svg" xmlns:xlink="http://www.w3.org/1999/xlink" x="0px" y="0px"
	 viewBox="0 0 399 342" style="enable-background:new 0 0 399 342;" xml:space="preserve">
<style type="text/css">
	.st0{display:none;}
	.st1{display:inline;fill:#FFFFFF;}
	.st2{fill:#231F20;}
	.st3{fill:#E6E7E8;}
	.st4{fill:#D1D3D4;}
	.st5{fill:#232B33;}
	.st6{clip-path:url(#SVGID_2_);}
	.st7{fill:#3A4755;}
	.st8{fill:#FDD7C2;}
	.st9{fill:#27AAE1;}
	.st10{fill:#FFFFFF;}
	.st11{clip-path:url(#SVGID_4_);}
	.st12{fill:#F7941E;}
	.st13{opacity:0.2;fill:#FFFFFF;}
	.st14{fill:#A7A9AC;}
	.st15{fill:#F1F2F2;}
	.st16{clip-path:url(#SVGID_6_);}
	.st17{clip-path:url(#SVGID_8_);}
	.st18{fill:#BCBEC0;}
	.st19{clip-path:url(#SVGID_10_);}
	.st20{fill:#8DC63F;}
	.st21{opacity:0.2;}
</style>
<g id="BACKGROUND" class="st0">
	
		<rect x="-42.6" y="-112.1" transform="matrix(-1.836970e-016 1 -1 -1.836970e-016 345.2713 -69.466)" class="st1" width="500" height="500"/>
</g>
<g id="OBJECTS">
	<g>
		<path class="st2" d="M35.4,210c-0.7,0-1.3-0.6-1.3-1.3c0-1.2,0-2.4,0-3.5c0-0.7,0.6-1.2,1.3-1.2c0.7,0,1.2,0.6,1.2,1.3
			c0,1.2,0,2.3,0,3.5C36.7,209.5,36.1,210,35.4,210z M37,198.3c0.1-2.3,0.3-4.7,0.6-7c0.1-0.7-0.4-1.3-1.1-1.4
			c-0.7-0.1-1.3,0.4-1.4,1.1c-0.2,2.3-0.4,4.7-0.6,7.1c0,0.7,0.5,1.3,1.2,1.3c0,0,0.1,0,0.1,0C36.4,199.5,37,198.9,37,198.3z
			 M376.9,199.3c0.7,0,1.2-0.6,1.2-1.3c-0.1-2.4-0.3-4.7-0.6-7.1c-0.1-0.7-0.7-1.2-1.4-1.1c-0.7,0.1-1.2,0.7-1.1,1.4
			c0.2,2.3,0.4,4.7,0.6,7C375.6,198.8,376.2,199.3,376.9,199.3C376.9,199.3,376.9,199.3,376.9,199.3z M38.4,184.3
			c0.3-2.3,0.7-4.6,1.1-6.9c0.1-0.7-0.3-1.3-1-1.5c-0.7-0.1-1.3,0.3-1.5,1c-0.4,2.3-0.8,4.7-1.2,7c-0.1,0.7,0.4,1.3,1.1,1.4
			c0.1,0,0.1,0,0.2,0C37.8,185.4,38.4,185,38.4,184.3z M375.6,185.2c0.7-0.1,1.2-0.7,1.1-1.4c-0.3-2.3-0.7-4.7-1.2-7
			c-0.1-0.7-0.8-1.1-1.5-1c-0.7,0.1-1.1,0.8-1,1.5c0.4,2.3,0.8,4.6,1.2,6.9c0.1,0.6,0.6,1.1,1.2,1.1
			C375.4,185.2,375.5,185.2,375.6,185.2z M41,170.6c0.5-2.3,1.1-4.5,1.7-6.8c0.2-0.7-0.2-1.4-0.9-1.5c-0.7-0.2-1.4,0.2-1.5,0.9
			c-0.6,2.3-1.2,4.6-1.7,6.9c-0.2,0.7,0.3,1.3,0.9,1.5c0.1,0,0.2,0,0.3,0C40.4,171.5,40.9,171.1,41,170.6z M373.1,171.3
			c0.7-0.2,1.1-0.8,0.9-1.5c-0.5-2.3-1.1-4.6-1.7-6.9c-0.2-0.7-0.9-1.1-1.5-0.9c-0.7,0.2-1.1,0.9-0.9,1.5c0.6,2.2,1.2,4.5,1.7,6.8
			c0.1,0.6,0.6,1,1.2,1C372.9,171.4,373,171.4,373.1,171.3z M44.7,157c0.7-2.2,1.5-4.5,2.3-6.6c0.2-0.6-0.1-1.4-0.7-1.6
			c-0.6-0.2-1.4,0.1-1.6,0.7c-0.8,2.2-1.6,4.5-2.3,6.7c-0.2,0.7,0.2,1.4,0.8,1.6c0.1,0,0.3,0.1,0.4,0.1
			C44.1,157.9,44.6,157.6,44.7,157z M369.4,157.7c0.7-0.2,1-0.9,0.8-1.6c-0.7-2.2-1.5-4.5-2.3-6.7c-0.2-0.6-1-1-1.6-0.7
			s-1,1-0.7,1.6c0.8,2.2,1.6,4.4,2.3,6.6c0.2,0.5,0.7,0.9,1.2,0.9C369.1,157.8,369.3,157.7,369.4,157.7z M49.6,143.8
			c0.9-2.2,1.8-4.3,2.8-6.4c0.3-0.6,0-1.4-0.6-1.7c-0.6-0.3-1.4,0-1.7,0.6c-1,2.1-2,4.3-2.9,6.5c-0.3,0.6,0,1.4,0.7,1.6
			c0.2,0.1,0.3,0.1,0.5,0.1C48.9,144.6,49.4,144.3,49.6,143.8z M364.6,144.4c0.6-0.3,0.9-1,0.7-1.6c-0.9-2.2-1.9-4.4-2.9-6.5
			c-0.3-0.6-1-0.9-1.7-0.6c-0.6,0.3-0.9,1-0.6,1.7c1,2.1,1.9,4.3,2.8,6.4c0.2,0.5,0.7,0.8,1.2,0.8
			C364.3,144.5,364.5,144.5,364.6,144.4z M55.5,131.1c1.1-2.1,2.2-4.1,3.3-6.2c0.3-0.6,0.1-1.4-0.5-1.7c-0.6-0.3-1.4-0.1-1.7,0.5
			c-1.2,2.1-2.3,4.2-3.4,6.3c-0.3,0.6-0.1,1.4,0.5,1.7c0.2,0.1,0.4,0.1,0.6,0.1C54.8,131.8,55.3,131.5,55.5,131.1z M358.8,131.6
			c0.6-0.3,0.9-1.1,0.5-1.7c-1.1-2.1-2.2-4.2-3.4-6.2c-0.3-0.6-1.1-0.8-1.7-0.5c-0.6,0.3-0.8,1.1-0.5,1.7c1.1,2,2.3,4.1,3.3,6.2
			c0.2,0.4,0.7,0.7,1.1,0.7C358.4,131.7,358.6,131.7,358.8,131.6z M62.4,118.9c1.2-2,2.5-3.9,3.8-5.9c0.4-0.6,0.2-1.3-0.3-1.7
			c-0.6-0.4-1.3-0.2-1.7,0.3c-1.3,2-2.6,4-3.9,6c-0.4,0.6-0.2,1.4,0.4,1.7c0.2,0.1,0.4,0.2,0.7,0.2
			C61.8,119.5,62.2,119.3,62.4,118.9z M351.9,119.3c0.6-0.4,0.8-1.1,0.4-1.7c-1.2-2-2.6-4-3.9-5.9c-0.4-0.6-1.2-0.7-1.7-0.3
			c-0.6,0.4-0.7,1.2-0.3,1.7c1.3,1.9,2.6,3.9,3.8,5.9c0.2,0.4,0.6,0.6,1.1,0.6C351.5,119.5,351.7,119.4,351.9,119.3z M344,107.6
			c0.6-0.4,0.7-1.2,0.3-1.7c-1.4-1.9-2.9-3.8-4.4-5.6c-0.4-0.5-1.2-0.6-1.8-0.2c-0.5,0.4-0.6,1.2-0.2,1.8c1.5,1.8,2.9,3.7,4.3,5.5
			c0.2,0.3,0.6,0.5,1,0.5C343.5,107.9,343.8,107.8,344,107.6z M70.3,107.3c1.4-1.9,2.8-3.7,4.3-5.5c0.4-0.5,0.4-1.3-0.2-1.8
			c-0.5-0.4-1.3-0.4-1.8,0.2c-1.5,1.8-3,3.7-4.4,5.6c-0.4,0.6-0.3,1.3,0.3,1.7c0.2,0.2,0.5,0.2,0.7,0.2
			C69.7,107.8,70.1,107.7,70.3,107.3z M335.2,96.6c0.5-0.5,0.6-1.2,0.1-1.8c-1.6-1.8-3.2-3.5-4.8-5.2c-0.5-0.5-1.3-0.5-1.8,0
			c-0.5,0.5-0.5,1.3,0,1.8c1.6,1.7,3.2,3.4,4.7,5.2c0.2,0.3,0.6,0.4,0.9,0.4C334.7,96.9,335,96.8,335.2,96.6z M79.2,96.5
			c1.5-1.7,3.1-3.5,4.8-5.2c0.5-0.5,0.5-1.3,0-1.8c-0.5-0.5-1.3-0.5-1.8,0c-1.6,1.7-3.3,3.5-4.8,5.2c-0.5,0.5-0.4,1.3,0.1,1.8
			c0.2,0.2,0.5,0.3,0.8,0.3C78.6,96.9,79,96.7,79.2,96.5z M325.5,86.3c0.5-0.5,0.5-1.3,0-1.8c-1.7-1.6-3.5-3.3-5.2-4.8
			c-0.5-0.5-1.3-0.4-1.8,0.1c-0.5,0.5-0.4,1.3,0.1,1.8c1.7,1.5,3.5,3.1,5.2,4.8c0.2,0.2,0.6,0.3,0.9,0.3
			C324.9,86.7,325.2,86.6,325.5,86.3z M88.9,86.3c1.7-1.6,3.4-3.2,5.2-4.7c0.5-0.5,0.6-1.2,0.1-1.8c-0.5-0.5-1.2-0.6-1.8-0.1
			c-1.8,1.6-3.5,3.2-5.2,4.8c-0.5,0.5-0.5,1.3,0,1.8c0.2,0.3,0.6,0.4,0.9,0.4C88.4,86.7,88.7,86.6,88.9,86.3z M315,76.9
			c0.4-0.5,0.4-1.3-0.2-1.8c-1.8-1.5-3.7-3-5.6-4.4c-0.6-0.4-1.3-0.3-1.8,0.3c-0.4,0.6-0.3,1.3,0.3,1.7c1.9,1.4,3.7,2.8,5.5,4.3
			c0.2,0.2,0.5,0.3,0.8,0.3C314.4,77.4,314.7,77.2,315,76.9z M99.4,77.1c1.8-1.5,3.7-2.9,5.5-4.3c0.6-0.4,0.7-1.2,0.3-1.7
			c-0.4-0.6-1.2-0.7-1.7-0.3c-1.9,1.4-3.8,2.9-5.6,4.4c-0.5,0.4-0.6,1.2-0.2,1.8c0.2,0.3,0.6,0.5,1,0.5
			C98.9,77.4,99.2,77.3,99.4,77.1z M110.6,68.7c1.9-1.3,3.9-2.6,5.9-3.8c0.6-0.4,0.8-1.1,0.4-1.7c-0.4-0.6-1.1-0.8-1.7-0.4
			c-2,1.3-4,2.6-5.9,3.9c-0.6,0.4-0.7,1.2-0.3,1.7c0.2,0.4,0.6,0.5,1,0.5C110.2,68.9,110.4,68.8,110.6,68.7z M303.7,68.4
			c0.4-0.6,0.2-1.3-0.3-1.7c-2-1.3-4-2.6-6-3.9c-0.6-0.4-1.4-0.2-1.7,0.4c-0.4,0.6-0.2,1.4,0.4,1.7c2,1.2,3.9,2.5,5.9,3.8
			c0.2,0.1,0.5,0.2,0.7,0.2C303.1,68.9,303.5,68.7,303.7,68.4z M122.5,61.3c2-1.2,4.1-2.3,6.2-3.3c0.6-0.3,0.9-1.1,0.5-1.7
			c-0.3-0.6-1.1-0.9-1.7-0.5c-2.1,1.1-4.2,2.2-6.2,3.4c-0.6,0.3-0.8,1.1-0.5,1.7c0.2,0.4,0.7,0.6,1.1,0.6
			C122.1,61.4,122.3,61.4,122.5,61.3z M291.8,60.8c0.3-0.6,0.1-1.4-0.5-1.7c-2-1.2-4.2-2.3-6.3-3.4c-0.6-0.3-1.4-0.1-1.7,0.5
			c-0.3,0.6-0.1,1.4,0.5,1.7c2.1,1.1,4.2,2.2,6.2,3.3c0.2,0.1,0.4,0.2,0.6,0.2C291.1,61.4,291.6,61.2,291.8,60.8z M134.9,54.9
			c2.1-1,4.3-1.9,6.4-2.8c0.6-0.3,0.9-1,0.7-1.6c-0.3-0.6-1-0.9-1.6-0.7c-2.2,0.9-4.4,1.9-6.5,2.9c-0.6,0.3-0.9,1-0.6,1.7
			c0.2,0.5,0.7,0.7,1.1,0.7C134.6,55,134.8,54.9,134.9,54.9z M279.3,54.2c0.3-0.6,0-1.4-0.6-1.7c-2.1-1-4.3-2-6.5-2.9
			c-0.6-0.3-1.4,0-1.6,0.7c-0.3,0.6,0,1.4,0.7,1.6c2.2,0.9,4.3,1.8,6.4,2.8c0.2,0.1,0.3,0.1,0.5,0.1C278.6,54.9,279,54.7,279.3,54.2
			z M147.9,49.5c2.2-0.8,4.4-1.6,6.6-2.3c0.7-0.2,1-0.9,0.8-1.6c-0.2-0.7-0.9-1-1.6-0.8c-2.2,0.7-4.5,1.5-6.7,2.3
			c-0.6,0.2-1,1-0.7,1.6c0.2,0.5,0.7,0.8,1.2,0.8C147.6,49.6,147.7,49.5,147.9,49.5z M266.2,48.7c0.2-0.6-0.1-1.4-0.7-1.6
			c-2.2-0.8-4.5-1.6-6.7-2.3c-0.7-0.2-1.4,0.2-1.6,0.8c-0.2,0.7,0.2,1.4,0.8,1.6c2.2,0.7,4.5,1.5,6.6,2.3c0.1,0.1,0.3,0.1,0.4,0.1
			C265.6,49.5,266,49.2,266.2,48.7z M161.2,45.2c2.2-0.6,4.5-1.2,6.8-1.7c0.7-0.2,1.1-0.8,0.9-1.5c-0.2-0.7-0.8-1.1-1.5-0.9
			c-2.3,0.5-4.6,1.1-6.9,1.7c-0.7,0.2-1.1,0.9-0.9,1.5c0.2,0.6,0.7,0.9,1.2,0.9C161,45.3,161.1,45.2,161.2,45.2z M252.8,44.3
			c0.2-0.7-0.2-1.4-0.9-1.5c-2.3-0.6-4.6-1.2-6.9-1.7c-0.7-0.2-1.3,0.3-1.5,0.9c-0.2,0.7,0.3,1.3,0.9,1.5c2.3,0.5,4.6,1.1,6.8,1.7
			c0.1,0,0.2,0,0.3,0C252.1,45.2,252.6,44.9,252.8,44.3z M174.9,42.1c2.3-0.4,4.6-0.8,6.9-1.1c0.7-0.1,1.2-0.7,1.1-1.4
			c-0.1-0.7-0.7-1.2-1.4-1.1c-2.3,0.3-4.7,0.7-7,1.2c-0.7,0.1-1.1,0.8-1,1.5c0.1,0.6,0.6,1,1.2,1C174.7,42.1,174.8,42.1,174.9,42.1z
			 M239.1,41c0.1-0.7-0.3-1.3-1-1.5c-2.3-0.4-4.7-0.8-7-1.2c-0.7-0.1-1.3,0.4-1.4,1.1c-0.1,0.7,0.4,1.3,1.1,1.4
			c2.3,0.3,4.6,0.7,6.9,1.1c0.1,0,0.2,0,0.2,0C238.4,42.1,238.9,41.6,239.1,41z M188.7,40.1c2.3-0.2,4.7-0.4,7-0.6
			c0.7,0,1.2-0.6,1.2-1.3c0-0.7-0.6-1.2-1.3-1.2c-2.4,0.1-4.7,0.3-7.1,0.6c-0.7,0.1-1.2,0.7-1.1,1.4c0.1,0.6,0.6,1.1,1.2,1.1
			C188.6,40.1,188.7,40.1,188.7,40.1z M225.1,38.9c0.1-0.7-0.4-1.3-1.1-1.4c-2.3-0.2-4.7-0.4-7.1-0.6c-0.7,0-1.3,0.5-1.3,1.2
			c0,0.7,0.5,1.3,1.2,1.3c2.3,0.1,4.7,0.3,7,0.6c0,0,0.1,0,0.1,0C224.5,40,225,39.6,225.1,38.9z M202.7,39.2c1.2,0,2.3,0,3.5,0
			c1.2,0,2.3,0,3.5,0c0,0,0,0,0,0c0.7,0,1.2-0.5,1.3-1.2c0-0.7-0.5-1.3-1.2-1.3c-1.2,0-2.3,0-3.5,0c-1.2,0-2.4,0-3.6,0
			c-0.7,0-1.2,0.6-1.2,1.3C201.5,38.6,202,39.2,202.7,39.2C202.7,39.2,202.7,39.2,202.7,39.2z M378.4,208.8c0-1.2,0-2.4,0-3.5
			c0-0.7-0.6-1.2-1.3-1.2c0,0,0,0,0,0c-0.7,0-1.2,0.6-1.2,1.3c0,1.2,0,2.3,0,3.5c0,0.7,0.6,1.3,1.3,1.3
			C377.9,210,378.4,209.5,378.4,208.8z"/>
	</g>
	<g>
		<g>
			<path class="st3" d="M379.2,288.4c0,3.1-2.5,5.7-5.7,5.7H298c-3.1,0-5.7-2.5-5.7-5.7V146.2c0-3.1,2.5-5.7,5.7-5.7h75.5
				c3.1,0,5.7,2.5,5.7,5.7V288.4z"/>
			<rect x="308.1" y="145.6" class="st4" width="55.4" height="2.6"/>
			<g>
				<rect x="295.1" y="152.1" class="st5" width="81.4" height="129.3"/>
				<circle class="st3" cx="335.8" cy="271" r="5.6"/>
				<g>
					<defs>
						<rect id="SVGID_1_" x="295.1" y="152.1" width="81.4" height="129.3"/>
					</defs>
					<clipPath id="SVGID_2_">
						<use xlink:href="#SVGID_1_"  style="overflow:visible;"/>
					</clipPath>
					<g class="st6">
						<path class="st7" d="M267.5,256.7c-1.8,0-3.2-1.5-3.2-3.2v-76.1c0-1.8,1.5-3.2,3.2-3.2h136.9c1.8,0,3.2,1.5,3.2,3.2v76.1
							c0,1.8-1.5,3.2-3.2,3.2H267.5z"/>
						<rect x="264.3" y="182.1" class="st5" width="143.4" height="54.8"/>
						<g>
							<g>
								<circle class="st8" cx="335.9" cy="200.3" r="15.8"/>
								<path class="st9" d="M312.8,246.8l2.5-3.4l0.9,3.4h39.9l0.9-3.4l2.5,3.4h11.5c-1.1-3-7.8-20.9-10.2-24.1
									c-2.7-3.4-12.4-5.4-12.4-5.4l-12.6,3.5l-12.4-3.5c0,0-9.8,1.9-12.4,5.4c-2.4,3.1-9.1,21-10.2,24.1H312.8z"/>
							</g>
							<g>
								<polygon class="st5" points="337.3,220 334.4,220 332.9,238.7 335.8,241.5 338.8,238.7 								"/>
								<polygon class="st5" points="338.5,219.7 333.2,219.7 332.9,221.1 335.8,223.9 338.8,221 								"/>
							</g>
						</g>
						<rect x="284.9" y="236.9" class="st7" width="100.9" height="17.8"/>
						<g>
							<g>
								<circle class="st10" cx="318.1" cy="247.2" r="4.7"/>
								<g>
									<polygon class="st4" points="321.7,249.1 319.4,248.3 319.4,245.9 321.7,245.2 									"/>
									<rect x="314.7" y="244.8" class="st7" width="5" height="4.4"/>
								</g>
							</g>
							<g>
								<circle class="st10" cx="341.9" cy="247.2" r="4.7"/>
								<g>
									<rect x="338.8" y="245.1" class="st4" width="6.2" height="3.4"/>
									<rect x="340" y="248.9" class="st4" width="3.8" height="0.4"/>
									<polygon class="st4" points="343.3,249 340.5,249 341.2,248.5 342.6,248.5 									"/>
									<rect x="339.2" y="245.5" class="st7" width="5.4" height="2.6"/>
								</g>
							</g>
							<g>
								<circle class="st10" cx="330" cy="247.2" r="4.7"/>
								<g>
									<rect x="329.4" y="246.6" class="st4" width="1.2" height="3.7"/>
									<path class="st7" d="M331.3,248.1c0,0.7-0.6,1.2-1.2,1.2l0,0c-0.7,0-1.2-0.6-1.2-1.2v-2.5c0-0.7,0.6-1.2,1.2-1.2l0,0
										c0.7,0,1.2,0.6,1.2,1.2V248.1z"/>
									<rect x="328.3" y="246.2" class="st4" width="3.4" height="0.5"/>
								</g>
							</g>
							<g>
								<circle class="st10" cx="353.8" cy="247.2" r="4.7"/>
								<g>
									<g>
										<path class="st7" d="M355.4,249.4l-0.6-0.7c0.5-0.4,0.2-1.4-0.4-2.2c-0.6-0.7-1.4-1.4-2-0.9l-0.6-0.7
											c0.9-0.7,2.2-0.3,3.3,1.1C356.2,247.3,356.3,248.7,355.4,249.4z"/>
									</g>
									<g>
										<path class="st7" d="M355.5,250.1c-0.4,0.3-0.7-0.1-1.1-0.6c-0.4-0.5-0.7-0.9-0.3-1.2c0.4-0.3,1-0.2,1.4,0.3
											C355.9,249.2,355.9,249.8,355.5,250.1z"/>
									</g>
									<g>
										<path class="st7" d="M352.6,246.4c-0.4,0.3-0.7-0.1-1.1-0.6c-0.4-0.5-0.7-0.9-0.3-1.2c0.4-0.3,1-0.2,1.4,0.3
											C353,245.4,353,246,352.6,246.4z"/>
									</g>
								</g>
							</g>
						</g>
					</g>
				</g>
				<g>
					<g>
						<path class="st10" d="M354.2,234.7c-0.3,0-0.5-0.2-0.5-0.5v-11.3c0-0.3,0.2-0.5,0.5-0.5h19.7c0.3,0,0.5,0.2,0.5,0.5v11.3
							c0,0.3-0.2,0.5-0.5,0.5H354.2z"/>
						<path class="st5" d="M354.5,234.3c-0.2,0-0.5-0.2-0.5-0.5v-10.6c0-0.3,0.2-0.5,0.5-0.5h19.2c0.3,0,0.5,0.2,0.5,0.5v10.6
							c0,0.3-0.2,0.5-0.5,0.5H354.5z"/>
						<g>
							<defs>
								<path id="SVGID_3_" d="M354.5,234.3c-0.2,0-0.5-0.2-0.5-0.5v-10.6c0-0.3,0.2-0.5,0.5-0.5h19.2c0.3,0,0.5,0.2,0.5,0.5v10.6
									c0,0.3-0.2,0.5-0.5,0.5H354.5z"/>
							</defs>
							<clipPath id="SVGID_4_">
								<use xlink:href="#SVGID_3_"  style="overflow:visible;"/>
							</clipPath>
							<g class="st11">
								<g>
									<g>
										<circle class="st8" cx="364.1" cy="227" r="3.3"/>
										<path class="st12" d="M359.3,236.6l0.5-0.7l0.2,0.7h8.2l0.2-0.7l0.5,0.7h2.4c-0.2-0.6-1.6-4.3-2.1-5
											c-0.5-0.7-2.6-1.1-2.6-1.1l-2.6,0.7l-2.5-0.7c0,0-2,0.4-2.6,1.1c-0.5,0.6-1.9,4.3-2.1,5H359.3z"/>
									</g>
									<g>
										<polygon class="st5" points="364.4,231 363.8,231 363.4,234.9 364.1,235.5 364.7,234.9 										"/>
										<polygon class="st5" points="364.6,231 363.5,231 363.4,231.3 364.1,231.8 364.7,231.2 										"/>
									</g>
								</g>
							</g>
						</g>
					</g>
					<path class="st13" d="M354.5,222.8c-0.2,0-0.5,0.2-0.5,0.5v10.6c0,0.3,0.2,0.5,0.5,0.5h5.8l11.5-11.5H354.5z"/>
				</g>
				<polygon class="st13" points="376.5,170.3 376.5,152.1 295.1,152.1 295.1,251.7 				"/>
			</g>
		</g>
		<g>
			<rect x="75.8" y="253.3" class="st14" width="85.9" height="9.8"/>
			<polygon class="st15" points="171.1,269.1 66.4,269.1 75.8,259.4 161.7,259.4 			"/>
			<g>
				<g>
					<path class="st5" d="M216.7,246.8c0,4.8-3.9,8.7-8.7,8.7H29.4c-4.8,0-8.7-3.9-8.7-8.7v-99.2c0-4.8,3.9-8.6,8.7-8.6h178.6
						c4.8,0,8.7,3.9,8.7,8.6V246.8z"/>
					<path class="st4" d="M20.8,230v16.8c0,4.8,3.9,8.7,8.7,8.7h178.6c4.8,0,8.7-3.9,8.7-8.7V230H20.8z"/>
					<circle class="st5" cx="118.8" cy="241.9" r="5"/>
					<g>
						<rect x="31.3" y="219.4" class="st4" width="2.4" height="7.8"/>
						<rect x="36.7" y="219.4" class="st4" width="2.4" height="7.8"/>
						<rect x="46.5" y="221.9" class="st4" width="161.9" height="2.8"/>
						<rect x="46.5" y="221.9" class="st9" width="53.8" height="2.8"/>
					</g>
					<g>
						<defs>
							<path id="SVGID_5_" d="M208.1,138.9H29.4c-4.8,0-8.7,3.9-8.7,8.6v69h195.9v-69C216.7,142.8,212.9,138.9,208.1,138.9z"/>
						</defs>
						<clipPath id="SVGID_6_">
							<use xlink:href="#SVGID_5_"  style="overflow:visible;"/>
						</clipPath>
						<g class="st16">
							<path class="st7" d="M22.4,213.2c-2.6,0-4.6-1.3-4.6-2.9v-68.7c0-1.6,2.1-2.9,4.6-2.9h195.7c2.6,0,4.6,1.3,4.6,2.9v68.7
								c0,1.6-2.1,2.9-4.6,2.9H22.4z"/>
							<rect x="17.1" y="145.8" class="st5" width="206.4" height="49.5"/>
							<g>
								<g>
									<circle class="st8" cx="120.2" cy="162.3" r="14.2"/>
									<path class="st9" d="M99.3,204.3l2.3-3.1l0.8,3.1h36.1l0.8-3.1l2.3,3.1H152c-1-2.7-7-18.9-9.2-21.7
										c-2.4-3.1-11.2-4.9-11.2-4.9l-11.3,3.1l-11.2-3.1c0,0-8.8,1.8-11.2,4.9c-2.2,2.8-8.2,19-9.2,21.7H99.3z"/>
								</g>
								<g>
									<polygon class="st5" points="121.5,180 118.9,180 117.5,196.9 120.2,199.4 122.9,196.9 									"/>
									<polygon class="st5" points="122.6,179.8 117.8,179.8 117.5,181 120.2,183.5 122.9,181 									"/>
								</g>
							</g>
							<rect x="74.2" y="195.3" class="st7" width="91.2" height="16.1"/>
							<g>
								<g>
									<circle class="st10" cx="104.2" cy="204.6" r="4.3"/>
									<g>
										<polygon class="st4" points="107.4,206.3 105.3,205.6 105.3,203.4 107.4,202.8 										"/>
										<rect x="101.1" y="202.5" class="st7" width="4.5" height="4"/>
									</g>
								</g>
								<g>
									<circle class="st10" cx="125.6" cy="204.6" r="4.3"/>
									<g>
										<rect x="122.8" y="202.8" class="st4" width="5.6" height="3.1"/>
										<rect x="124" y="206.1" class="st4" width="3.4" height="0.3"/>
										<polygon class="st4" points="126.9,206.2 124.4,206.2 125,205.8 126.3,205.8 										"/>
										<rect x="123.2" y="203.1" class="st7" width="4.9" height="2.4"/>
									</g>
								</g>
								<g>
									<circle class="st10" cx="114.9" cy="204.6" r="4.3"/>
									<g>
										<rect x="114.4" y="204.1" class="st4" width="1.1" height="3.3"/>
										<path class="st7" d="M116,205.4c0,0.6-0.5,1.1-1.1,1.1l0,0c-0.6,0-1.1-0.5-1.1-1.1v-2.3c0-0.6,0.5-1.1,1.1-1.1l0,0
											c0.6,0,1.1,0.5,1.1,1.1V205.4z"/>
										<rect x="113.4" y="203.7" class="st4" width="3.1" height="0.4"/>
									</g>
								</g>
								<g>
									<circle class="st10" cx="136.4" cy="204.6" r="4.3"/>
									<g>
										<g>
											<path class="st7" d="M137.9,206.6l-0.5-0.6c0.5-0.4,0.2-1.3-0.4-1.9c-0.5-0.7-1.3-1.2-1.8-0.8l-0.5-0.6
												c0.8-0.6,2-0.2,2.9,1C138.6,204.7,138.7,205.9,137.9,206.6z"/>
										</g>
										<g>
											<path class="st7" d="M137.9,207.3c-0.4,0.3-0.6-0.1-1-0.5c-0.3-0.4-0.6-0.8-0.2-1.1c0.4-0.3,0.9-0.2,1.3,0.3
												C138.3,206.4,138.3,207,137.9,207.3z"/>
										</g>
										<g>
											<path class="st7" d="M135.3,203.9c-0.4,0.3-0.6-0.1-1-0.5c-0.3-0.4-0.6-0.8-0.2-1.1c0.4-0.3,0.9-0.2,1.3,0.3
												C135.7,203,135.6,203.6,135.3,203.9z"/>
										</g>
									</g>
								</g>
							</g>
						</g>
					</g>
					<g>
						<g>
							<path class="st10" d="M169.8,171.7c-0.5,0-0.9-0.4-0.9-0.9v-22c0-0.5,0.4-0.9,0.9-0.9h38.5c0.5,0,0.9,0.4,0.9,0.9v22
								c0,0.5-0.4,0.9-0.9,0.9H169.8z"/>
							<path class="st5" d="M170.3,171.1c-0.5,0-0.9-0.4-0.9-0.9v-20.8c0-0.5,0.4-0.9,0.9-0.9h37.4c0.5,0,0.9,0.4,0.9,0.9v20.8
								c0,0.5-0.4,0.9-0.9,0.9H170.3z"/>
							<g>
								<defs>
									<path id="SVGID_7_" d="M170.3,171.1c-0.5,0-0.9-0.4-0.9-0.9v-20.8c0-0.5,0.4-0.9,0.9-0.9h37.4c0.5,0,0.9,0.4,0.9,0.9v20.8
										c0,0.5-0.4,0.9-0.9,0.9H170.3z"/>
								</defs>
								<clipPath id="SVGID_8_">
									<use xlink:href="#SVGID_7_"  style="overflow:visible;"/>
								</clipPath>
								<g class="st17">
									<g>
										<g>
											<circle class="st8" cx="189" cy="156.7" r="6.4"/>
											<path class="st12" d="M179.7,175.4l1-1.4l0.4,1.4h16.1l0.4-1.4l1,1.4h4.6c-0.5-1.2-3.1-8.4-4.1-9.7c-1.1-1.4-5-2.2-5-2.2
												L189,165l-5-1.4c0,0-3.9,0.8-5,2.2c-1,1.3-3.7,8.5-4.1,9.7H179.7z"/>
										</g>
										<g>
											<polygon class="st5" points="189.6,164.6 188.4,164.6 187.8,172.2 189,173.3 190.2,172.2 											"/>
											<polygon class="st5" points="190,164.5 187.9,164.5 187.8,165.1 189,166.2 190.2,165.1 											"/>
										</g>
									</g>
								</g>
							</g>
						</g>
						<path class="st13" d="M170.3,148.5c-0.5,0-0.9,0.4-0.9,0.9v20.8c0,0.5,0.4,0.9,0.9,0.9h11.3l22.5-22.5H170.3z"/>
					</g>
				</g>
				<path class="st13" d="M153.5,138.9H29.4c-4.8,0-8.7,3.9-8.7,8.6v99.2c0,4.8,3.9,8.7,8.7,8.7H37L153.5,138.9z"/>
			</g>
		</g>
		<g>
			<g>
				<path class="st3" d="M305.3,297.1c0,4.8-3.9,8.7-8.7,8.7H118c-4.8,0-8.7-3.9-8.7-8.7v-99.2c0-4.8,3.9-8.6,8.7-8.6h178.6
					c4.8,0,8.7,3.9,8.7,8.6V297.1z"/>
				<g>
					<path class="st15" d="M321.2,328.1v-6.7H93.5v6.7c0,2.3,1.8,4.1,4.1,4.1h219.6C319.4,332.2,321.2,330.3,321.2,328.1z"/>
					<path class="st3" d="M320,319.3L320,319.3L308.9,309c-3.3-2.8-8.7-3.2-10.5-3.3H116.3c-1.8,0.1-7.2,0.6-10.5,3.3l-11.1,10.4h0
						c0,0-4.3,3.8,3.1,4h219.1C324.3,323.1,320,319.3,320,319.3z"/>
					<path class="st18" d="M230.8,317.5L230.8,317.5l-2.7-2.5c-0.8-0.7-2.1-0.8-2.5-0.8h-36.4c-0.4,0-1.7,0.1-2.5,0.8l-2.7,2.5h0
						c0,0-1,0.9,0.7,1h45.4C231.8,318.4,230.8,317.5,230.8,317.5z"/>
				</g>
				<rect x="206.6" y="312.3" class="st4" width="1.8" height="8.5"/>
			</g>
			<g>
				<path class="st7" d="M118,301.3c-2.3,0-4.2-1.9-4.2-4.2v-99.2c0-2.3,1.9-4.2,4.2-4.2h178.6c2.3,0,4.2,1.9,4.2,4.2v99.2
					c0,2.3-1.9,4.2-4.2,4.2H118z"/>
				<rect x="113.8" y="204" class="st5" width="187.1" height="71.5"/>
				<g>
					<g>
						<circle class="st8" cx="207.2" cy="227.8" r="20.6"/>
						<path class="st9" d="M177.1,288.5l3.3-4.5l1.2,4.5h52.1l1.2-4.5l3.3,4.5h15.1c-1.5-4-10.2-27.3-13.3-31.4
							c-3.5-4.5-16.2-7-16.2-7l-16.4,4.5l-16.1-4.5c0,0-12.8,2.5-16.2,7c-3.2,4.1-11.9,27.4-13.3,31.4H177.1z"/>
					</g>
					<g>
						<polygon class="st5" points="209,253.4 205.3,253.4 203.3,277.8 207.2,281.5 211,277.8 						"/>
						<polygon class="st5" points="210.6,253.1 203.7,253.1 203.3,254.9 207.2,258.5 211,254.8 						"/>
					</g>
				</g>
				<rect x="140.7" y="275.5" class="st7" width="131.7" height="23.2"/>
				<g>
					<g>
						<circle class="st10" cx="184.1" cy="288.9" r="6.1"/>
						<g>
							<polygon class="st4" points="188.7,291.5 185.7,290.4 185.7,287.3 188.7,286.4 							"/>
							<rect x="179.6" y="285.9" class="st7" width="6.5" height="5.8"/>
						</g>
					</g>
					<g>
						<circle class="st10" cx="215.1" cy="288.9" r="6.1"/>
						<g>
							<rect x="211" y="286.3" class="st4" width="8.1" height="4.5"/>
							<rect x="212.6" y="291.2" class="st4" width="4.9" height="0.5"/>
							<polygon class="st4" points="216.9,291.3 213.2,291.3 214.2,290.7 215.9,290.7 							"/>
							<rect x="211.5" y="286.8" class="st7" width="7.1" height="3.4"/>
						</g>
					</g>
					<g>
						<circle class="st10" cx="199.6" cy="288.9" r="6.1"/>
						<g>
							<rect x="198.8" y="288.2" class="st4" width="1.6" height="4.8"/>
							<path class="st7" d="M201.2,290.2c0,0.9-0.7,1.6-1.6,1.6l0,0c-0.9,0-1.6-0.7-1.6-1.6v-3.3c0-0.9,0.7-1.6,1.6-1.6l0,0
								c0.9,0,1.6,0.7,1.6,1.6V290.2z"/>
							<rect x="197.3" y="287.6" class="st4" width="4.4" height="0.6"/>
						</g>
					</g>
					<g>
						<circle class="st10" cx="230.6" cy="288.9" r="6.1"/>
						<g>
							<g>
								<path class="st7" d="M232.7,291.8l-0.7-0.9c0.7-0.5,0.2-1.8-0.5-2.8c-0.8-1-1.9-1.8-2.6-1.2l-0.7-0.9
									c1.2-0.9,2.9-0.3,4.2,1.4C233.7,289.1,233.9,290.9,232.7,291.8z"/>
							</g>
							<g>
								<path class="st7" d="M232.8,292.8c-0.5,0.4-0.9-0.1-1.4-0.7c-0.5-0.6-0.9-1.1-0.3-1.5c0.5-0.4,1.4-0.2,1.8,0.4
									C233.3,291.5,233.3,292.4,232.8,292.8z"/>
							</g>
							<g>
								<path class="st7" d="M229,287.9c-0.5,0.4-0.9-0.1-1.4-0.7c-0.5-0.6-0.9-1.1-0.3-1.5c0.5-0.4,1.4-0.2,1.8,0.4
									C229.5,286.6,229.5,287.4,229,287.9z"/>
							</g>
						</g>
					</g>
				</g>
			</g>
			<path class="st13" d="M251.3,193.6H118c-2.3,0-4.2,1.9-4.2,4.2v99.2c0,2.3,1.9,4.2,4.2,4.2h25.6L251.3,193.6z"/>
			<g>
				<g>
					<path class="st10" d="M259.3,230.1c-0.5,0-0.9-0.4-0.9-0.9v-22c0-0.5,0.4-0.9,0.9-0.9h38.5c0.5,0,0.9,0.4,0.9,0.9v22
						c0,0.5-0.4,0.9-0.9,0.9H259.3z"/>
					<path class="st5" d="M259.9,229.5c-0.5,0-0.9-0.4-0.9-0.9v-20.8c0-0.5,0.4-0.9,0.9-0.9h37.4c0.5,0,0.9,0.4,0.9,0.9v20.8
						c0,0.5-0.4,0.9-0.9,0.9H259.9z"/>
					<g>
						<defs>
							<path id="SVGID_9_" d="M259.9,229.5c-0.5,0-0.9-0.4-0.9-0.9v-20.8c0-0.5,0.4-0.9,0.9-0.9h37.4c0.5,0,0.9,0.4,0.9,0.9v20.8
								c0,0.5-0.4,0.9-0.9,0.9H259.9z"/>
						</defs>
						<clipPath id="SVGID_10_">
							<use xlink:href="#SVGID_9_"  style="overflow:visible;"/>
						</clipPath>
						<g class="st19">
							<g>
								<g>
									<circle class="st8" cx="278.6" cy="215.1" r="6.4"/>
									<path class="st12" d="M269.2,233.8l1-1.4l0.4,1.4h16.1l0.4-1.4l1,1.4h4.6c-0.5-1.2-3.1-8.4-4.1-9.7c-1.1-1.4-5-2.2-5-2.2
										l-5.1,1.4l-5-1.4c0,0-3.9,0.8-5,2.2c-1,1.3-3.7,8.5-4.1,9.7H269.2z"/>
								</g>
								<g>
									<polygon class="st5" points="279.1,223 277.9,223 277.3,230.6 278.5,231.7 279.7,230.6 									"/>
									<polygon class="st5" points="279.6,222.9 277.5,222.9 277.3,223.5 278.5,224.6 279.7,223.5 									"/>
								</g>
							</g>
						</g>
					</g>
				</g>
				<path class="st13" d="M259.9,206.9c-0.5,0-0.9,0.4-0.9,0.9v20.8c0,0.5,0.4,0.9,0.9,0.9h11.3l22.5-22.5H259.9z"/>
			</g>
		</g>
	</g>
	<g>
		<g>
			<circle class="st4" cx="64.2" cy="99.6" r="26"/>
			<g>
				<g>
					<path class="st10" d="M82,108.1c0,1.4-1.2,2.6-2.6,2.6H49.3c-1.4,0-2.6-1.2-2.6-2.6V89.8c0-1.4,1.2-2.6,2.6-2.6h30.1
						c1.4,0,2.6,1.2,2.6,2.6V108.1z"/>
					<path class="st5" d="M79.4,87.2H49.3c-1.4,0-2.6,1.2-2.6,2.6v1.9H82v-1.9C82,88.4,80.9,87.2,79.4,87.2z"/>
					<g>
						<rect x="49.2" y="93.7" class="st9" width="19" height="1.8"/>
						<rect x="49.2" y="97.2" class="st4" width="19.1" height="1.2"/>
						<rect x="49.2" y="99.8" class="st4" width="19.1" height="1.2"/>
						<rect x="49.2" y="102.3" class="st4" width="19.1" height="1.2"/>
						<rect x="49.2" y="104.9" class="st4" width="19.1" height="1.2"/>
						<g>
							<polygon class="st4" points="70.2,96.6 70.2,106 79.6,106 							"/>
							<polygon class="st20" points="79.6,101.3 79.6,96.6 74.9,96.6 							"/>
						</g>
					</g>
				</g>
				<path class="st13" d="M49.3,87.2c-1.4,0-2.6,1.2-2.6,2.6v18.2c0,1.4,1.2,2.6,2.6,2.6h4.8l23.4-23.4H49.3z"/>
			</g>
		</g>
		<g>
			<circle class="st4" cx="124.2" cy="55.8" r="26"/>
			<g>
				<g>
					<g>
						<rect x="119.8" y="47.4" class="st5" width="25.9" height="4.6"/>
						<rect x="119.8" y="51" class="st10" width="25.9" height="14.5"/>
						<g>
							<g>
								<polygon class="st7" points="124.5,63.5 122.1,59.1 122.5,58.9 124.5,62.6 129.8,55 134.6,61.1 139,52.9 143.3,57.5 
									143,57.8 139.1,53.8 134.7,62.1 129.8,55.8 								"/>
							</g>
							<circle class="st20" cx="143.2" cy="57.5" r="1"/>
							<circle class="st12" cx="138.9" cy="53.2" r="1"/>
							<circle class="st12" cx="134.6" cy="61.6" r="1"/>
							<circle class="st20" cx="129.8" cy="55.3" r="1"/>
							<circle class="st12" cx="122.3" cy="59" r="1"/>
						</g>
					</g>
					<polygon class="st13" points="119.8,47.4 119.8,51 119.8,52 119.8,65.5 122.1,65.5 140.3,47.4 					"/>
				</g>
				<g>
					<g>
						<path class="st10" d="M128.1,64c0,1.7-1.3,3-3,3h-18.3c-1.7,0-3-1.3-3-3V45.5c0-1.7,1.3-3,3-3h18.3c1.7,0,3,1.3,3,3V64z"/>
						<path class="st5" d="M125.1,42.5h-18.3c-1.7,0-3,1.3-3,3v3.8h24.3v-3.8C128.1,43.8,126.7,42.5,125.1,42.5z"/>
						<g>
							<path class="st7" d="M109.8,54.3c0,0.5-0.4,0.8-0.8,0.8h-1.9c-0.5,0-0.8-0.4-0.8-0.8v-1.9c0-0.5,0.4-0.8,0.8-0.8h1.9
								c0.5,0,0.8,0.4,0.8,0.8V54.3z"/>
							<path class="st7" d="M114.1,54.3c0,0.5-0.4,0.8-0.8,0.8h-1.9c-0.5,0-0.8-0.4-0.8-0.8v-1.9c0-0.5,0.4-0.8,0.8-0.8h1.9
								c0.5,0,0.8,0.4,0.8,0.8V54.3z"/>
							<path class="st7" d="M118.5,54.3c0,0.5-0.4,0.8-0.8,0.8h-1.9c-0.5,0-0.8-0.4-0.8-0.8v-1.9c0-0.5,0.4-0.8,0.8-0.8h1.9
								c0.5,0,0.8,0.4,0.8,0.8V54.3z"/>
							<path class="st7" d="M109.8,58.8c0,0.5-0.4,0.8-0.8,0.8h-1.9c-0.5,0-0.8-0.4-0.8-0.8v-1.9c0-0.5,0.4-0.8,0.8-0.8h1.9
								c0.5,0,0.8,0.4,0.8,0.8V58.8z"/>
							<path class="st7" d="M114.1,58.8c0,0.5-0.4,0.8-0.8,0.8h-1.9c-0.5,0-0.8-0.4-0.8-0.8v-1.9c0-0.5,0.4-0.8,0.8-0.8h1.9
								c0.5,0,0.8,0.4,0.8,0.8V58.8z"/>
							<path class="st7" d="M118.5,58.8c0,0.5-0.4,0.8-0.8,0.8h-1.9c-0.5,0-0.8-0.4-0.8-0.8v-1.9c0-0.5,0.4-0.8,0.8-0.8h1.9
								c0.5,0,0.8,0.4,0.8,0.8V58.8z"/>
							<path class="st7" d="M109.8,63.3c0,0.5-0.4,0.8-0.8,0.8h-1.9c-0.5,0-0.8-0.4-0.8-0.8v-1.9c0-0.5,0.4-0.8,0.8-0.8h1.9
								c0.5,0,0.8,0.4,0.8,0.8V63.3z"/>
							<path class="st7" d="M114.1,63.3c0,0.5-0.4,0.8-0.8,0.8h-1.9c-0.5,0-0.8-0.4-0.8-0.8v-1.9c0-0.5,0.4-0.8,0.8-0.8h1.9
								c0.5,0,0.8,0.4,0.8,0.8V63.3z"/>
							<path class="st7" d="M118.5,63.3c0,0.5-0.4,0.8-0.8,0.8h-1.9c-0.5,0-0.8-0.4-0.8-0.8v-1.9c0-0.5,0.4-0.8,0.8-0.8h1.9
								c0.5,0,0.8,0.4,0.8,0.8V63.3z"/>
							<path class="st20" d="M125.7,63.3c0,0.5-0.4,0.8-0.8,0.8H122c-0.5,0-0.8-0.4-0.8-0.8V52.4c0-0.5,0.4-0.8,0.8-0.8h2.9
								c0.5,0,0.8,0.4,0.8,0.8V63.3z"/>
						</g>
						<g>
							<rect x="122.3" y="47.4" class="st10" width="3.5" height="0.4"/>
							<rect x="118.2" y="47.4" class="st10" width="3.5" height="0.4"/>
							<rect x="114" y="47.4" class="st10" width="3.5" height="0.4"/>
						</g>
					</g>
					<path class="st13" d="M125.1,42.5h-18.3c-1.7,0-3,1.3-3,3V64c0,0.7,0.2,1.3,0.6,1.8L127,43.2C126.5,42.8,125.8,42.5,125.1,42.5
						z"/>
				</g>
			</g>
		</g>
		<g>
			<g>
				<circle class="st4" cx="207.4" cy="37.1" r="26"/>
			</g>
			<g>
				<g>
					<path class="st10" d="M207.4,58.5c-11.8,0-21.4-9.6-21.4-21.4s9.6-21.4,21.4-21.4s21.4,9.6,21.4,21.4S219.2,58.5,207.4,58.5z
						 M207.4,16.7c-11.3,0-20.4,9.2-20.4,20.4s9.2,20.4,20.4,20.4s20.4-9.2,20.4-20.4S218.6,16.7,207.4,16.7z"/>
				</g>
				<g>
					<g>
						<g>
							<path class="st7" d="M206.6,28.5V26h-2.5c0,1.3-1.1,2.4-2.4,2.4c-1.3,0-2.4-1.1-2.4-2.4l-2.5,0v2.5c-1.3,0-2.4,1.1-2.4,2.4
								c0,1.3,1.1,2.4,2.4,2.4v2.5h2.5c0,1.3,1.1,2.4,2.4,2.4c1.3,0,2.4-1.1,2.4-2.4h2.5v-2.5c1.3,0,2.4-1.1,2.4-2.4
								C208.9,29.5,207.9,28.5,206.6,28.5z"/>
						</g>
						<g>
							<path class="st20" d="M218.2,28.5V26h-2.5c0-1.3-1.1-2.4-2.4-2.4c-1.3,0-2.4,1.1-2.4,2.4l-2.5,0v2.5c1.3,0,2.4,1.1,2.4,2.4
								c0,1.3-1.1,2.4-2.4,2.4v2.5h2.5c0,1.3,1.1,2.4,2.4,2.4c1.3,0,2.4-1.1,2.4-2.4h2.5v-2.5c1.3,0,2.4-1.1,2.4-2.4
								C220.6,29.5,219.5,28.5,218.2,28.5z"/>
						</g>
						<g>
							<path class="st12" d="M218.2,40.1l0-2.5l-2.5,0c0,1.3-1.1,2.4-2.4,2.4c-1.3,0-2.4-1.1-2.4-2.4l-2.5,0v2.5
								c1.3,0,2.3,1.1,2.3,2.4c0,1.3-1,2.4-2.3,2.4v2.5h2.5c0,1.3,1.1,2.4,2.4,2.4c1.3,0,2.4-1.1,2.4-2.4l2.5,0v-2.5
								c1.3,0,2.4-1.1,2.4-2.4C220.6,41.2,219.5,40.1,218.2,40.1z"/>
						</g>
						<g>
							<path class="st9" d="M206.6,40l0-2.5h-2.5c0,1.3-1.1,2.4-2.4,2.4c-1.3,0-2.4-1.1-2.4-2.4h-2.5V40c-1.3,0-2.4,1.1-2.4,2.4
								c0,1.3,1.1,2.4,2.4,2.4v2.5h2.5c0,1.3,1.1,2.4,2.4,2.4c1.3,0,2.4-1.1,2.4-2.4h2.5v-2.5c1.3,0,2.4-1.1,2.4-2.4
								C208.9,41.1,207.9,40.1,206.6,40z"/>
						</g>
					</g>
					<g class="st21">
						<path class="st10" d="M196.9,35.7v-2.5c-1.3,0-2.4-1.1-2.4-2.4c0-1.3,1.1-2.4,2.4-2.4V26l2.5,0c0,1.3,1.1,2.4,2.4,2.4
							c1.3,0,2.4-1.1,2.4-2.4h2.5v2.5c1.3,0,2.4,1.1,2.4,2.4c0,1.3-1.1,2.4-2.4,2.4v2.5h-2.5c0,1.3-1.1,2.4-2.4,2.4
							c-1.3,0-2.4-1.1-2.4-2.4H196.9z M206.6,40l0-2.5h-2.5c0,1.3-1.1,2.4-2.4,2.4c-1.3,0-2.4-1.1-2.4-2.4h-2.5V40
							c-1.3,0-2.4,1.1-2.4,2.4c0,1.3,1.1,2.4,2.4,2.4v2.5h2.5c0,0.1,0,0.1,0,0.2l7.4-7.4C206.7,40.1,206.6,40,206.6,40z M208.5,38.3
							l0.6-0.6h-0.6V38.3z M218.2,26h-2.5c0-1.3-1.1-2.4-2.4-2.4c-1.3,0-2.4,1.1-2.4,2.4l-2.5,0v2.5c1.3,0,2.4,1.1,2.4,2.4
							c0,1.3-1.1,2.4-2.4,2.4v2.5h2.5c0,0,0,0.1,0,0.1l7.3-7.3c0,0-0.1,0-0.1,0V26z"/>
					</g>
				</g>
			</g>
		</g>
		<g>
			<circle class="st4" cx="284.9" cy="55.8" r="26"/>
			<g>
				<g>
					<rect x="270.2" y="41.7" class="st5" width="28.9" height="28.3"/>
					<rect x="273.3" y="47" class="st10" width="22.8" height="19.8"/>
					<g>
						<g>
							<circle class="st12" cx="275.5" cy="49.4" r="1"/>
							<path class="st12" d="M275.9,49.3c0,0.2-0.2,0.4-0.4,0.4l0,0c-0.2,0-0.4-0.2-0.4-0.4v-3.6c0-0.2,0.2-0.4,0.4-0.4l0,0
								c0.2,0,0.4,0.2,0.4,0.4V49.3z"/>
						</g>
						<g>
							<circle class="st12" cx="279.2" cy="49.4" r="1"/>
							<path class="st12" d="M279.6,49.3c0,0.2-0.2,0.4-0.4,0.4l0,0c-0.2,0-0.4-0.2-0.4-0.4v-3.6c0-0.2,0.2-0.4,0.4-0.4l0,0
								c0.2,0,0.4,0.2,0.4,0.4V49.3z"/>
						</g>
						<g>
							<circle class="st12" cx="282.8" cy="49.4" r="1"/>
							<path class="st12" d="M283.2,49.3c0,0.2-0.2,0.4-0.4,0.4l0,0c-0.2,0-0.4-0.2-0.4-0.4v-3.6c0-0.2,0.2-0.4,0.4-0.4l0,0
								c0.2,0,0.4,0.2,0.4,0.4V49.3z"/>
						</g>
						<g>
							<circle class="st12" cx="286.5" cy="49.4" r="1"/>
							<path class="st12" d="M286.9,49.3c0,0.2-0.2,0.4-0.4,0.4l0,0c-0.2,0-0.4-0.2-0.4-0.4v-3.6c0-0.2,0.2-0.4,0.4-0.4l0,0
								c0.2,0,0.4,0.2,0.4,0.4V49.3z"/>
						</g>
						<g>
							<circle class="st12" cx="290.2" cy="49.4" r="1"/>
							<path class="st12" d="M290.6,49.3c0,0.2-0.2,0.4-0.4,0.4l0,0c-0.2,0-0.4-0.2-0.4-0.4v-3.6c0-0.2,0.2-0.4,0.4-0.4l0,0
								c0.2,0,0.4,0.2,0.4,0.4V49.3z"/>
						</g>
						<g>
							<circle class="st12" cx="293.8" cy="49.4" r="1"/>
							<path class="st12" d="M294.2,49.3c0,0.2-0.2,0.4-0.4,0.4l0,0c-0.2,0-0.4-0.2-0.4-0.4v-3.6c0-0.2,0.2-0.4,0.4-0.4l0,0
								c0.2,0,0.4,0.2,0.4,0.4V49.3z"/>
						</g>
					</g>
					<g>
						<g>
							<rect x="276.6" y="56.4" class="st4" width="2.8" height="8.4"/>
							<rect x="276.6" y="56.4" class="st7" width="2.8" height="1.2"/>
						</g>
						<g>
							<rect x="281" y="56.4" class="st4" width="2.8" height="8.4"/>
							<rect x="281" y="56.4" class="st12" width="2.8" height="1.2"/>
						</g>
						<g>
							<rect x="285.4" y="57.9" class="st4" width="2.8" height="7"/>
							<rect x="285.4" y="57.9" class="st20" width="2.8" height="1.2"/>
						</g>
						<g>
							<rect x="289.8" y="59.2" class="st4" width="2.7" height="5.6"/>
							<rect x="289.8" y="59.2" class="st9" width="2.7" height="1.2"/>
						</g>
						<g>
							<polygon class="st4" points="294.5,65.3 274.9,65.3 274.9,52.4 275.5,52.4 275.5,64.7 294.5,64.7 							"/>
						</g>
					</g>
				</g>
				<polygon class="st13" points="299.1,41.7 270.2,41.7 270.2,70 272.1,70 299.1,42.9 				"/>
			</g>
		</g>
		<g>
			<circle class="st4" cx="344.9" cy="99.6" r="26"/>
			<g>
				<rect x="328" y="86.4" class="st7" width="33.6" height="25.1"/>
				<g>
					<g>
						<g>
							
								<rect x="338.7" y="97" transform="matrix(1 -2.528380e-003 2.528380e-003 1 -0.2456 0.8623)" class="st12" width="4.4" height="1.1"/>
							
								<ellipse transform="matrix(1 -2.483142e-003 2.483142e-003 1 -0.2411 0.8548)" class="st12" cx="344.1" cy="97.5" rx="1.3" ry="1.3"/>
						</g>
						<path class="st4" d="M342,102.9l0-10.8c-0.9-0.4-2.2,0.5-3.3,1.7l-2.7,0c-0.9,0-1.7,0.8-1.7,1.7l0,4.1c0,0.9,0.8,1.7,1.7,1.7
							l2.8,0C339.8,102.5,341.1,103.3,342,102.9z"/>
					</g>
					<g>
						<path class="st10" d="M347.3,94.8l-1.3,1c0.4,0.5,0.6,1.1,0.6,1.7c0,0.6-0.2,1.1-0.5,1.6l1.4,1c0.5-0.7,0.8-1.6,0.8-2.6
							C348.2,96.5,347.8,95.6,347.3,94.8z"/>
						<path class="st10" d="M351.6,91.9l-1.3,1c1,1.3,1.5,2.8,1.6,4.6c0,1.7-0.5,3.2-1.4,4.4l1.4,1c1.1-1.5,1.8-3.4,1.8-5.5
							C353.5,95.4,352.8,93.5,351.6,91.9z"/>
						<path class="st10" d="M349.5,93.4l-1.4,1c0.7,0.9,1.1,1.9,1.1,3.1c0,1.1-0.4,2.1-1,3l1.4,1c0.8-1.1,1.3-2.5,1.3-4
							C350.9,96,350.4,94.6,349.5,93.4z"/>
					</g>
				</g>
				<g class="st21">
					<polygon class="st10" points="343.5,91.7 343.5,102.8 350.8,97.3 					"/>
					<g>
						<path class="st10" d="M345.2,105.8c-4.9,0-8.9-4-8.9-8.9c0-4.9,4-8.9,8.9-8.9c4.9,0,8.9,4,8.9,8.9
							C354.1,101.9,350.1,105.8,345.2,105.8z M345.2,89.2c-4.3,0-7.8,3.5-7.8,7.8c0,4.3,3.5,7.8,7.8,7.8c4.3,0,7.8-3.5,7.8-7.8
							C353,92.7,349.5,89.2,345.2,89.2z"/>
					</g>
				</g>
				<polygon class="st13" points="328,86.4 328,111.5 331.3,111.5 356.4,86.4 				"/>
				<rect x="328" y="107.7" class="st10" width="33.6" height="3.9"/>
			</g>
		</g>
	</g>
</g>
<g id="DESIGNED_BY_FREEPIK">
</g>
</svg>
