<svg width="366" height="373" xmlns="http://www.w3.org/2000/svg">
 <metadata id="metadata8">image/svg+xml</metadata>

 <g>
  <title>background</title>
  <rect fill="none" id="canvas_background" height="375" width="368" y="-1" x="-1"/>
 </g>
 <g>
  <title>Layer 1</title>
  <g id="svg_14">
   <path fill="#040606" fill-rule="nonzero" d="m54.582372,155.090298l0,-14.865847l-22.425695,14.865847l22.425695,0zm0,21.410296l0,-9.722785l-18.332805,0l18.332805,9.722785zm-35.97361,154.514392l134.380298,-89.080325l-134.380298,-71.286516l0,160.366841zm281.786903,-148.310726l0,-150.501483l-234.125782,0l0,150.501483l97.805099,51.882674l16.027295,-10.626907c1.957771,-1.293589 4.503221,-1.293589 6.460992,0l16.027295,10.626907l97.805099,-51.882674zm11.687511,-6.196711l18.332805,-9.72974l-18.332805,0l0,9.72974zm-279.933453,159.546177l302.366103,0l-151.179574,-100.211454l-151.186529,100.211454zm279.933453,-180.963428l22.432649,0l-22.432649,-14.872801l0,14.872801zm35.980565,175.924688l0,-160.366841l-134.387253,71.286516l134.387253,89.080325zm11.687511,-170.082671l0,180.966905c0,3.223541 -2.618475,5.842017 -5.842017,5.842017l-341.145967,0c-3.223541,0 -5.842017,-2.618475 -5.842017,-5.842017l0,-180.966905c0,-2.030796 1.036263,-3.82513 2.618475,-4.868347l45.042646,-29.863834l0,-99.842851c0,-3.223541 2.618475,-5.842017 5.842017,-5.842017l245.813293,0c3.227019,0 5.845494,2.618475 5.845494,5.842017l0,99.832418l45.0496,29.874266c1.575258,1.043217 2.618475,2.837551 2.618475,4.868347" id="svg_2"/>
   <path fill="#5dcadf" fill-rule="nonzero" d="m348.063741,171.648146l0,160.366841l-134.387253,-89.080325l134.387253,-71.286516" id="svg_3"/>
   <path fill="#5dcadf" fill-rule="nonzero" d="m334.515825,156.090298l-22.432649,0l0,-14.872801l22.432649,14.872801" id="svg_4"/>
   <path fill="#5dcadf" fill-rule="nonzero" d="m334.515825,337.053726l-302.366103,0l151.186529,-100.211454l151.179574,100.211454" id="svg_5"/>
   <path fill="#5dcadf" fill-rule="nonzero" d="m330.415981,167.77781l-18.332805,9.72974l0,-9.72974l18.332805,0" id="svg_6"/>
   <path fill="#ffffff" fill-rule="nonzero" d="m235.733579,125.384936l0,-4.31892c0,-28.890164 -23.507163,-52.397328 -52.404282,-52.397328c-28.890164,0 -52.397328,23.507163 -52.397328,52.397328l0,1.731741c0,28.890164 23.507163,52.397328 52.397328,52.397328l46.562266,0c3.223541,0 5.842017,-2.618475 5.842017,-5.845494c0,-3.223541 -2.618475,-5.842017 -5.842017,-5.842017l-46.562266,0c-22.446559,0 -40.709816,-18.263258 -40.709816,-40.709816l0,-1.731741c0,-22.446559 18.263258,-40.709816 40.709816,-40.709816c22.453514,0 40.716771,18.263258 40.716771,40.709816l0,4.31892c0,4.854438 -3.957271,8.811709 -8.811709,8.811709c-4.861393,0 -8.818664,-3.957271 -8.818664,-8.811709l0,-8.189256c0,-13.923474 -11.322385,-25.245859 -25.238904,-25.245859c-13.923474,0 -25.242381,11.322385 -25.242381,25.245859c0,13.913041 11.318908,25.235427 25.242381,25.235427c6.367103,0 12.177823,-2.368103 16.628884,-6.273213c3.613009,5.828107 10.074002,9.726263 17.428684,9.726263c11.298043,0 20.49922,-9.194222 20.49922,-20.49922zm64.662086,-92.182158l0,150.501483l-97.805099,51.882674l-16.027295,-10.626907c-1.957771,-1.293589 -4.503221,-1.293589 -6.460992,0l-16.027295,10.626907l-97.805099,-51.882674l0,-150.501483l234.125782,0" id="svg_7"/>
   <path fill="#040606" fill-rule="nonzero" d="m194.728184,117.19568c0,-7.479868 -6.078479,-13.558348 -13.551393,-13.558348c-7.479868,0 -13.55487,6.078479 -13.55487,13.558348c0,7.469436 6.075002,13.547915 13.55487,13.547915c7.472913,0 13.551393,-6.078479 13.551393,-13.547915zm41.005395,3.870336l0,4.31892c0,11.304998 -9.201177,20.49922 -20.49922,20.49922c-7.354682,0 -13.815674,-3.898155 -17.428684,-9.726263c-4.45106,3.90511 -10.261781,6.273213 -16.628884,6.273213c-13.923474,0 -25.242381,-11.322385 -25.242381,-25.235427c0,-13.923474 11.318908,-25.245859 25.242381,-25.245859c13.916519,0 25.238904,11.322385 25.238904,25.245859l0,8.189256c0,4.854438 3.957271,8.811709 8.818664,8.811709c4.854438,0 8.811709,-3.957271 8.811709,-8.811709l0,-4.31892c0,-22.446559 -18.263258,-40.709816 -40.716771,-40.709816c-22.446559,0 -40.709816,18.263258 -40.709816,40.709816l0,1.731741c0,22.446559 18.263258,40.709816 40.709816,40.709816l46.562266,0c3.223541,0 5.842017,2.618475 5.842017,5.842017c0,3.227019 -2.618475,5.845494 -5.842017,5.845494l-46.562266,0c-28.890164,0 -52.397328,-23.507163 -52.397328,-52.397328l0,-1.731741c0,-28.890164 23.507163,-52.397328 52.397328,-52.397328c28.897119,0 52.404282,23.507163 52.404282,52.397328" id="svg_8"/>
   <path fill="#ffffff" fill-rule="nonzero" d="m181.176792,103.637332c7.472913,0 13.551393,6.078479 13.551393,13.558348c0,7.469436 -6.078479,13.547915 -13.551393,13.547915c-7.479868,0 -13.55487,-6.078479 -13.55487,-13.547915c0,-7.479868 6.075002,-13.558348 13.55487,-13.558348" id="svg_9"/>
   <path fill="#5dcadf" fill-rule="nonzero" d="m152.98906,242.934661l-134.380298,89.080325l0,-160.366841l134.380298,71.286516" id="svg_10"/>
   <path fill="#5dcadf" fill-rule="nonzero" d="m54.582372,167.77781l0,9.722785l-18.332805,-9.722785l18.332805,0" id="svg_11"/>
   <path fill="#5dcadf" fill-rule="nonzero" d="m54.582372,141.224452l0,14.865847l-22.425695,0l22.425695,-14.865847" id="svg_12"/>
  </g>
 </g>
</svg>
