<?xml version="1.0" standalone="no"?><!-- Generator: Gravit.io --><svg xmlns="http://www.w3.org/2000/svg" xmlns:xlink="http://www.w3.org/1999/xlink" style="isolation:isolate" viewBox="233.176 80 610.544 220.027" width="610.544" height="220.027"><g><path d=" M 400.169 293.277 L 400.169 293.277 Q 400.169 295.827 398.519 297.477 L 398.519 297.477 L 398.519 297.477 Q 396.869 299.127 394.319 299.127 L 394.319 299.127 L 394.319 299.127 Q 391.769 299.127 390.119 297.477 L 390.119 297.477 L 390.119 297.477 Q 388.469 295.827 388.469 293.277 L 388.469 293.277 L 388.469 187.827 L 388.469 187.827 Q 388.469 185.277 390.119 183.627 L 390.119 183.627 L 390.119 183.627 Q 391.769 181.977 394.319 181.977 L 394.319 181.977 L 424.319 181.977 L 424.319 181.977 Q 435.269 181.977 443.894 186.852 L 443.894 186.852 L 443.894 186.852 Q 452.519 191.727 457.319 200.352 L 457.319 200.352 L 457.319 200.352 Q 462.119 208.977 462.119 220.077 L 462.119 220.077 L 462.119 220.077 Q 462.119 231.027 457.319 239.577 L 457.319 239.577 L 457.319 239.577 Q 452.519 248.127 443.894 252.927 L 443.894 252.927 L 443.894 252.927 Q 435.269 257.727 424.319 257.727 L 424.319 257.727 L 400.169 257.727 L 400.169 293.277 Z  M 424.319 246.477 L 424.319 246.477 Q 431.969 246.477 437.969 243.102 L 437.969 243.102 L 437.969 243.102 Q 443.969 239.727 447.344 233.727 L 447.344 233.727 L 447.344 233.727 Q 450.719 227.727 450.719 220.077 L 450.719 220.077 L 450.719 220.077 Q 450.719 212.277 447.344 206.202 L 447.344 206.202 L 447.344 206.202 Q 443.969 200.127 437.969 196.677 L 437.969 196.677 L 437.969 196.677 Q 431.969 193.227 424.319 193.227 L 424.319 193.227 L 400.169 193.227 L 400.169 246.477 L 424.319 246.477 Z  M 475.769 187.677 L 475.769 187.677 Q 475.769 185.127 477.419 183.552 L 477.419 183.552 L 477.419 183.552 Q 479.069 181.977 481.469 181.977 L 481.469 181.977 L 481.469 181.977 Q 484.019 181.977 485.594 183.552 L 485.594 183.552 L 485.594 183.552 Q 487.169 185.127 487.169 187.677 L 487.169 187.677 L 487.169 273.177 L 487.169 273.177 Q 487.169 279.627 489.794 283.677 L 489.794 283.677 L 489.794 283.677 Q 492.419 287.727 496.469 287.727 L 496.469 287.727 L 500.219 287.727 L 500.219 287.727 Q 502.469 287.727 503.819 289.302 L 503.819 289.302 L 503.819 289.302 Q 505.169 290.877 505.169 293.427 L 505.169 293.427 L 505.169 293.427 Q 505.169 295.977 503.294 297.552 L 503.294 297.552 L 503.294 297.552 Q 501.419 299.127 498.419 299.127 L 498.419 299.127 L 496.469 299.127 L 496.469 299.127 Q 487.319 299.127 481.544 291.852 L 481.544 291.852 L 481.544 291.852 Q 475.769 284.577 475.769 273.177 L 475.769 273.177 L 475.769 187.677 Z  M 589.769 217.077 L 589.769 217.077 Q 592.319 217.077 593.969 218.652 L 593.969 218.652 L 593.969 218.652 Q 595.619 220.227 595.619 222.777 L 595.619 222.777 L 595.619 293.277 L 595.619 293.277 Q 595.619 295.827 593.969 297.477 L 593.969 297.477 L 593.969 297.477 Q 592.319 299.127 589.769 299.127 L 589.769 299.127 L 589.769 299.127 Q 587.219 299.127 585.644 297.477 L 585.644 297.477 L 585.644 297.477 Q 584.069 295.827 584.069 293.277 L 584.069 293.277 L 584.069 288.177 L 584.069 288.177 Q 579.119 293.727 572.069 296.877 L 572.069 296.877 L 572.069 296.877 Q 565.019 300.027 556.769 300.027 L 556.769 300.027 L 556.769 300.027 Q 546.119 300.027 537.644 295.527 L 537.644 295.527 L 537.644 295.527 Q 529.169 291.027 524.369 282.402 L 524.369 282.402 L 524.369 282.402 Q 519.569 273.777 519.569 261.777 L 519.569 261.777 L 519.569 222.777 L 519.569 222.777 Q 519.569 220.377 521.219 218.727 L 521.219 218.727 L 521.219 218.727 Q 522.869 217.077 525.269 217.077 L 525.269 217.077 L 525.269 217.077 Q 527.819 217.077 529.469 218.727 L 529.469 218.727 L 529.469 218.727 Q 531.119 220.377 531.119 222.777 L 531.119 222.777 L 531.119 261.777 L 531.119 261.777 Q 531.119 275.127 538.544 282.102 L 538.544 282.102 L 538.544 282.102 Q 545.969 289.077 557.969 289.077 L 557.969 289.077 L 557.969 289.077 Q 565.319 289.077 571.244 286.227 L 571.244 286.227 L 571.244 286.227 Q 577.169 283.377 580.619 278.352 L 580.619 278.352 L 580.619 278.352 Q 584.069 273.327 584.069 267.177 L 584.069 267.177 L 584.069 222.777 L 584.069 222.777 Q 584.069 220.227 585.644 218.652 L 585.644 218.652 L 585.644 218.652 Q 587.219 217.077 589.769 217.077 L 589.769 217.077 Z  M 709.019 216.177 L 709.019 216.177 Q 717.869 216.177 724.694 220.377 L 724.694 220.377 L 724.694 220.377 Q 731.519 224.577 735.344 232.302 L 735.344 232.302 L 735.344 232.302 Q 739.169 240.027 739.169 250.227 L 739.169 250.227 L 739.169 293.427 L 739.169 293.427 Q 739.169 295.977 737.594 297.552 L 737.594 297.552 L 737.594 297.552 Q 736.019 299.127 733.469 299.127 L 733.469 299.127 L 733.469 299.127 Q 730.919 299.127 729.269 297.552 L 729.269 297.552 L 729.269 297.552 Q 727.619 295.977 727.619 293.427 L 727.619 293.427 L 727.619 250.227 L 727.619 250.227 Q 727.619 239.577 722.144 233.352 L 722.144 233.352 L 722.144 233.352 Q 716.669 227.127 707.819 227.127 L 707.819 227.127 L 707.819 227.127 Q 698.369 227.127 692.519 233.427 L 692.519 233.427 L 692.519 233.427 Q 686.669 239.727 686.819 249.927 L 686.819 249.927 L 686.819 250.227 L 686.819 293.427 L 686.819 293.427 Q 686.819 295.977 685.244 297.552 L 685.244 297.552 L 685.244 297.552 Q 683.669 299.127 681.119 299.127 L 681.119 299.127 L 681.119 299.127 Q 678.569 299.127 676.919 297.552 L 676.919 297.552 L 676.919 297.552 Q 675.269 295.977 675.269 293.427 L 675.269 293.427 L 675.269 250.227 L 675.269 250.227 Q 675.269 239.577 669.794 233.352 L 669.794 233.352 L 669.794 233.352 Q 664.319 227.127 655.469 227.127 L 655.469 227.127 L 655.469 227.127 Q 646.169 227.127 640.169 233.277 L 640.169 233.277 L 640.169 233.277 Q 634.169 239.427 634.169 249.027 L 634.169 249.027 L 634.169 293.427 L 634.169 293.427 Q 634.169 295.977 632.594 297.552 L 632.594 297.552 L 632.594 297.552 Q 631.019 299.127 628.469 299.127 L 628.469 299.127 L 628.469 299.127 Q 625.919 299.127 624.269 297.552 L 624.269 297.552 L 624.269 297.552 Q 622.619 295.977 622.619 293.427 L 622.619 293.427 L 622.619 222.927 L 622.619 222.927 Q 622.619 220.377 624.269 218.727 L 624.269 218.727 L 624.269 218.727 Q 625.919 217.077 628.469 217.077 L 628.469 217.077 L 628.469 217.077 Q 631.019 217.077 632.594 218.727 L 632.594 218.727 L 632.594 218.727 Q 634.169 220.377 634.169 222.927 L 634.169 222.927 L 634.169 226.227 L 634.169 226.227 Q 638.369 221.427 644.144 218.802 L 644.144 218.802 L 644.144 218.802 Q 649.919 216.177 656.669 216.177 L 656.669 216.177 L 656.669 216.177 Q 664.919 216.177 671.519 219.927 L 671.519 219.927 L 671.519 219.927 Q 678.119 223.677 682.019 230.427 L 682.019 230.427 L 682.019 230.427 Q 686.369 223.677 693.344 219.927 L 693.344 219.927 L 693.344 219.927 Q 700.319 216.177 709.019 216.177 L 709.019 216.177 Z  M 802.019 216.327 L 802.019 216.327 Q 813.719 216.327 823.244 221.802 L 823.244 221.802 L 823.244 221.802 Q 832.769 227.277 838.244 236.877 L 838.244 236.877 L 838.244 236.877 Q 843.719 246.477 843.719 258.177 L 843.719 258.177 L 843.719 293.427 L 843.719 293.427 Q 843.719 295.827 842.069 297.477 L 842.069 297.477 L 842.069 297.477 Q 840.419 299.127 837.869 299.127 L 837.869 299.127 L 837.869 299.127 Q 835.319 299.127 833.669 297.552 L 833.669 297.552 L 833.669 297.552 Q 832.019 295.977 832.019 293.427 L 832.019 293.427 L 832.019 284.427 L 832.019 284.427 Q 826.769 291.627 818.669 295.752 L 818.669 295.752 L 818.669 295.752 Q 810.569 299.877 800.819 299.877 L 800.819 299.877 L 800.819 299.877 Q 789.419 299.877 780.194 294.402 L 780.194 294.402 L 780.194 294.402 Q 770.969 288.927 765.644 279.402 L 765.644 279.402 L 765.644 279.402 Q 760.319 269.877 760.319 258.177 L 760.319 258.177 L 760.319 258.177 Q 760.319 246.477 765.794 236.877 L 765.794 236.877 L 765.794 236.877 Q 771.269 227.277 780.794 221.802 L 780.794 221.802 L 780.794 221.802 Q 790.319 216.327 802.019 216.327 L 802.019 216.327 Z  M 802.019 289.377 L 802.019 289.377 Q 810.569 289.377 817.469 285.327 L 817.469 285.327 L 817.469 285.327 Q 824.369 281.277 828.344 274.152 L 828.344 274.152 L 828.344 274.152 Q 832.319 267.027 832.319 258.177 L 832.319 258.177 L 832.319 258.177 Q 832.319 249.327 828.344 242.202 L 828.344 242.202 L 828.344 242.202 Q 824.369 235.077 817.469 230.952 L 817.469 230.952 L 817.469 230.952 Q 810.569 226.827 802.019 226.827 L 802.019 226.827 L 802.019 226.827 Q 793.469 226.827 786.494 230.952 L 786.494 230.952 L 786.494 230.952 Q 779.519 235.077 775.544 242.202 L 775.544 242.202 L 775.544 242.202 Q 771.569 249.327 771.569 258.177 L 771.569 258.177 L 771.569 258.177 Q 771.569 267.027 775.544 274.152 L 775.544 274.152 L 775.544 274.152 Q 779.519 281.277 786.494 285.327 L 786.494 285.327 L 786.494 285.327 Q 793.469 289.377 802.019 289.377 L 802.019 289.377 Z " fill-rule="evenodd" fill="currentColor"/><g><path d=" M 346.493 264.527 L 333.091 258.921 C 332.849 258.818 332.573 258.766 332.314 258.766 L 327.226 258.714 L 323.863 257.3 L 295.644 257.3 C 290.104 257.32 285.034 254.189 282.57 249.228 C 282.311 248.71 282.518 248.089 283.036 247.848 C 283.553 247.589 284.174 247.796 284.415 248.313 C 286.525 252.573 290.874 255.262 295.627 255.247 L 333.211 255.247 C 334.229 255.247 335.091 254.523 335.247 253.522 C 335.419 252.522 334.833 251.556 333.884 251.228 L 291.919 236.567 C 290.539 233.342 285.45 222.941 277.154 222.941 C 272.773 222.941 269.944 225.028 268.806 226.046 L 262.424 227.391 C 261.544 227.581 260.889 228.305 260.785 229.202 C 260.699 230.099 261.182 230.944 262.01 231.306 L 270.651 235.153 L 270.496 245.295 C 270.496 245.623 270.565 245.933 270.703 246.226 C 273.118 251.228 276.291 255.799 280.155 259.801 C 284.019 263.803 288.469 267.131 293.402 269.719 L 297.542 271.892 C 297.542 271.892 297.559 271.892 297.559 271.909 C 297.576 271.909 297.576 271.927 297.576 271.927 L 300.819 273.531 L 301.043 273.634 L 298.749 278.86 L 291.815 278.86 C 290.677 278.86 289.745 279.792 289.745 280.93 C 289.745 282.069 290.677 283 291.815 283 L 314.617 283 C 315.756 283 316.687 282.069 316.687 280.93 C 316.687 279.792 315.756 278.86 314.617 278.86 L 312.461 278.86 L 315.463 272.496 C 315.911 271.53 315.566 270.391 314.652 269.839 L 310.409 267.304 C 308.908 267.925 307.459 268.667 306.08 269.529 L 310.926 272.427 L 307.891 278.86 L 303.303 278.86 L 305.666 273.479 C 306.114 272.461 305.683 271.288 304.682 270.788 L 304.389 270.65 L 302.302 269.615 C 308.08 265.217 315.152 262.819 322.448 262.802 L 331.883 262.888 L 336.954 265.01 L 344.906 268.339 C 345.958 268.787 347.165 268.287 347.614 267.235 C 347.924 266.511 347.769 265.7 347.303 265.131 C 347.079 264.872 346.803 264.665 346.493 264.527 L 346.493 264.527 Z " fill="currentColor"/><path d=" M 448.802 80 C 367.771 80 330.727 105.8 314.859 132.393 C 300.438 156.578 303.584 179.892 304.275 184.099 C 302.029 187.479 299.873 190.919 297.811 194.414 L 267.962 194.414 C 265.542 194.533 263.649 196.597 263.768 199.021 C 263.887 201.442 265.951 203.334 268.376 203.215 L 338.784 203.215 C 340.368 203.233 341.843 202.405 342.652 201.032 C 343.443 199.66 343.443 197.97 342.652 196.597 C 341.843 195.224 340.364 194.396 338.784 194.414 L 308.117 194.414 C 309.235 192.592 310.37 190.718 311.558 188.913 C 317.538 188.297 343.823 185.045 373.298 172.548 C 406.632 158.422 443.055 132.327 453.062 85.364 C 453.356 84.068 453.045 82.708 452.217 81.668 C 451.385 80.63 450.132 80.018 448.802 80 Z  M 442.888 89.078 C 437.167 109.946 425.682 126.052 411.675 138.584 C 392.607 143.412 373.029 137.484 373.029 137.484 C 370.783 136.965 368.517 138.264 367.831 140.465 C 367.145 142.666 368.272 145.023 370.415 145.872 C 370.415 145.872 382.517 149.788 397.919 149.309 C 389.079 155.245 379.686 160.312 369.87 164.438 C 346.899 174.18 327.889 177.771 318.295 179.149 C 342.868 145.559 378.552 116.084 425.84 101.871 C 428.191 101.336 429.682 99.019 429.194 96.658 C 428.706 94.297 426.419 92.761 424.049 93.202 C 423.77 93.222 423.493 93.267 423.222 93.338 C 374.697 107.917 337.895 138.048 312.385 172.279 C 312.297 164.112 313.846 151.324 322.423 136.934 C 336.14 113.937 368.202 90.332 442.888 89.083 L 442.888 89.078 Z  M 259.579 207.616 C 245.057 207.616 233.176 219.497 233.176 234.019 L 233.176 273.624 C 233.176 288.146 245.057 300.027 259.579 300.027 L 347.59 300.027 C 362.112 300.027 373.993 288.146 373.993 273.624 L 373.993 234.019 C 373.993 219.497 362.112 207.616 347.59 207.616 L 259.579 207.616 Z  M 259.579 216.417 L 347.59 216.417 C 357.355 216.417 365.192 224.254 365.192 234.019 L 365.192 273.624 C 365.192 283.389 357.355 291.226 347.59 291.226 L 259.579 291.226 C 249.814 291.226 241.977 283.389 241.977 273.624 L 241.977 234.019 C 241.977 224.254 249.814 216.417 259.579 216.417 Z " fill="currentColor"/></g></g></svg>
