<?xml version="1.0" standalone="no"?><!-- Generator: Gravit.io --><svg xmlns="http://www.w3.org/2000/svg" xmlns:xlink="http://www.w3.org/1999/xlink" style="isolation:isolate" viewBox="84.638 -34.244 426 510.487" width="426" height="510.487"><g id="Group"><g id="Group"><path d=" M 115.638 340.026 L 115.638 108.174 C 115.638 78.99 139.332 55.296 168.515 55.296 L 395.181 55.296 C 424.365 55.296 448.058 78.99 448.058 108.174 L 448.058 346.703" id="Path" fill="currentColor"/><path d=" M 501.102 -34.242 C 499.767 -34.213 498.461 -33.848 497.305 -33.181 L 368.032 40.281 C 346.183 52.712 326.452 68.544 309.582 87.182 L 292.911 105.559 C 262.91 135.961 249.156 178.818 255.861 221.001 L 200.777 221.001 C 187.6 221.001 176.848 231.753 176.848 244.93 C 176.848 258.106 187.6 268.859 200.777 268.859 L 208.753 268.859 L 208.753 272.504 C 208.769 280.317 203.124 286.992 195.416 288.273 L 141.417 297.246 C 125.105 300.044 112.181 312.563 108.865 328.777 L 85.12 447.608 C 83.684 454.683 85.495 461.91 90.041 467.485 C 94.591 473.023 101.379 476.235 108.546 476.243 L 452.534 476.243 C 459.694 476.245 466.476 473.03 471.007 467.485 C 475.585 461.91 477.388 454.683 475.96 447.608 L 452.191 328.777 C 448.894 312.547 435.952 300.017 419.623 297.246 L 365.663 288.273 C 357.956 286.992 352.311 280.317 352.327 272.504 L 352.327 268.859 L 360.303 268.859 C 373.48 268.859 384.232 258.106 384.232 244.93 C 384.204 237.31 380.549 230.16 374.39 225.675 C 390.628 217.971 405.137 207.054 417.039 193.586 L 448.203 158.434 C 451.908 154.395 455.473 150.229 458.891 145.943 C 458.947 145.816 459.074 145.728 459.13 145.6 C 498.046 96.926 516.059 34.799 509.214 -27.143 C 508.745 -31.248 505.232 -34.322 501.102 -34.242 Z " id="Path" fill="rgb(46,46,46)"/><path d=" M 494.346 -13.145 C 497.25 39.936 480.75 92.261 447.923 134.074 L 407.196 142.234 C 405.124 142.648 403.302 143.87 402.133 145.63 C 400.963 147.39 400.544 149.544 400.967 151.614 C 401.706 155.345 404.981 158.031 408.783 158.027 C 409.307 158.026 409.829 157.964 410.339 157.844 L 431.093 153.696 L 420.963 165.134 C 420.193 164.995 419.404 164.995 418.634 165.134 L 361.396 176.604 C 358.552 177.104 356.202 179.104 355.254 181.831 C 354.307 184.558 354.91 187.585 356.831 189.741 C 358.751 191.896 361.689 192.843 364.507 192.214 L 403.798 184.357 C 387.48 202.289 366.002 214.721 342.325 219.94 C 341.423 220.131 340.65 220.562 339.892 221.001 L 294.028 221.001 L 340.985 174.076 C 344.098 170.961 344.098 165.912 340.985 162.797 C 337.859 159.68 332.8 159.68 329.674 162.797 L 271.941 220.594 L 271.694 219.222 C 265.489 181.932 277.676 143.638 304.501 116.526 L 321.387 97.894 C 337.124 80.51 355.53 65.744 375.913 54.152 L 494.346 -13.145 Z " id="Path" fill="rgb(255,255,255)"/><path d=" M 426.978 68.828 C 424.855 68.826 422.822 69.68 421.338 71.197 L 409.908 82.627 C 408.399 84.115 407.549 86.147 407.549 88.266 C 407.549 90.386 408.399 92.417 409.908 93.906 C 411.386 95.409 413.408 96.251 415.516 96.243 C 417.633 96.254 419.666 95.411 421.155 93.906 L 432.617 82.444 C 434.112 80.954 434.953 78.931 434.953 76.82 C 434.953 74.71 434.112 72.686 432.617 71.197 C 431.133 69.68 429.1 68.826 426.978 68.828 Z " id="Path" fill="rgb(46,46,46)"/><path d=" M 392.615 103.19 C 390.5 103.19 388.472 104.031 386.976 105.527 L 352.606 139.897 C 350.533 141.9 349.701 144.865 350.431 147.654 C 351.161 150.443 353.339 152.621 356.128 153.351 C 358.916 154.081 361.882 153.249 363.885 151.176 L 398.255 116.814 C 400.541 114.533 401.227 111.099 399.992 108.116 C 398.757 105.132 395.845 103.187 392.615 103.19 Z " id="Path" fill="rgb(46,46,46)"/><path d=" M 200.777 236.953 L 360.303 236.953 C 364.69 236.953 368.28 240.543 368.28 244.93 C 368.28 249.317 364.69 252.906 360.303 252.906 L 200.777 252.906 C 196.39 252.906 192.8 249.317 192.8 244.93 C 192.8 240.543 196.39 236.953 200.777 236.953 Z " id="Path" fill="rgb(255,255,255)"/><path d=" M 224.706 268.859 L 336.374 268.859 L 336.374 272.504 C 336.331 288.127 347.631 301.474 363.047 304.01 L 417.047 312.976 C 426.84 314.639 434.602 322.153 436.581 331.888 L 443.217 365.229 C 440.754 364.169 437.922 364.419 435.682 365.893 C 433.442 367.368 432.092 369.869 432.09 372.551 L 432.09 388.504 C 432.09 392.909 435.661 396.48 440.067 396.48 C 444.3 396.475 447.776 393.132 447.947 388.902 L 452.653 412.433 L 108.427 412.433 L 113.133 388.902 C 113.304 393.132 116.78 396.475 121.013 396.48 C 125.418 396.48 128.99 392.909 128.99 388.504 L 128.99 372.551 C 128.988 369.869 127.638 367.368 125.398 365.893 C 123.158 364.419 120.326 364.169 117.863 365.229 L 121.173 348.622 L 352.327 348.622 C 356.732 348.622 360.303 345.051 360.303 340.646 C 360.303 336.24 356.732 332.669 352.327 332.669 L 124.379 332.669 L 124.499 331.888 C 126.482 322.154 134.247 314.643 144.041 312.984 L 198.041 304.002 C 213.451 301.463 224.745 288.122 224.706 272.504 L 224.706 268.859 Z " id="Path" fill="rgb(255,255,255)"/><path d=" M 384.232 332.669 C 379.827 332.669 376.256 336.24 376.256 340.646 C 376.256 345.051 379.827 348.622 384.232 348.622 L 416.138 348.622 C 420.543 348.622 424.114 345.051 424.114 340.646 C 424.114 336.24 420.543 332.669 416.138 332.669 L 384.232 332.669 Z " id="Path" fill="rgb(46,46,46)"/><path d=" M 160.895 364.575 C 156.49 364.575 152.919 368.146 152.919 372.551 L 152.919 388.504 C 152.919 392.909 156.49 396.48 160.895 396.48 C 165.3 396.48 168.871 392.909 168.871 388.504 L 168.871 372.551 C 168.871 368.146 165.3 364.575 160.895 364.575 Z " id="Path" fill="rgb(46,46,46)"/><path d=" M 200.777 364.575 C 196.371 364.575 192.8 368.146 192.8 372.551 L 192.8 388.504 C 192.8 392.909 196.371 396.48 200.777 396.48 C 205.182 396.48 208.753 392.909 208.753 388.504 L 208.753 372.551 C 208.753 368.146 205.182 364.575 200.777 364.575 Z " id="Path" fill="rgb(46,46,46)"/><path d=" M 240.658 364.575 C 236.253 364.575 232.682 368.146 232.682 372.551 L 232.682 388.504 C 232.682 392.909 236.253 396.48 240.658 396.48 C 245.063 396.48 248.635 392.909 248.635 388.504 L 248.635 372.551 C 248.635 368.146 245.063 364.575 240.658 364.575 Z " id="Path" fill="rgb(46,46,46)"/><path d=" M 280.54 364.575 C 276.135 364.575 272.564 368.146 272.564 372.551 L 272.564 388.504 C 272.564 392.909 276.135 396.48 280.54 396.48 C 284.945 396.48 288.516 392.909 288.516 388.504 L 288.516 372.551 C 288.516 368.146 284.945 364.575 280.54 364.575 Z " id="Path" fill="rgb(46,46,46)"/><path d=" M 320.422 364.575 C 316.016 364.575 312.445 368.146 312.445 372.551 L 312.445 388.504 C 312.445 392.909 316.016 396.48 320.422 396.48 C 324.827 396.48 328.398 392.909 328.398 388.504 L 328.398 372.551 C 328.398 368.146 324.827 364.575 320.422 364.575 Z " id="Path" fill="rgb(46,46,46)"/><path d=" M 360.303 364.575 C 355.898 364.575 352.327 368.146 352.327 372.551 L 352.327 388.504 C 352.327 392.909 355.898 396.48 360.303 396.48 C 364.709 396.48 368.28 392.909 368.28 388.504 L 368.28 372.551 C 368.28 368.146 364.709 364.575 360.303 364.575 Z " id="Path" fill="rgb(46,46,46)"/><path d=" M 400.185 364.575 C 395.78 364.575 392.209 368.146 392.209 372.551 L 392.209 388.504 C 392.209 392.909 395.78 396.48 400.185 396.48 C 404.59 396.48 408.161 392.909 408.161 388.504 L 408.161 372.551 C 408.161 368.146 404.59 364.575 400.185 364.575 Z " id="Path" fill="rgb(46,46,46)"/><path d=" M 105.22 428.385 L 455.86 428.385 L 460.35 450.759 C 460.801 453.098 460.188 455.516 458.677 457.358 C 457.167 459.2 454.916 460.274 452.534 460.291 L 108.546 460.291 C 106.153 460.291 103.904 459.23 102.38 457.395 C 100.87 455.539 100.275 453.102 100.761 450.759 L 105.22 428.385 Z " id="Path" fill="rgb(255,255,255)"/></g><g id="Group"><path d=" M 123.138 340.03 L 123.138 347.53 L 108.138 347.53 L 108.138 340.03 L 108.138 108.18 C 108.128 100.1 109.748 92.11 112.888 84.68 C 115.928 77.51 120.318 70.99 125.828 65.49 C 131.338 59.98 137.848 55.59 145.018 52.55 C 152.458 49.41 160.448 47.79 168.518 47.8 L 395.178 47.8 C 403.248 47.79 411.238 49.41 418.678 52.55 C 425.848 55.59 432.368 59.98 437.868 65.49 C 443.378 70.99 447.768 77.51 450.808 84.68 C 453.948 92.11 455.568 100.1 455.558 108.18 L 455.558 346.7 L 455.558 354.2 L 440.558 354.2 L 440.558 346.7 L 440.558 108.17 C 440.558 108.17 440.558 108.17 440.558 108.17 C 440.568 102.11 439.348 96.11 436.998 90.52 C 434.708 85.13 431.398 80.23 427.258 76.09 C 423.118 71.95 418.228 68.65 412.828 66.36 C 407.248 64 401.248 62.79 395.188 62.8 C 395.188 62.8 395.178 62.8 395.178 62.8 L 168.518 62.8 C 168.518 62.8 168.508 62.8 168.508 62.8 C 162.448 62.79 156.448 64 150.868 66.36 C 145.478 68.65 140.578 71.95 136.438 76.09 C 132.298 80.23 128.988 85.13 126.708 90.52 C 124.348 96.11 123.138 102.11 123.138 108.17 C 123.138 108.17 123.138 108.17 123.138 108.17 L 123.138 340.03 Z " id="Path" fill="rgb(46,46,46)"/><path d=" M 501.102 -34.242 C 499.767 -34.213 498.461 -33.848 497.305 -33.181 L 368.032 40.281 C 346.183 52.712 326.452 68.544 309.582 87.182 L 292.911 105.559 C 262.91 135.961 249.156 178.818 255.861 221.001 L 200.777 221.001 C 187.6 221.001 176.848 231.753 176.848 244.93 C 176.848 258.106 187.6 268.859 200.777 268.859 L 208.753 268.859 L 208.753 272.504 C 208.769 280.317 203.124 286.992 195.416 288.273 L 141.417 297.246 C 125.105 300.044 112.181 312.563 108.865 328.777 L 85.12 447.608 C 83.684 454.683 85.495 461.91 90.041 467.485 C 94.591 473.023 101.379 476.235 108.546 476.243 L 452.534 476.243 C 459.694 476.245 466.476 473.03 471.007 467.485 C 475.585 461.91 477.388 454.683 475.96 447.608 L 452.191 328.777 C 448.894 312.547 435.952 300.017 419.623 297.246 L 365.663 288.273 C 357.956 286.992 352.311 280.317 352.327 272.504 L 352.327 268.859 L 360.303 268.859 C 373.48 268.859 384.232 258.106 384.232 244.93 C 384.204 237.31 380.549 230.16 374.39 225.675 C 390.628 217.971 405.137 207.054 417.039 193.586 L 448.203 158.434 C 451.908 154.395 455.473 150.229 458.891 145.943 C 458.947 145.816 459.074 145.728 459.13 145.6 C 498.046 96.926 516.059 34.799 509.214 -27.143 C 508.745 -31.248 505.232 -34.322 501.102 -34.242 Z " id="Path" fill="rgb(46,46,46)"/><path d=" M 494.346 -13.145 C 497.25 39.936 480.75 92.261 447.923 134.074 L 407.196 142.234 C 405.124 142.648 403.302 143.87 402.133 145.63 C 400.963 147.39 400.544 149.544 400.967 151.614 C 401.706 155.345 404.981 158.031 408.783 158.027 C 409.307 158.026 409.829 157.964 410.339 157.844 L 431.093 153.696 L 420.963 165.134 C 420.193 164.995 419.404 164.995 418.634 165.134 L 361.396 176.604 C 358.552 177.104 356.202 179.104 355.254 181.831 C 354.307 184.558 354.91 187.585 356.831 189.741 C 358.751 191.896 361.689 192.843 364.507 192.214 L 403.798 184.357 C 387.48 202.289 366.002 214.721 342.325 219.94 C 341.423 220.131 340.65 220.562 339.892 221.001 L 294.028 221.001 L 340.985 174.076 C 344.098 170.961 344.098 165.912 340.985 162.797 C 337.859 159.68 332.8 159.68 329.674 162.797 L 271.941 220.594 L 271.694 219.222 C 265.489 181.932 277.676 143.638 304.501 116.526 L 321.387 97.894 C 337.124 80.51 355.53 65.744 375.913 54.152 L 494.346 -13.145 Z " id="Path" fill="rgb(255,255,255)"/><path d=" M 426.978 68.828 C 424.855 68.826 422.822 69.68 421.338 71.197 L 409.908 82.627 C 408.399 84.115 407.549 86.147 407.549 88.266 C 407.549 90.386 408.399 92.417 409.908 93.906 C 411.386 95.409 413.408 96.251 415.516 96.243 C 417.633 96.254 419.666 95.411 421.155 93.906 L 432.617 82.444 C 434.112 80.954 434.953 78.931 434.953 76.82 C 434.953 74.71 434.112 72.686 432.617 71.197 C 431.133 69.68 429.1 68.826 426.978 68.828 Z " id="Path" fill="rgb(46,46,46)"/><path d=" M 392.615 103.19 C 390.5 103.19 388.472 104.031 386.976 105.527 L 352.606 139.897 C 350.533 141.9 349.701 144.865 350.431 147.654 C 351.161 150.443 353.339 152.621 356.128 153.351 C 358.916 154.081 361.882 153.249 363.885 151.176 L 398.255 116.814 C 400.541 114.533 401.227 111.099 399.992 108.116 C 398.757 105.132 395.845 103.187 392.615 103.19 Z " id="Path" fill="rgb(46,46,46)"/><path d=" M 200.777 236.953 L 360.303 236.953 C 364.69 236.953 368.28 240.543 368.28 244.93 C 368.28 249.317 364.69 252.906 360.303 252.906 L 200.777 252.906 C 196.39 252.906 192.8 249.317 192.8 244.93 C 192.8 240.543 196.39 236.953 200.777 236.953 Z " id="Path" fill="rgb(255,255,255)"/><path d=" M 224.706 268.859 L 336.374 268.859 L 336.374 272.504 C 336.331 288.127 347.631 301.474 363.047 304.01 L 417.047 312.976 C 426.84 314.639 434.602 322.153 436.581 331.888 L 443.217 365.229 C 440.754 364.169 437.922 364.419 435.682 365.893 C 433.442 367.368 432.092 369.869 432.09 372.551 L 432.09 388.504 C 432.09 392.909 435.661 396.48 440.067 396.48 C 444.3 396.475 447.776 393.132 447.947 388.902 L 452.653 412.433 L 108.427 412.433 L 113.133 388.902 C 113.304 393.132 116.78 396.475 121.013 396.48 C 125.418 396.48 128.99 392.909 128.99 388.504 L 128.99 372.551 C 128.988 369.869 127.638 367.368 125.398 365.893 C 123.158 364.419 120.326 364.169 117.863 365.229 L 121.173 348.622 L 352.327 348.622 C 356.732 348.622 360.303 345.051 360.303 340.646 C 360.303 336.24 356.732 332.669 352.327 332.669 L 124.379 332.669 L 124.499 331.888 C 126.482 322.154 134.247 314.643 144.041 312.984 L 198.041 304.002 C 213.451 301.463 224.745 288.122 224.706 272.504 L 224.706 268.859 Z " id="Path" fill="rgb(255,255,255)"/><path d=" M 384.232 332.669 C 379.827 332.669 376.256 336.24 376.256 340.646 C 376.256 345.051 379.827 348.622 384.232 348.622 L 416.138 348.622 C 420.543 348.622 424.114 345.051 424.114 340.646 C 424.114 336.24 420.543 332.669 416.138 332.669 L 384.232 332.669 Z " id="Path" fill="rgb(46,46,46)"/><path d=" M 160.895 364.575 C 156.49 364.575 152.919 368.146 152.919 372.551 L 152.919 388.504 C 152.919 392.909 156.49 396.48 160.895 396.48 C 165.3 396.48 168.871 392.909 168.871 388.504 L 168.871 372.551 C 168.871 368.146 165.3 364.575 160.895 364.575 Z " id="Path" fill="rgb(46,46,46)"/><path d=" M 200.777 364.575 C 196.371 364.575 192.8 368.146 192.8 372.551 L 192.8 388.504 C 192.8 392.909 196.371 396.48 200.777 396.48 C 205.182 396.48 208.753 392.909 208.753 388.504 L 208.753 372.551 C 208.753 368.146 205.182 364.575 200.777 364.575 Z " id="Path" fill="rgb(46,46,46)"/><path d=" M 240.658 364.575 C 236.253 364.575 232.682 368.146 232.682 372.551 L 232.682 388.504 C 232.682 392.909 236.253 396.48 240.658 396.48 C 245.063 396.48 248.635 392.909 248.635 388.504 L 248.635 372.551 C 248.635 368.146 245.063 364.575 240.658 364.575 Z " id="Path" fill="rgb(46,46,46)"/><path d=" M 280.54 364.575 C 276.135 364.575 272.564 368.146 272.564 372.551 L 272.564 388.504 C 272.564 392.909 276.135 396.48 280.54 396.48 C 284.945 396.48 288.516 392.909 288.516 388.504 L 288.516 372.551 C 288.516 368.146 284.945 364.575 280.54 364.575 Z " id="Path" fill="rgb(46,46,46)"/><path d=" M 320.422 364.575 C 316.016 364.575 312.445 368.146 312.445 372.551 L 312.445 388.504 C 312.445 392.909 316.016 396.48 320.422 396.48 C 324.827 396.48 328.398 392.909 328.398 388.504 L 328.398 372.551 C 328.398 368.146 324.827 364.575 320.422 364.575 Z " id="Path" fill="rgb(46,46,46)"/><path d=" M 360.303 364.575 C 355.898 364.575 352.327 368.146 352.327 372.551 L 352.327 388.504 C 352.327 392.909 355.898 396.48 360.303 396.48 C 364.709 396.48 368.28 392.909 368.28 388.504 L 368.28 372.551 C 368.28 368.146 364.709 364.575 360.303 364.575 Z " id="Path" fill="rgb(46,46,46)"/><path d=" M 400.185 364.575 C 395.78 364.575 392.209 368.146 392.209 372.551 L 392.209 388.504 C 392.209 392.909 395.78 396.48 400.185 396.48 C 404.59 396.48 408.161 392.909 408.161 388.504 L 408.161 372.551 C 408.161 368.146 404.59 364.575 400.185 364.575 Z " id="Path" fill="rgb(46,46,46)"/><path d=" M 105.22 428.385 L 455.86 428.385 L 460.35 450.759 C 460.801 453.098 460.188 455.516 458.677 457.358 C 457.167 459.2 454.916 460.274 452.534 460.291 L 108.546 460.291 C 106.153 460.291 103.904 459.23 102.38 457.395 C 100.87 455.539 100.275 453.102 100.761 450.759 L 105.22 428.385 Z " id="Path" fill="rgb(255,255,255)"/></g></g></svg>
