<?xml version="1.0" encoding="utf-8"?>
<!-- Generator: Adobe Illustrator 22.0.1, SVG Export Plug-In . SVG Version: 6.00 Build 0)  -->
<svg version="1.1" id="Layer_1" xmlns="http://www.w3.org/2000/svg" xmlns:xlink="http://www.w3.org/1999/xlink" x="0px" y="0px"
	 viewBox="0 0 100 100" style="enable-background:new 0 0 100 100;" xml:space="preserve">
<style type="text/css">
	.st0{fill:#ECEFF0;}
	.st1{fill:#DBDBDB;}
	.st2{opacity:0.1;fill:#30A300;}
	.st3{fill:none;}
</style>
<path class="st0" d="M25.5,46.6L9.4,60.1L5.6,76.5l47.9-0.2c0,0-0.5-9.2,11.3-17.1L60,50.7l-8.1-4.8L40.8,51L25.5,46.6z"/>
<g>
	<path class="st1" d="M88,77.9h-9.4v-9.4c0-0.5-0.4-1-1-1h-1.4c-0.5,0-1,0.4-1,1v9.4h-9.4c-0.5,0-1,0.4-1,1v1.4c0,0.5,0.4,1,1,1h9.4
		v9.4c0,0.5,0.4,1,1,1h1.4c0.5,0,1-0.4,1-1v-9.4H88c0.5,0,1-0.4,1-1v-1.4C89,78.3,88.5,77.9,88,77.9z"/>
	<path class="st2" d="M76.9,64c-8.7,0-15.7,7-15.7,15.7c0,8.7,7,15.7,15.7,15.7s15.7-7,15.7-15.7C92.6,71,85.6,64,76.9,64z M88,82.4
		h-8.3v8.3c0,1.2-1,2.1-2.1,2.1h-1.4c-1.2,0-2.1-1-2.1-2.1v-8.3h-8.3c-1.2,0-2.1-1-2.1-2.1v-1.4c0-1.2,1-2.1,2.1-2.1h8.3v-8.3
		c0-1.2,1-2.1,2.1-2.1h1.4c1.2,0,2.1,1,2.1,2.1v8.3H88c1.2,0,2.1,1,2.1,2.1v1.4C90.1,81.4,89.2,82.4,88,82.4z"/>
	<path class="st1" d="M88,77.9h-9.4v-9.4c0-0.5-0.4-1-1-1h-1.4c-0.5,0-1,0.4-1,1v9.4h-9.4c-0.5,0-1,0.4-1,1v1.4c0,0.5,0.4,1,1,1h9.4
		v9.4c0,0.5,0.4,1,1,1h1.4c0.5,0,1-0.4,1-1v-9.4H88c0.5,0,1-0.4,1-1v-1.4C89,78.3,88.5,77.9,88,77.9z"/>
	<path class="st3" d="M76.9,93.7c7.7,0,13.9-6.2,13.9-13.9s-6.2-13.9-13.9-13.9c-7.7,0-13.9,6.2-13.9,13.9
		C63,87.4,69.2,93.7,76.9,93.7z"/>
	<g>
		<path class="st1" d="M56.2,46.5L55,45.9l0.9-1.1c3.9-4.9,6-11.3,6-18.1c0-7.1-2.3-13.7-6.5-18.8c-4.3-5.1-10-8-16.2-8
			S27.2,2.8,22.9,8c-4.2,5-6.5,11.7-6.5,18.8c0,6.7,2.1,13.1,6,18.1l0.9,1.1L22,46.5C11.8,52,4.8,62.2,3.3,73.7
			c-0.2,1.7,0.3,3.4,1.4,4.7c1.1,1.3,2.8,2,4.5,2h44.4c0-0.6-0.1-1.3-0.1-2.2c0-0.6,0-1.3,0.1-1.9H9.2c-0.5,0-1.1-0.2-1.4-0.6
			c-0.4-0.4-0.5-1-0.5-1.5c1.4-11,8.4-20.4,18.5-25l0.6-0.3l0.6,0.4c3.6,2.7,7.8,4.1,12.1,4.1c4.4,0,8.6-1.4,12.2-4.1l0.6-0.4
			l0.6,0.3c4.9,2.3,9.2,5.7,12.5,10.1c1.2-0.7,2.5-1.2,3.9-1.6C65.5,53,61.2,49.2,56.2,46.5z M39.1,49.3
			c-10.3,0-18.6-10.2-18.6-22.6c0-6,1.9-11.6,5.4-15.9c3.5-4.3,8.2-6.7,13.2-6.7c10.3,0,18.6,10.1,18.6,22.6
			C57.8,40.7,48.1,49.3,39.1,49.3z"/>
	</g>
	<path class="st1" d="M66.5,62.3C66.5,62.2,66.5,62.2,66.5,62.3c-5.1,3-8.8,8.2-9.7,14.3h0C57.8,70.5,61.4,65.3,66.5,62.3z"/>
	<path class="st1" d="M76.9,59.4c10.5,0,19.1,8,20.2,18.2C96.1,67.3,87.4,59.3,76.9,59.4c-1.5-0.1-2.9,0.1-4.3,0.4
		c0,0,0,0.1,0.1,0.1C74,59.6,75.4,59.4,76.9,59.4z"/>
	<path class="st1" d="M66.5,62.3c-5.1,3-8.8,8.2-9.7,14.3h0c-0.2,1-0.2,2.1-0.2,3.1c0,11.2,9.1,20.3,20.3,20.3
		c11.2,0,20.3-9.1,20.3-20.3c0-0.7,0-1.4-0.1-2.1C96,67.4,87.4,59.4,76.9,59.4c-1.5,0-2.9,0.2-4.3,0.5c0,0,0-0.1-0.1-0.1
		C70.4,60.2,68.3,61.1,66.5,62.3C66.5,62.2,66.5,62.2,66.5,62.3z M76.9,62.7c9.3,0,16.9,7.6,16.9,16.9s-7.6,16.9-16.9,16.9
		C67.6,96.6,60,89,60,79.7S67.6,62.7,76.9,62.7z"/>
</g>
</svg>
