<?xml version="1.0" encoding="utf-8"?>
<!-- Generator: Adobe Illustrator 22.0.1, SVG Export Plug-In . SVG Version: 6.00 Build 0)  -->
<svg version="1.1" id="Layer_1" xmlns="http://www.w3.org/2000/svg" xmlns:xlink="http://www.w3.org/1999/xlink" x="0px" y="0px"
	 viewBox="0 0 100 100" style="enable-background:new 0 0 100 100;" xml:space="preserve">
<style type="text/css">
	.st0{fill:#ECEFF0;}
	.st1{fill:#DBDBDB;}
</style>
<polygon class="st0" points="88.1,42.3 79.3,97.5 41.3,86.9 "/>
<g>
	<path class="st1" d="M80.5,8.4c-2,0-3.9,0.8-5.4,2.2c-3,3-3,7.8,0,10.7c1.5,1.5,3.4,2.2,5.4,2.2c1.9,0,3.9-0.7,5.4-2.2
		c1.4-1.4,2.2-3.3,2.2-5.4c0-2-0.8-3.9-2.2-5.4C84.5,9.2,82.6,8.4,80.5,8.4z M82.6,18c-1.2,1.2-3,1.2-4.2,0c-1.2-1.2-1.2-3,0-4.2
		c0.6-0.6,1.3-0.9,2.1-0.9c0.8,0,1.5,0.3,2.1,0.9C83.8,15,83.8,16.9,82.6,18z"/>
	<path class="st1" d="M94.9,6c-0.1-2.4-2-4.4-4.5-4.5L79,1.1c-0.1,0-0.2,0-0.2,0L63.4,0.5c-1.3-0.1-2.6,0.4-3.5,1.4l-54,53.4
		c-1.8,1.8-1.8,4.8,0,6.6l28.3,28.3c0.9,0.9,2.1,1.4,3.3,1.4c1.2,0,2.4-0.5,3.2-1.3l35.6,9.6c0.4,0.1,0.8,0.2,1.2,0.2
		c0.8,0,1.6-0.2,2.3-0.6c1.1-0.6,1.8-1.6,2.2-2.9l9.9-56.8l2.9-2.9c0.9-0.9,1.4-2.2,1.4-3.5L94.9,6z M85.7,45.9l-8.1,49.5l-33-8.9
		c3.1-3,12.1-12,20.9-20.7C73.7,57.8,82.1,49.5,85.7,45.9z M91.6,33.5C91.6,33.5,91.6,33.5,91.6,33.5L37.5,86.9L9.2,58.5l54-53.4
		l17,0.7c0.1,0,0.2,0,0.3,0l9.8,0.5L91.6,33.5z"/>
</g>
</svg>
