<?xml version="1.0" encoding="utf-8"?>
<!-- Generator: Adobe Illustrator 22.0.1, SVG Export Plug-In . SVG Version: 6.00 Build 0)  -->
<svg version="1.1" id="Layer_1" xmlns="http://www.w3.org/2000/svg" xmlns:xlink="http://www.w3.org/1999/xlink" x="0px" y="0px"
	 viewBox="0 0 100 100" style="enable-background:new 0 0 100 100;" xml:space="preserve">
<style type="text/css">
	.st0{fill:#DBDBDB;}
</style>
<g>
	<path class="st0" d="M83.3,94.6l-66.7,0L16,93.9C5.8,84.5,0,71.2,0,57.3c0-27.6,22.4-50,50-50s50,22.4,50,50
		c0,13.8-5.8,27.2-15.9,36.6L83.3,94.6z M18.6,89.7l62.8,0c8.7-8.5,13.7-20.2,13.7-32.4c0-24.9-20.2-45.1-45.1-45.1
		S4.9,32.5,4.9,57.3C4.9,69.5,9.9,81.2,18.6,89.7z"/>
	<circle class="st0" cx="19.7" cy="74.6" r="4.4"/>
	<circle class="st0" cx="15.2" cy="56.9" r="4.4"/>
	<circle class="st0" cx="19.7" cy="39.9" r="4.4"/>
	<circle class="st0" cx="32.6" cy="26.7" r="4.4"/>
	<circle class="st0" cx="49.8" cy="22.3" r="4.4"/>
	<circle class="st0" cx="67.1" cy="26.7" r="4.4"/>
	<circle class="st0" cx="80" cy="39.9" r="4.4"/>
	<circle class="st0" cx="84.5" cy="56.9" r="4.4"/>
	<circle class="st0" cx="80" cy="74.6" r="4.4"/>
	<circle class="st0" cx="49.2" cy="57.2" r="8.9"/>
	
		<rect x="52.1" y="42.5" transform="matrix(0.8791 -0.4767 0.4767 0.8791 -14.2547 37.6271)" class="st0" width="29.8" height="8.8"/>
</g>
</svg>
