<?xml version="1.0" encoding="utf-8"?>
<!-- Generator: Adobe Illustrator 22.0.1, SVG Export Plug-In . SVG Version: 6.00 Build 0)  -->
<svg version="1.1" id="Layer_1" xmlns="http://www.w3.org/2000/svg" xmlns:xlink="http://www.w3.org/1999/xlink" x="0px" y="0px"
	 viewBox="0 0 100 100" style="enable-background:new 0 0 100 100;" xml:space="preserve">
<style type="text/css">
	.st0{fill:#DBDBDB;}
	.st1{fill:#ECEFF0;}
	.st2{opacity:0.1;fill:#30A300;}
	.st3{fill:#F5F5F5;}
</style>
<g>
	<path class="st0" d="M59.9,34.6H19.2c-0.7,0-1.3-0.6-1.3-1.2v-0.6c0-0.7,0.6-1.3,1.3-1.3h40.7c0.7,0,1.3,0.6,1.3,1.3v0.6
		C61.2,34.1,60.6,34.6,59.9,34.6z"/>
	<path class="st0" d="M59.9,49.7h-28c-0.7,0-1.3-0.6-1.3-1.3v-0.6c0-0.7,0.6-1.2,1.3-1.2h28c0.7,0,1.3,0.6,1.3,1.2v0.6
		C61.2,49.2,60.6,49.7,59.9,49.7z"/>
	<path class="st0" d="M59.9,60.5h-28c-0.7,0-1.3-0.6-1.3-1.3v-0.6c0-0.7,0.6-1.3,1.3-1.3h28c0.7,0,1.3,0.6,1.3,1.3v0.6
		C61.2,60,60.6,60.5,59.9,60.5z"/>
	<path class="st0" d="M59.9,71.3h-28c-0.7,0-1.3-0.6-1.3-1.3v-0.6c0-0.7,0.6-1.2,1.3-1.2h28c0.7,0,1.3,0.6,1.3,1.2v0.6
		C61.2,70.8,60.6,71.3,59.9,71.3z"/>
	<path class="st0" d="M22.2,49.7h-2.9c-0.7,0-1.3-0.6-1.3-1.3v-0.6c0-0.7,0.6-1.2,1.3-1.2h2.9c0.7,0,1.2,0.6,1.2,1.2v0.6
		C23.4,49.2,22.9,49.7,22.2,49.7z"/>
	<path class="st0" d="M22.2,60.5h-2.9c-0.7,0-1.3-0.6-1.3-1.3v-0.6c0-0.7,0.6-1.3,1.3-1.3h2.9c0.7,0,1.2,0.6,1.2,1.3v0.6
		C23.4,60,22.9,60.5,22.2,60.5z"/>
	<path class="st0" d="M22.2,71.3h-2.9c-0.7,0-1.3-0.6-1.3-1.3v-0.6c0-0.7,0.6-1.2,1.3-1.2h2.9c0.7,0,1.2,0.6,1.2,1.2v0.6
		C23.4,70.8,22.9,71.3,22.2,71.3z"/>
	<rect x="1.7" y="8.3" class="st1" width="75.7" height="11.8"/>
	<path class="st0" d="M78.9,21.6H0.2V11.3C0.2,8.4,2.6,6,5.5,6h68.2c2.9,0,5.3,2.4,5.3,5.3V21.6z M3.3,18.5h72.6v-7.2
		c0-1.2-1-2.2-2.2-2.2H5.5c-1.2,0-2.2,1-2.2,2.2V18.5z"/>
	<g>
		<path class="st0" d="M3.3,83V21.6h72.6v36.5c1-0.3,2-0.5,3.1-0.7V18.5H0.2V86h63.6c-0.5-1-0.9-2-1.2-3.1H3.3z"/>
	</g>
	<circle class="st2" cx="81.9" cy="77.1" r="13.9"/>
	<g>
		<path class="st0" d="M91.8,75.5h-8.4v-8.4c0-0.5-0.4-0.9-0.9-0.9h-1.2c-0.5,0-0.9,0.4-0.9,0.9v8.4h-8.4c-0.5,0-0.9,0.4-0.9,0.9
			v1.2c0,0.5,0.4,0.9,0.9,0.9h8.4v8.4c0,0.5,0.4,0.9,0.9,0.9h1.2c0.5,0,0.9-0.4,0.9-0.9v-8.4h8.4c0.5,0,0.9-0.4,0.9-0.9v-1.2
			C92.6,75.9,92.3,75.5,91.8,75.5z"/>
		<path class="st3" d="M82.5,66.2c0.5,0,0.9,0.4,0.9,0.9v8.4h8.4c0.5,0,0.9,0.4,0.9,0.9v1.2c0,0.5-0.4,0.9-0.9,0.9h-8.4v8.4
			c0,0.5-0.4,0.9-0.9,0.9h-1.2c-0.5,0-0.9-0.4-0.9-0.9v-8.4h-8.4c-0.5,0-0.9-0.4-0.9-0.9v-1.2c0-0.5,0.4-0.9,0.9-0.9h8.4v-8.4
			c0-0.5,0.4-0.9,0.9-0.9H82.5 M82.5,65.2h-1.2c-1,0-1.9,0.8-1.9,1.9v7.3h-7.3c-1,0-1.9,0.8-1.9,1.9v1.2c0,1,0.8,1.9,1.9,1.9h7.3
			v7.3c0,1,0.8,1.9,1.9,1.9h1.2c1,0,1.9-0.8,1.9-1.9v-7.3h7.3c1,0,1.9-0.8,1.9-1.9v-1.2c0-1-0.8-1.9-1.9-1.9h-7.3v-7.3
			C84.4,66.1,83.6,65.2,82.5,65.2L82.5,65.2z"/>
	</g>
	<path class="st0" d="M81.9,95.2c-10,0-18.1-8.1-18.1-18.1S72,59,81.9,59c10,0,18.1,8.1,18.1,18.1S91.9,95.2,81.9,95.2z M81.9,62
		c-8.3,0-15.1,6.8-15.1,15.1s6.8,15.1,15.1,15.1c8.3,0,15.1-6.8,15.1-15.1S90.2,62,81.9,62z"/>
</g>
</svg>
