<?xml version="1.0" encoding="utf-8"?>
<!-- Generator: Adobe Illustrator 22.0.1, SVG Export Plug-In . SVG Version: 6.00 Build 0)  -->
<svg version="1.1" id="Layer_1" xmlns="http://www.w3.org/2000/svg" xmlns:xlink="http://www.w3.org/1999/xlink" x="0px" y="0px"
	 viewBox="0 0 100 100" style="enable-background:new 0 0 100 100;" xml:space="preserve">
<style type="text/css">
	.st0{fill:#DBDBDB;}
</style>
<g>
	<path class="st0" d="M54.3,33.9l-1.5,1.5c-0.6,0.6-0.6,1.5,0,2.1c0.3,0.3,0.7,0.4,1,0.4c0.4,0,0.7-0.1,1-0.4l1.5-1.5
		c0.6-0.6,0.6-1.5,0-2.1C55.8,33.3,54.8,33.3,54.3,33.9z M47.9,12.7c-0.8-0.1-1.5,0.5-1.5,1.3c-0.1,1.7,1.5,6.7,4.8,10.2
		c1,1.1,2.2,1.9,3.4,2.5c-2.1,1.1-4.3,2-6.7,2c0,0,0,0,0,0c-0.8,0-1.4,0.6-1.5,1.4c0,0.8,0.6,1.5,1.4,1.5h0c3.8,0,6.8-1.6,9.8-3.2
		c2.5-1.4,4.9-2.6,7.6-2.8c0.8,0,1.4-0.7,1.4-1.5c0-0.8-0.7-1.4-1.5-1.4c-2.5,0.1-4.7,1-6.7,2c-1.8,0-3.5-0.8-5-2.3
		c-2.9-2.9-4.1-7.3-4.1-8.1C49.3,13.5,48.7,12.8,47.9,12.7z M55.5,56.8c0.8-0.2,1.3-0.9,1.1-1.7c-0.2-0.8-0.9-1.3-1.7-1.1
		c-2.1,0.5-3.8,0.4-4.6,0.2c-0.9-2.5-2.1-5.1-5.5-6.7c-0.7-0.3-1.6,0-1.9,0.7c-0.3,0.7,0,1.6,0.7,1.9c2.8,1.3,3.5,3.3,4.4,6
		c0.9,2.6,1.9,5.8,5.4,8.8c0.3,0.2,0.6,0.4,1,0.4c0.4,0,0.8-0.2,1.1-0.5c0.5-0.6,0.5-1.5-0.1-2C53,60.9,52,59,51.3,57.2
		c0.1,0,0.2,0,0.4,0C52.8,57.2,54.1,57.1,55.5,56.8z M79.8,53.1c0.1,0,0.1,0,0.2,0c0.7,0,1.3-0.5,1.4-1.2c0.2-1.4-0.3-2.8-1.4-4
		c-0.7-0.8-2.1-2-3.2-2c0,0,0,0,0,0c-0.8,0-1.4,0.7-1.4,1.5c0,0.7,0.5,1.3,1.2,1.4c0.5,0.2,2.2,1.5,2,2.7C78.5,52.3,79,53,79.8,53.1
		z M2.8,29.6c1.2-0.8,3.1-1.4,5.3-1.7c-2.1,3.2-3.8,6.8-5,10.4c-0.3,0.8,0.2,1.6,0.9,1.8c0.2,0.1,0.3,0.1,0.5,0.1
		c0.6,0,1.2-0.4,1.4-1c1.3-4,3.4-8,5.9-11.5c3.4,0,6.8,0.6,9.1,2c0.2,0.1,0.5,0.2,0.7,0.2c0.5,0,1-0.3,1.3-0.7
		c0.4-0.7,0.2-1.6-0.5-2c-2.2-1.3-5.2-2.1-8.3-2.3c0.7-0.9,1.5-1.7,2.3-2.5c1.2-1.2,2.4-2.4,3.7-3.5c0.2,0.2,0.5,0.4,0.7,0.6
		c1.4,1.1,3.1,1.9,4.4,2.1c0.1,0,0.1,0,0.2,0c0.7,0,1.3-0.5,1.4-1.2c0.1-0.8-0.4-1.5-1.2-1.6c-0.8-0.1-2.3-0.8-3.4-1.8
		c2.7-2.4,5.6-4.6,8.7-6.4c0.3-0.2,0.6-0.3,0.8-0.5c1.6,0.9,3.3,2.1,4.4,3.6c0.5,0.6,0.8,1.2,1,1.9c0,0,0,0.1,0,0.1
		c0.3,1,0.4,2.1,0.1,3.2c-0.2,0.8,0.2,1.6,1,1.8c0.1,0,0.3,0.1,0.4,0.1c0.6,0,1.2-0.4,1.4-1.1c0.4-1.4,0.4-2.8,0.1-4.2
		c0.3-0.3,0.7-0.8,1-1.2c1.8-2.2,4.6-5.4,5.4-8.5c0.8,0,1.6-0.1,2.4-0.1c5.6,0,10.7,1.3,15.6,3.4c-2,1.3-3.8,3-5.3,4.3l-0.4,0.3
		c-0.6,0.5-0.6,1.5-0.1,2c0.3,0.3,0.7,0.5,1.1,0.5c0.4,0,0.7-0.1,1-0.4l0.4-0.3c1.9-1.8,4.1-3.8,6.6-4.9c3.6,1.8,7,3.8,10.5,6
		c1.5,0.9,2.9,2,4.2,3.3c-1.2,1-2.4,2.2-3.6,3.5c-1.8-2-5-4.5-8.1-5.5c-0.8-0.2-1.6,0.2-1.8,1c-0.2,0.8,0.2,1.6,1,1.8
		c3.2,1,6.2,3.8,7.2,5c-3.4,4.7-5.1,9.6-4.8,13.8c0.1,0.8,0.7,1.3,1.4,1.3c0,0,0.1,0,0.1,0c0.8-0.1,1.4-0.8,1.3-1.6
		c-0.3-3.9,1.7-8.8,5.2-13.2c1.3-1.6,2.7-3,4.1-4.1c1.9,2.2,3.5,4.7,4.9,7.5c0.3,0.7,1.2,1,1.9,0.7c0.7-0.3,1-1.2,0.7-1.9
		c-1.4-3-3.1-5.7-5.1-8c1.6-0.9,3.1-1.5,4.5-1.7c0.8-0.1,1.4-0.8,1.3-1.6c-0.1-0.8-0.8-1.4-1.6-1.3c-2,0.2-4.1,1.1-6.2,2.4
		c-1.6-1.5-3.2-2.8-5.1-4c-2.4-1.5-4.7-2.9-7.1-4.2c0.4,0.1,0.8,0.2,1.2,0.3c0.8,0.3,1.6-0.1,1.9-0.9c0.3-0.8-0.1-1.6-0.9-1.9
		c-2.5-0.9-4.8-0.8-7-0.1c-5.9-2.8-12.1-4.7-19-4.7c-0.7,0-1.5,0-2.2,0.1c-0.1-0.3-0.2-0.6-0.3-0.9c-0.3-0.7-1.2-1-1.9-0.7
		c-0.7,0.3-1,1.2-0.7,1.9c-4.4,0.6-8.4,1.9-12,3.8C29.2,5.6,27,5,26,5c-0.8,0-1.5,0.6-1.5,1.5c0,0.8,0.6,1.5,1.5,1.5
		c0.4,0,1.3,0.2,2.4,0.6c-2.9,1.8-5.5,3.8-8,6c0-0.2-0.1-0.3-0.1-0.5c-0.1-0.8-0.8-1.4-1.6-1.3c-0.8,0.1-1.4,0.8-1.3,1.6
		c0.1,0.8,0.3,1.5,0.7,2.3c-1.3,1.2-2.6,2.5-3.9,3.8c-1.4,1.4-2.7,2.9-3.9,4.5c-3.7,0.2-7.1,1-9.1,2.4c-0.7,0.5-0.8,1.4-0.4,2
		S2.1,30.1,2.8,29.6z M43.1,6c-1.1,2.3-3.3,4.9-4.4,6.3c0,0.1-0.1,0.1-0.1,0.2c-0.1-0.2-0.2-0.3-0.3-0.5c-1-1.3-2.3-2.4-3.6-3.4
		C37.4,7.3,40.2,6.5,43.1,6z M72.2,51.9l-1.5,1.5c-0.6,0.6-0.6,1.5,0,2.1c0.3,0.3,0.7,0.4,1,0.4c0.4,0,0.7-0.1,1-0.4l1.5-1.5
		c0.6-0.6,0.6-1.5,0-2.1C73.7,51.3,72.8,51.3,72.2,51.9z M15.1,77.9c0.7-2.1,1.6-3.8,2.7-5c0.5-0.6,0.5-1.5-0.1-2
		c-0.6-0.5-1.5-0.5-2,0.1c-0.9,1-1.7,2.2-2.3,3.5c-0.8-1.6-1.7-3.3-2.6-4.9c-2.4-4.3-4.8-8.7-6-13.4c0.5-1.6,1-2.9,1.7-4.1
		c0,0,0.1,0.1,0.1,0.1c2.1,2.1,6.5,6.6,6.5,9.9c0,0.8,0.6,1.5,1.5,1.5c0.8,0,1.5-0.6,1.5-1.5c0-4.5-4.7-9.4-7.3-12
		c-0.2-0.2-0.4-0.4-0.5-0.5c2.1-2.6,4.9-4.2,7.9-6.1c0.5-0.3,1.1-0.6,1.6-1c0.7-0.4,0.9-1.3,0.5-2c-0.4-0.7-1.3-0.9-2-0.5
		c-0.5,0.3-1.1,0.6-1.6,1c-3.4,2.1-6.8,4.1-9.3,7.7c0,0,0,0,0,0c0,0,0,0,0,0c-0.4,0.5-0.7,1.1-1.1,1.7c0-0.1,0-0.2,0-0.3
		c0-1.6,0.1-3.2,0.4-4.8C4.4,44.7,3.8,44,3,43.9c-0.8-0.1-1.5,0.4-1.6,1.2C1.1,46.9,1,48.7,1,50.4c0,2,0.3,4,0.7,5.9
		c-0.7,2.5-1.1,5.5-1.2,9.1c0,0.8,0.6,1.5,1.4,1.5c0,0,0,0,0.1,0c0.8,0,1.4-0.6,1.4-1.4c0-1.2,0.1-2.3,0.2-3.4c1.3,3.1,3,6.1,4.6,9
		c1.1,2,2.2,4,3.1,5.9c0.2,0.4,0.4,0.8,0.6,1.3c-1.1,3.8-1.2,7.6-0.4,9.1c0.3,0.5,0.8,0.8,1.3,0.8c0.2,0,0.5-0.1,0.7-0.2
		c0.7-0.4,1-1.3,0.6-2c-0.2-0.4-0.3-1.8,0-4.1c1.1,1.6,2.3,3.1,3.6,4.5c0.3,0.3,0.7,0.5,1.1,0.5c0.4,0,0.7-0.1,1-0.4
		c0.6-0.6,0.6-1.5,0.1-2.1C18,82.4,16.5,80.3,15.1,77.9z M32.6,72.4c2,2.5,4.3,5.3,8.6,7.3c0.2,0.1,0.4,0.1,0.6,0.1
		c0.5,0,1.1-0.3,1.3-0.8c0.3-0.7,0-1.6-0.7-1.9c-2.4-1.1-4.1-2.6-5.5-4.1c0.3-0.1,0.6-0.2,1-0.2c3.1-0.8,7-1.8,8.7,0.2
		c0.3,0.3,0.7,0.5,1.1,0.5c0.3,0,0.7-0.1,0.9-0.3c0.6-0.5,0.7-1.4,0.2-2c-2.9-3.5-7.9-2.1-11.7-1.2c-0.9,0.2-1.7,0.4-2.4,0.6
		c-2.8-3.4-5.7-6.8-13.1-7.3c-0.8-0.1-1.5,0.5-1.5,1.3c-0.1,0.8,0.5,1.5,1.3,1.5C27.6,66.4,29.8,69.1,32.6,72.4z M99.3,57
		c-0.4-0.7-1.3-0.9-2-0.5c-0.2,0.1-0.7,0.4-1.3,0.8c0.3-2.2,0.4-4.5,0.4-6.8c0-2.1-0.1-4.1-0.3-6.1c1.1-2,1.8-4.2,1.5-6.7
		c-0.1-0.8-0.8-1.4-1.6-1.2c-0.5,0.1-0.9,0.4-1.1,0.8c-0.2-0.8-0.4-1.6-0.6-2.4c-0.2-0.8-1-1.2-1.8-1c-0.8,0.2-1.2,1-1,1.8
		c0.8,2.6,1.3,5.3,1.7,8.1c-0.7,1.1-1.5,2.2-2.3,3.3c0,0-0.1,0.1-0.1,0.1c-0.2-0.3-0.5-0.6-0.8-0.9c-2.3-2.8-6.1-7.6-4.7-11.3
		c0.3-0.7-0.1-1.6-0.8-1.9c-0.7-0.3-1.6,0.1-1.9,0.8c-2,5.2,2.5,10.8,5.1,14.1c0.4,0.5,0.9,1.2,1.2,1.6c-1.2,1.8-2.3,3.7-2.8,5.9
		c-0.2,0.8,0.3,1.6,1.1,1.7c0.1,0,0.2,0,0.3,0c0.7,0,1.3-0.5,1.4-1.1c0.6-2.7,2.4-5.1,4.2-7.4c0.1-0.2,0.3-0.3,0.4-0.5
		c0,0.7,0,1.4,0,2.2c0,3.1-0.2,6.1-0.7,8.9c-2.5,1.7-5.3,3.7-6,4.8c-0.4,0.7-0.2,1.6,0.4,2c0.2,0.2,0.5,0.2,0.8,0.2
		c0.5,0,0.9-0.2,1.2-0.7c0.2-0.3,1.2-1.1,2.6-2.2c-0.7,2.7-1.7,5.2-3,7.6c-0.6,1.2-1.3,2.3-2,3.4c-2.4,0.7-4.6,0.7-6.7,0
		c-3.2-1-6-3.5-8.3-6.2c3-0.7,6.2-1.1,9.3-1.4c0.8-0.1,1.4-0.8,1.3-1.6c-0.1-0.8-0.8-1.4-1.6-1.3c-9,0.9-18.7,2.7-23.1,9.2
		c-0.4,0.7-0.3,1.6,0.4,2c0.2,0.2,0.5,0.2,0.8,0.2c0.5,0,0.9-0.2,1.2-0.6c1.8-2.7,4.9-4.5,8.6-5.7c2.8,3.3,6.1,6.7,10.5,8.1
		c1.4,0.4,2.7,0.6,4.1,0.6c0.3,0,0.5,0,0.8,0c-2.7,3-6,5.4-9.8,7.4c-0.9,0.5-1.8,0.9-2.7,1.4c-2.4-0.6-5.1-2-7.1-3.2
		c1.2-0.4,2.4-0.8,3.7-1.4c0.7-0.3,1.1-1.2,0.7-1.9c-0.3-0.7-1.2-1.1-1.9-0.7c-4,1.8-7.7,2.4-10.8,2.8c-2.7,0.4-5,0.7-6.7,1.8
		c-0.7,0.4-0.9,1.3-0.4,2c0.3,0.4,0.7,0.7,1.2,0.7c0.3,0,0.5-0.1,0.8-0.2c1.2-0.8,3.1-1,5.6-1.4c1.2-0.2,2.6-0.4,4-0.7
		c0.9,0.6,2.8,1.8,5.1,3c0.9,0.4,1.7,0.8,2.5,1.1C62,92,55.6,95.2,48.7,95.2c-5.9,0-11.2-0.9-15.9-2.5c0.2-1.2,0.3-2.5,0.3-3.8
		c0.6-0.1,1.3-0.3,2.1-0.5c2.2-0.5,4.9-1.2,7.1-0.4c0.8,0.3,1.6-0.1,1.8-0.9c0.3-0.8-0.1-1.6-0.9-1.8c-3-1-6.3-0.2-8.7,0.3
		c-0.6,0.1-1.3,0.3-1.8,0.4c-0.3-1.3-0.7-2.5-1.2-3.8c-1.8-4-4.6-7-5.7-7.8c-0.6-0.5-1.5-0.4-2,0.3c-0.5,0.6-0.4,1.5,0.3,2
		c0.4,0.3,3.1,2.9,4.8,6.7c0.6,1.4,1,2.8,1.2,4.1c0,0.1,0,0.2,0,0.2c0.2,1.3,0.2,2.5,0,3.8c-1.9-0.9-3.7-1.9-5.3-3
		c-0.7-0.5-1.6-0.3-2,0.4c-0.5,0.7-0.3,1.6,0.4,2c2,1.4,4,2.5,6.3,3.5c-0.3,0.8-0.7,1.7-1.2,2.5c-0.4,0.7-0.2,1.6,0.5,2
		C29,99,29.2,99,29.5,99c0.5,0,1-0.3,1.3-0.7c0.5-0.9,1-1.9,1.3-2.9c5,1.8,10.5,2.6,16.7,2.6c8.4,0,16.2-4.3,23-8.1
		c0.1-0.1,0.3-0.1,0.4-0.2c0.8,0.1,1.5,0.2,2.1,0.2c0.7,0,1.4-0.1,2-0.2c0.8-0.2,1.2-1,1-1.8c-0.1-0.3-0.3-0.6-0.5-0.8
		c4.8-2.7,8.8-6.2,11.8-10.4c2.2-0.8,4.4-2,6.7-3.8c0.6-0.5,0.8-1.4,0.3-2c-0.5-0.6-1.4-0.8-2-0.3c-0.7,0.5-1.4,1-2.1,1.4
		c1.8-3.4,3.1-7.1,3.9-11.2c1.1-0.7,2.3-1.5,3.4-2.1C99.5,58.5,99.7,57.6,99.3,57z M10.3,35.5c-0.6,0.6-0.6,1.5,0,2.1
		c0.3,0.3,0.7,0.4,1,0.4c0.4,0,0.7-0.1,1-0.4c0.8-0.8,2.6-1.2,3.6-1c0.8,0.1,1.5-0.4,1.7-1.2c0.1-0.8-0.4-1.5-1.2-1.7
		C14.7,33.4,12,33.9,10.3,35.5z M37.4,63.3c0.3,0.3,0.7,0.4,1,0.4c0.4,0,0.7-0.1,1-0.4c0.6-0.6,0.6-1.5,0-2.1
		c-1.4-1.5-4.6-9-2.8-13.4c1.1-2.7,1.5-7.5,1.1-12.4c-0.2-2.6-0.9-8.8-3.5-11.6c-0.5-0.6-1.5-0.6-2-0.1c-0.6,0.5-0.6,1.5-0.1,2
		c1.3,1.5,2.4,5.3,2.8,9.9c0.2,2.4,0.2,4.8,0,6.8c-2.7-4.7-6.9-6.5-9.3-7.5c-0.6-0.2-1.1-0.5-1.4-0.6c-0.7-0.4-1.6-0.1-2,0.6
		c-0.4,0.7-0.1,1.6,0.6,2c0.5,0.3,1,0.5,1.7,0.8c3,1.3,7.4,3.2,9.4,9.6C31.9,53,35.3,61.1,37.4,63.3z M24.8,48.4c-2,0.6-5.5,4-6,5.4
		c-0.3,0.7,0.1,1.6,0.8,1.9c0.2,0.1,0.4,0.1,0.5,0.1c0.6,0,1.1-0.3,1.3-0.9c0.4-0.8,3.2-3.4,4.2-3.7c0.8-0.2,1.2-1,1-1.8
		C26.4,48.6,25.6,48.1,24.8,48.4z M58,50.2c1,1,2.3,1.5,3.6,1.5c1.3,0,2.6-0.5,3.6-1.5l1.9-1.9c0.5-0.5,0.7-1.1,0.7-1.7
		c0-0.7-0.3-1.3-0.7-1.7l-3.7-3.7c-0.5-0.5-1.1-0.7-1.7-0.7c-0.7,0-1.3,0.3-1.7,0.7L58,43C56,45,56,48.2,58,50.2L58,50.2z M60.1,45
		l1.5-1.5l3.1,3.1l-1.5,1.5c-0.8,0.8-2.2,0.8-3.1,0C59.2,47.3,59.2,45.9,60.1,45z"/>
	<path class="st0" d="M29.5,99.5c-0.3,0-0.7-0.1-1-0.3c-0.9-0.5-1.3-1.7-0.7-2.7c0.4-0.6,0.7-1.3,1-2c-2.1-0.9-4.1-2.1-5.9-3.3
		c-0.4-0.3-0.7-0.7-0.8-1.3c-0.1-0.5,0-1,0.3-1.5c0.3-0.4,0.7-0.7,1.3-0.8c0.5-0.1,1,0,1.5,0.3c1.4,1,3,1.9,4.6,2.7
		c0.1-1,0.1-2-0.1-3c0-0.1,0-0.2,0-0.3c-0.2-1.3-0.6-2.6-1.2-4c-1.6-3.7-4.2-6.2-4.6-6.5c-0.9-0.7-1-1.9-0.4-2.7
		c0.7-0.9,1.9-1,2.7-0.4c1.1,0.9,4,3.9,5.8,8c0.5,1.1,0.9,2.3,1.2,3.4c0.4-0.1,0.9-0.2,1.3-0.3c2.5-0.6,5.9-1.4,9-0.3
		c1,0.4,1.6,1.5,1.2,2.5c-0.2,0.5-0.5,0.9-1,1.1c-0.5,0.2-1,0.3-1.5,0.1c-2.1-0.7-4.7-0.1-6.8,0.4c-0.6,0.2-1.2,0.3-1.7,0.4
		c0,1-0.1,2-0.2,3c4.6,1.6,9.7,2.4,15.3,2.4c6.5,0,12.6-2.9,18.4-6c-0.5-0.2-1-0.5-1.6-0.7c-2.2-1.1-4-2.2-5-2.9
		c-1.4,0.3-2.7,0.5-3.8,0.6c-2.4,0.3-4.3,0.6-5.4,1.3c-0.9,0.6-2.1,0.3-2.7-0.6c-0.3-0.4-0.4-1-0.3-1.5c0.1-0.5,0.4-0.9,0.9-1.2
		c1.8-1.1,4.2-1.5,6.9-1.9c3-0.4,6.7-1,10.6-2.8c1-0.4,2.1,0,2.6,1c0.2,0.5,0.2,1,0,1.5c-0.2,0.5-0.5,0.9-1,1.1
		c-0.9,0.4-1.7,0.7-2.7,1.1c1.7,0.9,3.8,2,5.9,2.5c0.8-0.5,1.7-0.9,2.5-1.3c3.4-1.8,6.3-3.9,8.8-6.5c-1.3,0-2.6-0.3-3.9-0.7
		c-4.5-1.4-8-5-10.5-8c-3.8,1.3-6.4,3.1-8,5.4c-0.6,0.9-1.8,1.1-2.7,0.5c-0.4-0.3-0.7-0.7-0.8-1.2c-0.1-0.5,0-1,0.3-1.5
		c4.5-6.7,14.4-8.6,23.5-9.5c0.5,0,1,0.1,1.4,0.4c0.4,0.3,0.7,0.8,0.7,1.3c0.1,1.1-0.7,2-1.7,2.1c-3.4,0.3-6.1,0.7-8.4,1.2
		c1.8,2,4.4,4.4,7.5,5.4c2,0.6,4.1,0.6,6.3,0c0.7-1,1.3-2.1,1.9-3.2c1-1.9,1.8-3.9,2.5-6c-0.8,0.6-1.2,1-1.3,1.1
		c-0.6,0.9-1.8,1.1-2.7,0.6c-0.9-0.6-1.2-1.8-0.6-2.7c0.6-0.9,2.6-2.5,5.9-4.8c0.5-2.7,0.7-5.7,0.7-8.7c0-0.2,0-0.5,0-0.7
		c-1.6,2.1-3.1,4.3-3.6,6.6c-0.2,1-1.3,1.7-2.3,1.5c-1-0.2-1.7-1.3-1.5-2.3c0.4-1.9,1.3-3.7,2.7-5.8c-0.3-0.4-0.7-0.9-1-1.3
		c-2.7-3.4-7.3-9.1-5.2-14.6c0.2-0.5,0.5-0.9,1-1.1c0.5-0.2,1-0.2,1.5,0c0.5,0.2,0.9,0.5,1.1,1c0.2,0.5,0.2,1,0,1.5
		c-1.3,3.4,2.4,8,4.6,10.8c0.1,0.2,0.2,0.3,0.4,0.4c0.7-0.9,1.4-1.8,1.9-2.8c-0.3-2.7-0.9-5.4-1.6-7.9c-0.1-0.5-0.1-1,0.2-1.5
		c0.2-0.5,0.7-0.8,1.2-0.9c0.5-0.1,1-0.1,1.5,0.2c0.5,0.2,0.8,0.7,0.9,1.2c0.2,0.5,0.3,1,0.4,1.6c0.2-0.1,0.5-0.2,0.8-0.3
		c0.5-0.1,1,0.1,1.4,0.4c0.4,0.3,0.7,0.8,0.7,1.3c0.3,2.3-0.2,4.4-1.5,6.9c0.2,2,0.3,4,0.3,6c0,2-0.1,4-0.3,5.9
		c0.2-0.1,0.3-0.2,0.4-0.3c0.9-0.5,2.1-0.2,2.7,0.7l0,0c0.5,0.9,0.2,2.1-0.7,2.7c-1,0.6-2,1.2-3.2,2c-0.7,3.4-1.7,6.5-3,9.5
		c0.2-0.1,0.4-0.3,0.5-0.4c0.9-0.6,2.1-0.5,2.7,0.4c0.3,0.4,0.4,0.9,0.4,1.4c-0.1,0.5-0.3,1-0.8,1.3c-2.3,1.7-4.6,3-6.7,3.8
		c-3,4-6.8,7.4-11.4,10.1c0.1,0.2,0.2,0.3,0.2,0.5c0.1,0.5,0.1,1-0.2,1.5c-0.3,0.4-0.7,0.8-1.2,0.9c-1.2,0.3-2.6,0.3-4.2,0.1
		L72,90.5c-6.9,3.8-14.8,8.1-23.3,8.1c-6,0-11.5-0.8-16.4-2.5c-0.3,0.8-0.7,1.7-1.2,2.5C30.8,99.2,30.1,99.5,29.5,99.5z M23.9,88.8
		c-0.1,0-0.1,0-0.2,0c-0.3,0-0.5,0.2-0.6,0.4c-0.1,0.2-0.2,0.5-0.2,0.7c0,0.3,0.2,0.5,0.4,0.6c1.9,1.3,4,2.5,6.2,3.4l0.4,0.2
		l-0.2,0.4c-0.3,0.9-0.7,1.7-1.2,2.6c-0.3,0.5-0.1,1,0.4,1.3c0.4,0.3,1.1,0.1,1.3-0.4c0.5-0.9,1-1.8,1.3-2.8l0.2-0.5l0.5,0.2
		c4.9,1.7,10.5,2.6,16.5,2.6c8.2,0,16-4.3,22.8-8l0.6-0.3l0.2,0c1.5,0.3,2.8,0.3,3.9,0c0.2-0.1,0.5-0.2,0.6-0.4
		c0.1-0.2,0.2-0.5,0.1-0.7c0-0.2-0.2-0.4-0.3-0.5L76,87.2l0.6-0.4c4.7-2.7,8.7-6.1,11.7-10.2l0.1-0.1l0.1-0.1c2.1-0.8,4.3-2,6.6-3.7
		c0.2-0.2,0.3-0.4,0.4-0.6c0-0.3,0-0.5-0.2-0.7C95,71,94.4,70.9,94,71.2c-0.7,0.5-1.4,1-2.1,1.5l-1.5,1l0.8-1.6
		c1.7-3.3,3-7,3.8-11.1l0-0.2l0.2-0.1c1.2-0.8,2.3-1.5,3.4-2.1c0.5-0.3,0.6-0.9,0.3-1.3c-0.3-0.5-0.9-0.6-1.3-0.3
		c-0.2,0.1-0.7,0.4-1.3,0.8l-0.9,0.5l0.1-1c0.3-2.2,0.4-4.5,0.4-6.8c0-2-0.1-4.1-0.3-6l0-0.2l0.1-0.1c1.3-2.3,1.7-4.3,1.4-6.4
		c0-0.3-0.2-0.5-0.4-0.6c-0.2-0.2-0.5-0.2-0.7-0.2c-0.3,0-0.6,0.2-0.7,0.5l-0.6,1.2l-0.3-1.3c-0.2-0.8-0.4-1.6-0.6-2.4
		c-0.1-0.2-0.2-0.4-0.5-0.6c-0.2-0.1-0.5-0.1-0.7-0.1c-0.2,0.1-0.4,0.2-0.6,0.5c-0.1,0.2-0.1,0.5-0.1,0.7c0.8,2.6,1.3,5.4,1.7,8.2
		l0,0.2l-0.1,0.1c-0.7,1.1-1.5,2.2-2.4,3.4l-0.5,0.6l-0.4-0.5c-0.2-0.3-0.5-0.6-0.7-0.9c-2.4-2.9-6.3-7.8-4.8-11.8
		c0.1-0.2,0.1-0.5,0-0.7c-0.1-0.2-0.3-0.4-0.5-0.5c-0.2-0.1-0.5-0.1-0.7,0c-0.2,0.1-0.4,0.3-0.5,0.5c-1.9,5,2.5,10.4,5,13.6
		c0.4,0.5,0.9,1.2,1.3,1.6l0.2,0.3l-0.2,0.3c-1.5,2.2-2.3,3.9-2.8,5.8c-0.1,0.5,0.2,1,0.7,1.1c0.5,0.1,1-0.2,1.1-0.7
		c0.6-2.8,2.5-5.2,4.3-7.6l1.2-1.6l0.1,1.4c0,0.7,0,1.5,0,2.2c0,3.1-0.2,6.2-0.7,9l0,0.2l-0.2,0.1c-3.2,2.2-5.3,3.8-5.8,4.6
		c-0.1,0.2-0.2,0.5-0.1,0.7c0.1,0.3,0.2,0.5,0.4,0.6c0.4,0.3,1,0.1,1.3-0.3c0.3-0.5,1.7-1.5,2.7-2.3l1.1-0.8l-0.4,1.4
		c-0.8,2.7-1.8,5.3-3,7.7c-0.6,1.2-1.3,2.3-2.1,3.4l-0.1,0.1L87,74.9c-2.5,0.7-4.8,0.7-7,0c-3.7-1.2-6.6-4.2-8.5-6.3L70.9,68
		l0.8-0.2c2.6-0.6,5.5-1.1,9.4-1.4c0.5-0.1,0.9-0.5,0.9-1c0-0.3-0.1-0.5-0.3-0.6c-0.2-0.2-0.4-0.2-0.7-0.2c-8.8,0.9-18.5,2.7-22.7,9
		c-0.1,0.2-0.2,0.5-0.1,0.7c0.1,0.2,0.2,0.5,0.4,0.6c0.4,0.3,1,0.2,1.3-0.3c1.7-2.6,4.6-4.5,8.8-5.9l0.3-0.1l0.2,0.3
		c2.5,2.9,5.9,6.5,10.2,7.9c1.5,0.5,3.1,0.7,4.7,0.6l1.2-0.1l-0.8,0.9c-2.7,3-6.1,5.5-9.9,7.6c-0.9,0.5-1.8,0.9-2.6,1.4l-0.2,0.1
		l-0.2-0.1c-2.6-0.7-5.4-2.1-7.3-3.2l-1-0.6l1.1-0.3c1.3-0.4,2.5-0.8,3.6-1.4c0.5-0.2,0.7-0.8,0.5-1.3c-0.2-0.5-0.8-0.7-1.3-0.5
		c-4.1,1.8-7.8,2.4-10.9,2.8c-2.6,0.4-4.9,0.7-6.5,1.7c-0.2,0.1-0.4,0.3-0.4,0.6c-0.1,0.2,0,0.5,0.1,0.7c0.3,0.4,0.9,0.6,1.3,0.3
		c1.3-0.8,3.3-1.1,5.8-1.5c1.2-0.2,2.5-0.4,3.9-0.7l0.2,0l0.2,0.1c0.9,0.6,2.8,1.8,5,2.9c0.8,0.4,1.7,0.8,2.5,1.1l1,0.4l-0.9,0.5
		c-6.2,3.3-12.7,6.6-19.8,6.6c-5.9,0-11.3-0.9-16.1-2.6L32.3,93l0.1-0.4c0.2-1.2,0.3-2.4,0.3-3.7l0-0.4l0.4-0.1
		c0.6-0.1,1.3-0.3,2.1-0.4c2.2-0.5,5-1.2,7.4-0.4c0.2,0.1,0.5,0.1,0.7,0c0.2-0.1,0.4-0.3,0.5-0.5c0.2-0.5-0.1-1-0.6-1.2
		c-2.9-1-6.1-0.2-8.4,0.4c-0.6,0.1-1.3,0.3-1.8,0.4l-0.5,0.1l-0.1-0.5c-0.3-1.2-0.7-2.5-1.2-3.7c-1.7-3.9-4.4-6.8-5.5-7.6
		c-0.4-0.3-1-0.2-1.3,0.2c-0.3,0.4-0.2,1,0.2,1.3c0.5,0.4,3.2,3,4.9,6.9c0.6,1.4,1,2.9,1.3,4.3c0,0.1,0,0.1,0,0.2
		c0.2,1.4,0.2,2.7,0,4l-0.1,0.7L29.9,92c-1.9-0.9-3.7-1.9-5.4-3.1C24.3,88.8,24.1,88.8,23.9,88.8z M12.9,88.6c-0.7,0-1.4-0.4-1.7-1
		c-0.9-1.6-0.8-5.4,0.3-9.3c-0.2-0.4-0.4-0.7-0.6-1.1c-0.9-1.9-2-3.8-3.1-5.9C6.5,68.9,5.1,66.5,4,64c0,0.5-0.1,1-0.1,1.4
		c0,1.1-0.9,1.9-1.9,1.9c-1.1,0-2-0.9-1.9-2c0.1-3.5,0.5-6.4,1.2-9.1c-0.5-2-0.7-3.9-0.7-5.9c0-1.8,0.1-3.5,0.4-5.3
		c0.1-0.5,0.3-1,0.8-1.3c0.4-0.3,0.9-0.4,1.4-0.4c1.1,0.2,1.8,1.1,1.6,2.2c-0.2,1.1-0.3,2.2-0.3,3.3c0.1-0.1,0.1-0.1,0.2-0.2
		l0.1-0.1c2.6-3.6,5.9-5.7,9.5-7.8l0.1-0.1c0.5-0.3,1-0.6,1.4-0.9c0.9-0.6,2.1-0.3,2.7,0.6c0.3,0.4,0.4,1,0.2,1.5
		c-0.1,0.5-0.4,0.9-0.9,1.2c-0.5,0.3-1.1,0.7-1.6,1c-2.9,1.8-5.4,3.3-7.5,5.6l0.2,0.2c2.6,2.7,7.5,7.6,7.5,12.3
		c0,1.1-0.9,1.9-1.9,1.9c-1.1,0-1.9-0.9-1.9-1.9c0-3-3.8-7-6-9.2c-0.5,1-0.9,2-1.3,3.2c1.2,4.6,3.6,8.9,6,13.2
		c0.7,1.3,1.5,2.7,2.2,4c0.6-1.1,1.2-2,1.9-2.8c0.7-0.8,2-0.9,2.7-0.1c0.8,0.7,0.9,2,0.1,2.7c-1,1.1-1.8,2.7-2.5,4.6
		c1.3,2.3,2.8,4.3,4.5,6.1c0.7,0.8,0.7,2-0.1,2.8c-0.8,0.7-2,0.7-2.8-0.1c-1-1.1-2-2.2-2.9-3.5c-0.1,1.5,0,2.4,0.1,2.5
		c0.5,0.9,0.2,2.1-0.8,2.6C13.5,88.5,13.2,88.6,12.9,88.6z M3.3,60l0.8,1.8c1.3,3.1,3,6.1,4.6,9c1.1,2.1,2.2,4,3.1,5.9
		c0.2,0.4,0.4,0.8,0.6,1.2l0.1,0.2l-0.1,0.2c-1,3.6-1.2,7.3-0.4,8.7c0.2,0.4,0.8,0.6,1.3,0.4c0.5-0.3,0.6-0.8,0.4-1.3
		c-0.3-0.5-0.4-2.1,0-4.4l0.2-1.2l0.7,1c1.1,1.6,2.3,3.1,3.5,4.4c0.4,0.4,1,0.4,1.4,0c0.4-0.4,0.4-1,0-1.4c-1.8-1.9-3.4-4.1-4.8-6.5
		L14.6,78l0.1-0.2c0.7-2.2,1.7-3.9,2.8-5.2c0.4-0.4,0.3-1-0.1-1.3c-0.4-0.4-1-0.3-1.3,0.1c-0.8,0.9-1.6,2.1-2.2,3.4l-0.4,0.9
		l-0.5-0.9c-0.8-1.6-1.7-3.3-2.6-4.9c-2.4-4.3-4.9-8.8-6.1-13.5l0-0.1l0-0.1c0.5-1.5,1-2.9,1.7-4.2l0.3-0.6L6.8,52
		c2.1,2.2,6.6,6.7,6.6,10.3c0,0.5,0.4,1,1,1c0.5,0,1-0.4,1-1c0-4.3-4.6-9.1-7.1-11.6l-0.8-0.9l0.3-0.3c2.2-2.6,5-4.4,8-6.2
		c0.5-0.3,1.1-0.6,1.6-1c0.2-0.1,0.4-0.3,0.4-0.6c0.1-0.2,0-0.5-0.1-0.7c-0.1-0.2-0.3-0.4-0.6-0.4c-0.2-0.1-0.5,0-0.7,0.1
		c-0.5,0.3-1,0.6-1.4,0.9l-0.1,0.1c-3.5,2.1-6.7,4.1-9.2,7.5c-0.4,0.6-0.8,1.2-1.1,1.7l-0.9,1.6l0-2.1c0-1.6,0.1-3.3,0.4-4.9
		c0.1-0.5-0.3-1-0.8-1.1c-0.3,0-0.5,0-0.7,0.2c-0.2,0.2-0.3,0.4-0.4,0.6c-0.3,1.7-0.4,3.5-0.4,5.2c0,1.9,0.2,3.8,0.7,5.8l0,0.1
		l0,0.1c-0.7,2.6-1.1,5.5-1.2,9c0,0.3,0.1,0.5,0.3,0.7c0.2,0.2,0.4,0.3,0.7,0.3c0,0,0,0,0,0c0.6,0,1-0.4,1-0.9
		c0-1.2,0.1-2.3,0.2-3.4L3.3,60z M41.8,80.3c-0.3,0-0.6-0.1-0.8-0.2c-4.3-2.1-6.7-4.9-8.7-7.4h0c-2.8-3.4-4.8-5.8-10.8-6.2
		c-1.1-0.1-1.9-1-1.8-2.1c0-0.5,0.3-1,0.7-1.3c0.4-0.3,0.9-0.5,1.4-0.5c7.5,0.5,10.6,4.1,13.3,7.3c0.6-0.1,1.3-0.3,2.1-0.5
		c3.8-1,9.1-2.4,12.2,1.3c0.3,0.4,0.5,0.9,0.4,1.4c0,0.5-0.3,1-0.7,1.3c-0.8,0.7-2.1,0.5-2.7-0.3c-1.5-1.8-5.2-0.8-8.2-0.1l-0.1,0
		c1.5,1.5,3,2.6,4.8,3.4c0.5,0.2,0.8,0.6,1,1.1c0.2,0.5,0.1,1-0.1,1.5C43.2,79.9,42.5,80.3,41.8,80.3z M33,72.1
		c2,2.4,4.3,5.2,8.4,7.1c0.5,0.2,1.1,0,1.3-0.5c0.1-0.2,0.1-0.5,0-0.7c-0.1-0.2-0.3-0.4-0.5-0.5c-2.1-1-3.9-2.3-5.7-4.2l-0.6-0.6
		l1.8-0.5c3.3-0.9,7.3-1.9,9.2,0.4c0.3,0.4,1,0.4,1.3,0.1c0.2-0.2,0.3-0.4,0.3-0.6c0-0.3-0.1-0.5-0.2-0.7c-2.7-3.2-7.6-1.9-11.1-1
		c-0.8,0.2-1.7,0.5-2.4,0.6l-0.3,0l-0.2-0.2c-2.7-3.3-5.5-6.7-12.8-7.2c-0.5,0-1,0.4-1,0.9c0,0.5,0.4,1,0.9,1
		C27.9,65.9,30.1,68.7,33,72.1l-0.4,0.3L33,72.1z M54.1,65.7c-0.5,0-0.9-0.2-1.3-0.5c-3.5-3.1-4.6-6.4-5.5-9
		c-0.9-2.7-1.5-4.4-4.1-5.7c-1-0.5-1.4-1.6-0.9-2.6c0.2-0.5,0.6-0.8,1.1-1c0.5-0.2,1-0.1,1.5,0.1c3.6,1.7,4.8,4.3,5.7,6.7
		c0.9,0.1,2.4,0.1,4.2-0.3c1.1-0.2,2.1,0.4,2.3,1.5c0.1,0.5,0,1-0.3,1.5c-0.3,0.4-0.7,0.7-1.2,0.8c-1.2,0.3-2.4,0.4-3.5,0.4
		c0.6,1.4,1.6,3,3.4,4.6c0.8,0.7,0.9,1.9,0.2,2.7C55.2,65.5,54.7,65.7,54.1,65.7z M44,47.8c-0.1,0-0.2,0-0.3,0.1
		c-0.2,0.1-0.4,0.3-0.5,0.5c-0.2,0.5,0,1,0.4,1.3c3,1.4,3.7,3.6,4.6,6.3c0.8,2.5,1.9,5.6,5.2,8.6c0.4,0.3,1,0.3,1.3-0.1
		c0.3-0.4,0.3-1-0.1-1.3c-2.3-2-3.3-4.1-3.9-5.7l-0.3-0.7l1.1,0c1.1,0,2.4-0.1,3.7-0.4h0c0.2-0.1,0.5-0.2,0.6-0.4
		c0.1-0.2,0.2-0.5,0.1-0.7c-0.1-0.5-0.6-0.8-1.1-0.7c-2.1,0.5-3.9,0.4-4.8,0.3l-0.3-0.1l-0.1-0.3c-0.8-2.4-1.9-4.8-5.3-6.5
		C44.3,47.8,44.2,47.8,44,47.8z M38.4,64.3c-0.5,0-1-0.2-1.4-0.6h0c-2.3-2.4-5.6-10.6-3.7-16.4c-1.9-6.1-6.2-7.9-9-9.2
		c-0.7-0.3-1.2-0.5-1.7-0.8c-0.9-0.5-1.3-1.7-0.8-2.6c0.3-0.5,0.7-0.8,1.2-0.9c0.5-0.1,1-0.1,1.5,0.2c0.3,0.2,0.8,0.4,1.4,0.6
		c2.3,1,6,2.6,8.7,6.5c0.1-1.7,0.1-3.5-0.1-5.3c-0.4-4.5-1.4-8.2-2.6-9.6c-0.7-0.8-0.7-2,0.1-2.7c0.4-0.3,0.9-0.5,1.4-0.5
		c0.5,0,1,0.3,1.3,0.6c2.7,2.9,3.4,9.3,3.6,11.9c0.4,5.1,0,9.9-1.2,12.7c-1.7,4.2,1.3,11.5,2.7,12.9c0.4,0.4,0.6,0.9,0.5,1.4
		c0,0.5-0.2,1-0.6,1.4C39.4,64.1,39,64.3,38.4,64.3z M37.8,63c0.4,0.4,1,0.4,1.4,0c0.2-0.2,0.3-0.4,0.3-0.7c0-0.3-0.1-0.5-0.3-0.7
		c-1.5-1.6-4.8-9.2-2.9-13.9c1.1-2.6,1.5-7.3,1.1-12.2c-0.2-2.5-0.9-8.6-3.4-11.3c-0.2-0.2-0.4-0.3-0.7-0.3c-0.3,0-0.5,0.1-0.7,0.2
		c-0.4,0.4-0.4,1-0.1,1.3c1.4,1.6,2.5,5.4,2.9,10.2c0.2,2.4,0.2,4.8,0,6.9l-0.1,1.5l-0.8-1.3c-2.7-4.6-6.7-6.3-9.1-7.3
		c-0.6-0.3-1.1-0.5-1.4-0.7c-0.2-0.1-0.5-0.2-0.7-0.1c-0.2,0.1-0.4,0.2-0.6,0.5c-0.1,0.2-0.2,0.5-0.1,0.7c0.1,0.2,0.2,0.4,0.5,0.6
		c0.4,0.2,1,0.5,1.6,0.7c3.1,1.3,7.7,3.3,9.7,10l0,0.2l-0.1,0.2C32.4,53,35.8,60.9,37.8,63L37.8,63z M71.7,56.3
		c-0.5,0-1-0.2-1.4-0.6c-0.8-0.8-0.8-2,0-2.8l1.5-1.5c0.8-0.8,2-0.8,2.8,0c0.8,0.8,0.8,2,0,2.8l-1.5,1.5
		C72.7,56.1,72.2,56.3,71.7,56.3z M72.6,52.2l-1.5,1.5c-0.4,0.4-0.4,1,0,1.4c0.4,0.4,1,0.4,1.4,0l1.5-1.5c0.4-0.4,0.4-1,0-1.4
		C73.5,51.8,72.9,51.8,72.6,52.2z M20.1,56.2c-0.2,0-0.5,0-0.7-0.1c-1-0.4-1.5-1.5-1.1-2.5c0.6-1.5,4.2-5,6.4-5.7l0,0
		c1-0.3,2.1,0.3,2.4,1.3c0.1,0.5,0.1,1-0.1,1.5c-0.2,0.5-0.7,0.8-1.2,0.9c-0.9,0.3-3.5,2.8-3.9,3.5C21.6,55.8,20.9,56.2,20.1,56.2z
		 M25.2,48.8c-0.1,0-0.2,0-0.3,0l0,0c-1.8,0.6-5.2,3.9-5.7,5.1c-0.2,0.5,0,1,0.5,1.2c0.5,0.2,1-0.1,1.2-0.5c0.5-1,3.3-3.6,4.5-4
		c0.2-0.1,0.4-0.2,0.6-0.5c0.1-0.2,0.1-0.5,0.1-0.7C26,49.1,25.7,48.8,25.2,48.8z M80,53.6c-0.1,0-0.2,0-0.3,0
		c-1.1-0.2-1.8-1.1-1.6-2.2c0.1-0.8-1.1-1.9-1.7-2.2c-0.9-0.2-1.5-0.9-1.5-1.8c0-1.1,0.8-2,1.9-2c0,0,0,0,0,0c1.4,0,2.9,1.3,3.6,2.1
		c1.2,1.4,1.8,2.9,1.6,4.4C81.8,52.9,81,53.6,80,53.6z M76.8,46.4c-0.6,0-1,0.5-1,1c0,0.4,0.3,0.8,0.8,0.9l0.1,0
		c0.6,0.3,2.5,1.7,2.3,3.2c-0.1,0.5,0.3,1,0.8,1.1l0,0c0.5,0.1,1-0.3,1.1-0.8c0.2-1.2-0.3-2.5-1.3-3.6
		C78.9,47.3,77.6,46.4,76.8,46.4z M61.6,52.1c-1.5,0-2.9-0.6-3.9-1.6c-2.2-2.2-2.2-5.7,0-7.9l1.9-1.9c1.1-1.1,3-1.1,4.1,0l3.7,3.7
		c0.6,0.6,0.9,1.3,0.9,2.1s-0.3,1.5-0.9,2.1l-1.9,1.9C64.5,51.6,63.1,52.1,61.6,52.1z M58.4,49.8c0.9,0.9,2,1.3,3.2,1.3
		c1.2,0,2.4-0.5,3.2-1.3l1.9-1.9c0.4-0.4,0.6-0.9,0.6-1.4s-0.2-1-0.6-1.4L63,41.5c-0.7-0.7-2-0.7-2.7,0l-1.9,1.9
		C56.6,45.1,56.6,48,58.4,49.8L58,50.2L58.4,49.8z M61.6,49.2c-0.7,0-1.4-0.3-1.9-0.8s-0.8-1.2-0.8-1.9s0.3-1.4,0.8-1.9l1.9-1.9
		l3.8,3.8l-1.9,1.9C63,49,62.3,49.2,61.6,49.2L61.6,49.2z M61.6,44.2l-1.2,1.2c-0.3,0.3-0.5,0.7-0.5,1.2s0.2,0.9,0.5,1.2
		c0.6,0.6,1.7,0.6,2.4,0l1.2-1.2L61.6,44.2z M73.5,41.2c-1,0-1.9-0.8-1.9-1.8c-0.3-4.2,1.3-9.1,4.6-13.8c-1.1-1.3-3.8-3.7-6.7-4.6
		c-0.5-0.2-0.9-0.5-1.1-1c-0.2-0.5-0.3-1-0.1-1.5c0.3-1,1.4-1.6,2.4-1.3c3,0.9,6.1,3.3,8,5.2c0.9-1,1.9-1.9,2.8-2.8
		c-1.2-1.1-2.4-2-3.7-2.8c-3.2-2-6.7-4.1-10.2-5.9c-2.3,1.1-4.4,3-6.2,4.8L61,16.1c-0.8,0.7-2,0.7-2.7-0.1c-0.7-0.8-0.7-2,0.1-2.8
		l0.4-0.3c1.3-1.2,2.8-2.6,4.6-3.9c-5.8-2.3-11.1-3.3-16.5-3c-1,3.1-3.7,6.2-5.4,8.3c-0.3,0.3-0.6,0.7-0.9,1
		c0.3,1.4,0.3,2.8-0.1,4.2c-0.3,1-1.4,1.6-2.4,1.3c-1-0.3-1.6-1.4-1.3-2.4c0.3-1,0.3-1.9-0.1-2.9c-0.2-0.6-0.5-1.2-1-1.8
		c-0.9-1.2-2.3-2.3-4-3.3c-0.2,0.1-0.4,0.2-0.6,0.3c-2.6,1.5-5.3,3.5-8.2,6c1,0.7,2.1,1.2,2.7,1.3c1.1,0.2,1.8,1.1,1.6,2.2
		c-0.2,1-1.1,1.8-2.2,1.6c-1.4-0.2-3.2-1.1-4.7-2.2c-0.1-0.1-0.3-0.2-0.4-0.3c-1,1-2.1,2-3.3,3.2c-0.5,0.5-1.1,1.1-1.6,1.7
		c3,0.3,5.6,1.1,7.6,2.3c0.9,0.5,1.2,1.7,0.7,2.7c-0.5,0.9-1.8,1.2-2.7,0.7c-2-1.2-5.1-1.8-8.6-1.9c-2.4,3.4-4.4,7.3-5.7,11.2
		c-0.3,1-1.4,1.6-2.5,1.2c-0.5-0.2-0.9-0.5-1.1-1s-0.3-1-0.1-1.5c1.1-3.3,2.6-6.5,4.5-9.5c-1.7,0.3-3.1,0.8-4,1.4l0,0
		c-0.4,0.3-0.9,0.4-1.5,0.3c-0.5-0.1-1-0.4-1.3-0.8c-0.6-0.9-0.4-2.1,0.5-2.7c2-1.4,5.3-2.3,9.1-2.5c1.2-1.6,2.5-3,3.8-4.3
		c1.4-1.4,2.5-2.5,3.6-3.5c-0.3-0.7-0.5-1.4-0.6-2.1c-0.1-1.1,0.7-2,1.7-2.1c0.9-0.1,1.8,0.5,2.1,1.4c2.3-1.9,4.4-3.5,6.5-4.9
		c-0.6-0.2-1.1-0.3-1.2-0.3c-1.1,0-1.9-0.9-1.9-1.9s0.9-1.9,1.9-1.9c1.2,0,3.5,0.7,5.6,1.7c3.7-1.9,7.5-3,11.4-3.6
		c-0.1-0.8,0.4-1.6,1.1-2c1-0.4,2.1,0,2.6,1c0.1,0.2,0.2,0.4,0.2,0.6c0.6,0,1.2,0,1.8,0c6.2,0,12.3,1.5,19,4.6
		c2.4-0.8,4.8-0.7,7.1,0.1c1,0.4,1.5,1.5,1.2,2.5c-0.2,0.5-0.6,0.9-1.1,1.1c1.8,1.1,3.6,2.1,5,3c1.7,1.1,3.4,2.3,4.9,3.8
		c2.1-1.3,4.2-2.1,6.1-2.3c1.1-0.1,2,0.6,2.2,1.7c0.1,1.1-0.6,2-1.7,2.2c-1.1,0.1-2.4,0.6-3.8,1.3c1.8,2.2,3.4,4.8,4.8,7.6
		c0.5,1,0,2.1-0.9,2.6c-1,0.5-2.1,0-2.6-0.9c-1.3-2.6-2.8-5-4.5-7c-1.3,1.1-2.5,2.3-3.6,3.7c-3.5,4.3-5.4,9.1-5.1,12.9
		c0.1,1.1-0.7,2-1.8,2.1L73.5,41.2z M70.1,18.2c-0.4,0-0.8,0.3-0.9,0.7c-0.1,0.2-0.1,0.5,0.1,0.7c0.1,0.2,0.3,0.4,0.6,0.5
		c3.2,1,6.2,3.7,7.4,5.2l0.2,0.3l-0.2,0.3c-3.3,4.6-5,9.4-4.7,13.5c0,0.5,0.5,0.9,1,0.9c0.6,0,1-0.5,1-1c-0.3-4,1.7-9.1,5.3-13.6
		c1.3-1.6,2.7-3,4.1-4.2l0.4-0.3l0.3,0.4c1.9,2.2,3.6,4.8,4.9,7.6c0.1,0.2,0.3,0.4,0.5,0.5c0.2,0.1,0.5,0.1,0.7,0
		c0.5-0.2,0.7-0.8,0.5-1.3c-1.4-2.9-3.1-5.6-5-7.9L85.9,20l0.5-0.3c1.7-1,3.3-1.6,4.7-1.8c0.5-0.1,0.9-0.5,0.8-1.1
		c-0.1-0.5-0.5-0.9-1.1-0.8c-1.8,0.2-3.9,1-6,2.4l-0.3,0.2l-0.3-0.3c-1.5-1.5-3.2-2.8-5-3.9c-1.9-1.2-4.5-2.8-7.1-4.2l-2.8-1.5
		l3.1,0.6c0.4,0.1,0.8,0.2,1.2,0.3c0.5,0.2,1-0.1,1.2-0.6c0.2-0.5-0.1-1-0.6-1.2c-2.2-0.8-4.4-0.8-6.6-0.1l-0.2,0.1l-0.2-0.1
		c-6.7-3.1-12.6-4.6-18.8-4.6c-0.7,0-1.4,0-2.2,0.1l-0.4,0l-0.1-0.4C46,2.5,45.9,2.3,45.8,2c-0.2-0.5-0.8-0.7-1.3-0.5
		C44,1.8,43.8,2.3,44,2.8l0.3,0.6l-0.7,0.1c-4.1,0.6-8,1.8-11.9,3.7l-0.2,0.1l-0.2-0.1c-2.3-1.1-4.4-1.7-5.4-1.7c-0.5,0-1,0.4-1,1
		s0.4,1,1,1c0.5,0,1.4,0.2,2.6,0.7l0.9,0.4L28.6,9c-2.6,1.6-5.2,3.5-7.9,5.9l-0.6,0.5l-0.2-0.7c-0.1-0.2-0.1-0.4-0.1-0.6
		c-0.1-0.5-0.5-0.9-1-0.9c-0.5,0.1-0.9,0.5-0.9,1c0.1,0.7,0.3,1.4,0.6,2.1l0.2,0.3L18.4,17c-1.2,1.1-2.4,2.3-3.9,3.7
		c-1.4,1.3-2.7,2.8-3.9,4.4l-0.1,0.2l-0.2,0c-3.7,0.2-7,1-8.9,2.3C1,27.9,0.9,28.5,1.2,29c0.1,0.2,0.4,0.4,0.6,0.4
		c0.3,0,0.5,0,0.7-0.2v0c1.2-0.8,3.1-1.4,5.5-1.7L9,27.3l-0.6,0.9c-2.1,3.3-3.8,6.7-4.9,10.2c-0.1,0.2-0.1,0.5,0.1,0.7
		c0.1,0.2,0.3,0.4,0.6,0.5c0.5,0.2,1-0.1,1.2-0.6c1.3-4,3.4-8.1,6-11.6l0.1-0.2l0.3,0c3.8,0,7.2,0.7,9.3,2c0.4,0.3,1.1,0.1,1.3-0.3
		c0.3-0.5,0.1-1-0.3-1.3c-2-1.2-4.8-2-8.1-2.2l-1-0.1l0.6-0.7c0.8-0.9,1.5-1.7,2.3-2.5c1.4-1.3,2.6-2.5,3.7-3.5l0.3-0.3l0.3,0.3
		c0.2,0.2,0.4,0.4,0.7,0.6c1.3,1,3,1.8,4.2,2c0.5,0.1,1-0.3,1.1-0.8c0.1-0.5-0.3-1-0.8-1.1c-0.9-0.1-2.4-0.8-3.7-1.9l-0.4-0.4
		l0.4-0.4c3.1-2.7,5.9-4.8,8.8-6.4c0.3-0.2,0.6-0.3,0.8-0.5l0.2-0.1l0.2,0.1c2,1.1,3.5,2.4,4.5,3.7c0.5,0.7,0.9,1.3,1.1,2
		c0.4,1.2,0.4,2.4,0.1,3.5c-0.1,0.2,0,0.5,0.1,0.7c0.1,0.2,0.3,0.4,0.6,0.5c0.5,0.1,1-0.2,1.2-0.7c0.4-1.3,0.4-2.6,0.1-3.9l-0.1-0.2
		l0.1-0.2c0.3-0.3,0.7-0.8,1-1.2c1.8-2.1,4.5-5.3,5.3-8.3L46,5.2l0.3,0c5.9-0.4,11.8,0.7,18.2,3.4l0.9,0.4l-0.8,0.5
		c-2,1.3-3.8,2.9-5.2,4.3L59,14c-0.4,0.4-0.4,1-0.1,1.4c0.3,0.4,1,0.4,1.3,0.1l0.4-0.3c2-1.8,4.2-3.9,6.7-5l0.2-0.1l0.2,0.1
		c3.7,1.8,7.2,4,10.5,6c1.5,0.9,3,2.1,4.3,3.3l0.4,0.4l-0.4,0.4c-1.2,1-2.4,2.2-3.5,3.5L78.7,24l-0.4-0.4c-1.7-1.9-4.8-4.4-7.9-5.3
		C70.3,18.2,70.2,18.2,70.1,18.2z M11.3,38.4c-0.5,0-1-0.2-1.4-0.6c-0.7-0.8-0.7-2,0.1-2.8h0c1.7-1.7,4.7-2.2,6.5-1.9
		c1.1,0.2,1.8,1.2,1.6,2.3c-0.2,1.1-1.2,1.8-2.3,1.6c-0.9-0.2-2.4,0.2-3.1,0.9C12.3,38.3,11.8,38.4,11.3,38.4z M10.7,35.8
		c-0.4,0.4-0.4,1,0,1.4c0.4,0.4,1,0.4,1.4,0c1-0.9,2.8-1.3,4-1.1c0.5,0.1,1-0.3,1.1-0.8c0.1-0.5-0.3-1-0.8-1.1
		C14.7,33.9,12.2,34.4,10.7,35.8L10.7,35.8z M53.8,38.4c-0.5,0-1-0.2-1.4-0.6c-0.4-0.4-0.6-0.9-0.6-1.4c0-0.5,0.2-1,0.6-1.4l1.5-1.5
		c0.8-0.8,2-0.8,2.8,0c0.8,0.8,0.8,2,0,2.8l-1.5,1.5C54.8,38.2,54.3,38.4,53.8,38.4z M54.6,34.3l-1.5,1.5c-0.2,0.2-0.3,0.4-0.3,0.7
		c0,0.3,0.1,0.5,0.3,0.7c0.4,0.4,1,0.4,1.4,0l1.5-1.5c0.4-0.4,0.4-1,0-1.4C55.6,33.9,55,33.9,54.6,34.3L54.6,34.3z M47.8,32
		c-0.5,0-1-0.2-1.4-0.6c-0.4-0.4-0.6-0.9-0.6-1.4c0-1.1,0.9-1.9,1.9-1.9c2.1,0,3.9-0.7,5.6-1.5c-0.9-0.5-1.8-1.2-2.6-2.1
		c-3.5-3.6-5-8.8-4.9-10.6c0.1-1.1,1-1.9,2.1-1.8h0c1.1,0.1,1.9,1,1.8,2.1c0,0.7,1.2,5,3.9,7.7c1.4,1.4,2.9,2.1,4.5,2.2
		c1.9-0.9,4.2-1.9,6.8-2c1.1-0.1,2,0.8,2,1.9c0.1,1.1-0.8,2-1.9,2c-2.6,0.1-4.9,1.4-7.4,2.7C54.8,30.4,51.7,32,47.8,32z M47.8,13.2
		c-0.5,0-0.9,0.4-1,0.9c-0.1,1.4,1.4,6.4,4.6,9.8c1,1,2.1,1.8,3.2,2.3l0.9,0.4l-0.9,0.5c-2,1-4.3,2-6.9,2c-0.5,0-1,0.4-1,1
		c0,0.5,0.4,1,1,1c3.7,0,6.7-1.6,9.5-3.1c2.6-1.4,5-2.7,7.8-2.8c0.5,0,0.9-0.5,0.9-1c0-0.5-0.4-0.9-1-0.9c-2.6,0.1-4.7,1.1-6.5,2
		l-0.1,0.1l-0.1,0c-1.9,0-3.7-0.9-5.3-2.5c-3-3-4.3-7.6-4.2-8.4C48.8,13.7,48.4,13.3,47.8,13.2C47.8,13.2,47.8,13.2,47.8,13.2z
		 M38.5,13.2l-0.4-0.5c-0.1-0.2-0.2-0.3-0.3-0.5C37,11.1,35.8,10,34.3,9l-0.7-0.5l0.8-0.4c2.8-1.2,5.7-2.1,8.7-2.6L44,5.4l-0.4,0.8
		c-1.1,2.3-3.3,4.9-4.5,6.4L38.5,13.2z M35.6,8.7c1.2,0.9,2.2,1.9,3,2.9c1-1.2,2.6-3.1,3.6-4.9C40,7.1,37.8,7.8,35.6,8.7z"/>
</g>
</svg>
