<?xml version="1.0" encoding="utf-8"?>
<!-- Generator: Adobe Illustrator 22.0.1, SVG Export Plug-In . SVG Version: 6.00 Build 0)  -->
<svg version="1.1" id="Layer_1" xmlns="http://www.w3.org/2000/svg" xmlns:xlink="http://www.w3.org/1999/xlink" x="0px" y="0px"
	 viewBox="0 0 100 100" style="enable-background:new 0 0 100 100;" xml:space="preserve">
<style type="text/css">
	.st0{fill:#ECEFF0;}
	.st1{fill:#DBDBDB;}
</style>
<g>
	<circle class="st0" cx="18.7" cy="62.4" r="2.6"/>
	<circle class="st0" cx="31.7" cy="62.4" r="2.6"/>
	<circle class="st0" cx="45.1" cy="62.4" r="2.6"/>
	<polygon class="st0" points="96.9,50.6 90.8,50.6 89.3,56.3 81.7,50.6 61.7,50.6 58.7,43.4 40.1,42.3 40.1,13.9 96.9,13.9 	"/>
	<path class="st1" d="M90.2,10.5H46.8c-5.5,0-10,4.5-10,10v20.1H10c-5.5,0-10,4.5-10,10V74c0,4.9,3.5,9.1,8.4,9.9v5.2
		c0,0.9,0.7,1.7,1.7,1.7c0.4,0,0.9-0.2,1.2-0.5l6.2-6.2h36.1c5.5,0,10-4.5,10-10V54h19.4l6.2,6.2c0.7,0.7,1.7,0.7,2.4,0
		c0.3-0.3,0.5-0.7,0.5-1.2v-5.2c4.8-0.8,8.3-5,8.4-9.9V20.6C100.2,15,95.8,10.5,90.2,10.5z M60.2,74c0,3.7-3,6.7-6.7,6.7H16.7
		c-0.4,0-0.9,0.2-1.2,0.5L11.7,85v-2.6c0-0.9-0.7-1.7-1.7-1.7c-3.7,0-6.7-3-6.7-6.7V50.6c0-3.7,3-6.7,6.7-6.7h43.4
		c3.7,0,6.7,3,6.7,6.7V74z M96.9,44c0,3.7-3,6.7-6.7,6.7c-0.9,0-1.7,0.7-1.7,1.7V55l-3.8-3.8c-0.3-0.3-0.7-0.5-1.2-0.5H63.5
		c0-5.5-4.5-10-10-10H40.1V20.6c0-3.7,3-6.7,6.7-6.7h43.4c3.7,0,6.7,3,6.7,6.7V44z"/>
	<path class="st1" d="M18.4,57.3c-2.8,0-5,2.2-5,5c0,2.8,2.2,5,5,5s5-2.2,5-5C23.4,59.6,21.1,57.3,18.4,57.3z M18.4,64
		c-0.9,0-1.7-0.7-1.7-1.7s0.7-1.7,1.7-1.7c0.9,0,1.7,0.7,1.7,1.7S19.3,64,18.4,64z"/>
	<path class="st1" d="M31.7,57.3c-2.8,0-5,2.2-5,5c0,2.8,2.2,5,5,5s5-2.2,5-5C36.8,59.6,34.5,57.3,31.7,57.3z M31.7,64
		c-0.9,0-1.7-0.7-1.7-1.7s0.7-1.7,1.7-1.7s1.7,0.7,1.7,1.7S32.7,64,31.7,64z"/>
	<path class="st1" d="M45.1,57.3c-2.8,0-5,2.2-5,5c0,2.8,2.2,5,5,5s5-2.2,5-5C50.1,59.6,47.9,57.3,45.1,57.3z M45.1,64
		c-0.9,0-1.7-0.7-1.7-1.7s0.7-1.7,1.7-1.7s1.7,0.7,1.7,1.7S46,64,45.1,64z"/>
	<rect x="46.8" y="20.6" class="st1" width="30.1" height="3.3"/>
	<rect x="80.2" y="20.6" class="st1" width="10" height="3.3"/>
	<rect x="46.8" y="27.2" class="st1" width="10" height="3.3"/>
	<rect x="60.2" y="27.2" class="st1" width="20.1" height="3.3"/>
	<rect x="46.8" y="33.9" class="st1" width="43.4" height="3.3"/>
	<rect x="63.5" y="40.6" class="st1" width="13.4" height="3.3"/>
	<rect x="80.2" y="40.6" class="st1" width="10" height="3.3"/>
	<rect x="83.5" y="27.2" class="st1" width="6.7" height="3.3"/>
</g>
</svg>
