<?xml version="1.0" encoding="utf-8"?>
<!-- Generator: Adobe Illustrator 22.0.1, SVG Export Plug-In . SVG Version: 6.00 Build 0)  -->
<svg version="1.1" id="Layer_1" xmlns="http://www.w3.org/2000/svg" xmlns:xlink="http://www.w3.org/1999/xlink" x="0px" y="0px"
	 viewBox="0 0 100 100" style="enable-background:new 0 0 100 100;" xml:space="preserve">
<style type="text/css">
	.st0{fill:#ECEFF0;}
	.st1{fill:#DBDBDB;}
</style>
<g>
	<rect x="4.9" y="33.3" class="st0" width="90.4" height="33.3"/>
	<g>
		<path class="st1" d="M100,40.7c-0.2-6.4-5.4-11.5-11.8-11.7H10.9C4.7,29,0,34.5,0,40.7v18.8c-0.2,5.9,4.5,10.8,10.4,11
			c0.1,0,0.3,0,0.4,0h77.3c6.2,0,11.8-4.8,11.8-11L100,40.7z M94.4,59.5c0,3.1-3.1,5.4-6.2,5.4H10.9c-2.8,0.1-5.1-2.1-5.2-4.9
			c0-0.1,0-0.3,0-0.4V40.7c0-3.1,2.1-6.1,5.2-6.1h77.3c3.3,0.1,6,2.7,6.2,6.1V59.5z"/>
	</g>
	<path class="st1" d="M16.9,58.8h-4.5c-0.3,0-0.6-0.3-0.6-0.6v-4.5c0-0.3,0.3-0.6,0.6-0.6h4.5c0.3,0,0.6,0.3,0.6,0.6v4.5
		C17.4,58.5,17.2,58.8,16.9,58.8z"/>
	<path class="st1" d="M26.2,58.8h-4.5c-0.3,0-0.6-0.3-0.6-0.6v-4.5c0-0.3,0.3-0.6,0.6-0.6h4.5c0.3,0,0.6,0.3,0.6,0.6v4.5
		C26.8,58.5,26.5,58.8,26.2,58.8z"/>
	<path class="st1" d="M35.4,58.8h-4.5c-0.3,0-0.6-0.3-0.6-0.6v-4.5c0-0.3,0.3-0.6,0.6-0.6h4.5c0.3,0,0.6,0.3,0.6,0.6v4.5
		C35.9,58.5,35.7,58.8,35.4,58.8z"/>
</g>
</svg>
