<?xml version="1.0" encoding="utf-8"?>
<!-- Generator: Adobe Illustrator 22.0.1, SVG Export Plug-In . SVG Version: 6.00 Build 0)  -->
<svg version="1.1" id="Layer_1" xmlns="http://www.w3.org/2000/svg" xmlns:xlink="http://www.w3.org/1999/xlink" x="0px" y="0px"
	 viewBox="0 0 100 100" style="enable-background:new 0 0 100 100;" xml:space="preserve">
<style type="text/css">
	.st0{fill:#ECEFF0;}
	.st1{fill:#DBDBDB;}
</style>
<rect x="13.7" y="39.1" class="st0" width="73" height="57"/>
<g>
	<path class="st1" d="M50,56.3c-4.1,0-7.3,3.2-7.3,7.3c0,1.9,0.8,3.7,2.1,5V74c0,2.9,2.3,5.2,5.2,5.2s5.2-2.3,5.2-5.2v-5.4
		c1.3-1.3,2.1-3.1,2.1-5C57.3,59.5,54.1,56.3,50,56.3z"/>
	<path class="st1" d="M83.3,35.4H76V26C76,11.7,64.4,0,50,0S24,11.7,24,26v9.4h-7.3c-4,0-7.3,3.3-7.3,7.3v50c0,4,3.3,7.3,7.3,7.3
		h66.7c4,0,7.3-3.3,7.3-7.3v-50C90.6,38.7,87.4,35.4,83.3,35.4z M30.2,35.4V26c0-11.1,8.7-19.8,19.8-19.8S69.8,14.9,69.8,26v9.4
		H30.2z M84.4,42.7v50c0,0.6-0.5,1-1,1H16.7c-0.6,0-1-0.5-1-1v-50c0-0.6,0.5-1,1-1h66.7C83.9,41.7,84.4,42.1,84.4,42.7z"/>
</g>
</svg>
