<?xml version="1.0"?>
<svg xmlns="http://www.w3.org/2000/svg" xmlns:xlink="http://www.w3.org/1999/xlink" version="1.1" id="Capa_1" x="0px" y="0px" viewBox="0 0 496.679 496.679" style="enable-background:new 0 0 496.679 496.679;" xml:space="preserve" width="512px" height="512px" class=""><g><path style="fill:#2EA2DB" d="M457.794,85.527H38.885c-17.067,0-31.03,13.964-31.03,31.03v255.224h480.97V116.558  C488.824,99.491,474.861,85.527,457.794,85.527z" data-original="#2EA2DB" class="" data-old_color="#90C9E5"/><path style="fill:#193651" d="M488.824,379.539H7.855c-4.655,0-7.758-3.103-7.758-7.758V116.558  c0-21.721,17.067-38.788,38.788-38.788h418.909c21.721,0,38.788,17.067,38.788,38.788v255.224  C496.582,376.436,493.479,379.539,488.824,379.539z M15.612,364.024h465.455V116.558c0-13.188-10.085-23.273-23.273-23.273H38.885  c-13.188,0-23.273,10.085-23.273,23.273V364.024z" data-original="#193651" class="" data-old_color="#CAD3DC"/><g>
	<rect x="38.885" y="116.558" style="fill:#FFFFFF" width="418.909" height="224.194" data-original="#FFFFFF" class=""/>
	<path style="fill:#FFFFFF" d="M7.855,371.782v29.479c0,17.067,13.964,31.03,31.03,31.03h418.909   c17.067,0,31.03-13.964,31.03-31.03v-29.479H7.855z" data-original="#FFFFFF" class=""/>
</g><path style="fill:#193651" d="M457.794,440.048H38.885c-21.721,0-38.788-17.067-38.788-38.788v-29.479  c0-4.655,3.103-7.758,7.758-7.758h480.97c4.655,0,7.758,3.103,7.758,7.758v29.479C496.582,422.982,479.515,440.048,457.794,440.048z   M15.612,379.539v21.721c0,13.188,10.085,23.273,23.273,23.273h418.909c13.188,0,23.273-10.085,23.273-23.273v-21.721H15.612z" data-original="#193651" class="" data-old_color="#CAD3DC"/><rect x="186.279" y="432.291" style="fill:#FFFFFF" width="124.121" height="56.63" data-original="#FFFFFF" class=""/><g>
	<path style="fill:#193651" d="M310.4,496.679H186.279c-4.655,0-7.758-3.103-7.758-7.758v-56.63c0-4.655,3.103-7.758,7.758-7.758   H310.4c4.655,0,7.758,3.103,7.758,7.758v56.63C318.158,493.576,315.055,496.679,310.4,496.679z M194.036,481.164h108.606v-41.115   H194.036V481.164z" data-original="#193651" class="" data-old_color="#CAD3DC"/>
	<path style="fill:#193651" d="M347.636,496.679H149.042c-4.655,0-7.758-3.103-7.758-7.758s3.103-7.758,7.758-7.758h198.594   c4.655,0,7.758,3.103,7.758,7.758S352.291,496.679,347.636,496.679z" data-original="#193651" class="" data-old_color="#CAD3DC"/>
	<rect x="198.691" y="394.279" style="fill:#193651" width="15.515" height="15.515" data-original="#193651" class="" data-old_color="#CAD3DC"/>
	<rect x="240.582" y="394.279" style="fill:#193651" width="15.515" height="15.515" data-original="#193651" class="" data-old_color="#CAD3DC"/>
	<rect x="282.473" y="394.279" style="fill:#193651" width="15.515" height="15.515" data-original="#193651" class="" data-old_color="#CAD3DC"/>
</g><rect x="86.206" y="277.139" style="fill:#E1E6E9" width="323.491" height="39.564" data-original="#E1E6E9" class=""/><path style="fill:#193651" d="M410.473,323.685H86.206c-4.655,0-7.758-3.103-7.758-7.758v-39.564c0-4.655,3.103-7.758,7.758-7.758  h323.491c4.655,0,7.758,3.103,7.758,7.758v39.564C418.23,320.582,414.352,323.685,410.473,323.685z M93.964,308.17h307.976v-24.048  H93.964V308.17z" data-original="#193651" class="" data-old_color="#CAD3DC"/><polygon style="fill:#FFFFFF" points="425.212,138.279 248.339,7.952 71.467,138.279 " data-original="#FFFFFF" class=""/><path style="fill:#193651" d="M425.212,146.036H71.467c-3.103,0-6.206-2.327-7.758-5.43c-0.776-3.103,0-6.982,3.103-8.533  L243.685,1.745c3.103-2.327,6.206-2.327,9.309,0l176.873,130.327c2.327,2.327,3.879,5.43,3.103,8.533  C432.194,144.485,429.091,146.036,425.212,146.036z M94.739,130.521h307.2l-153.6-113.261L94.739,130.521z" data-original="#193651" class="" data-old_color="#CAD3DC"/><path style="fill:#E6E6E6" d="M232.048,60.703L232.048,60.703c9.309-6.982,22.497-6.982,32.582,0l0,0  c20.945,15.515,10.085,48.873-16.291,48.873l0,0C221.964,109.576,211.103,76.218,232.048,60.703z" data-original="#F16051" class="active-path" data-old_color="#E6E5E5"/><rect x="111.806" y="138.279" style="fill:#E1E6E9" width="50.424" height="138.085" data-original="#E1E6E9" class=""/><path style="fill:#193651" d="M161.455,284.897H111.03c-4.655,0-7.758-3.103-7.758-7.758V138.279c0-4.655,3.103-7.758,7.758-7.758  h50.424c4.655,0,7.758,3.103,7.758,7.758v138.085C169.212,281.018,166.109,284.897,161.455,284.897z M119.564,269.382h34.909  V146.036h-34.909V269.382z" data-original="#193651" class="" data-old_color="#CAD3DC"/><rect x="223.515" y="138.279" style="fill:#E1E6E9" width="50.424" height="138.085" data-original="#E1E6E9" class=""/><path style="fill:#193651" d="M273.164,284.897h-50.424c-4.655,0-7.758-3.103-7.758-7.758V138.279c0-4.655,3.103-7.758,7.758-7.758  h50.424c4.655,0,7.758,3.103,7.758,7.758v138.085C280.921,281.018,277.818,284.897,273.164,284.897z M231.273,269.382h34.909  V146.036h-34.909V269.382z" data-original="#193651" class="" data-old_color="#CAD3DC"/><rect x="335.224" y="138.279" style="fill:#E1E6E9" width="50.424" height="138.085" data-original="#E1E6E9" class=""/><path style="fill:#193651" d="M384.873,284.897h-50.424c-4.655,0-7.758-3.103-7.758-7.758V138.279c0-4.655,3.103-7.758,7.758-7.758  h50.424c4.655,0,7.758,3.103,7.758,7.758v138.085C392.63,281.018,389.527,284.897,384.873,284.897z M342.982,269.382h34.909V146.036  h-34.909V269.382z" data-original="#193651" class="" data-old_color="#CAD3DC"/></g> </svg>
