<?xml version="1.0" encoding="utf-8"?>
<!-- Generator: Adobe Illustrator 22.0.1, SVG Export Plug-In . SVG Version: 6.00 Build 0)  -->
<svg version="1.1" id="Layer_1" xmlns="http://www.w3.org/2000/svg" xmlns:xlink="http://www.w3.org/1999/xlink" x="0px" y="0px"
	 viewBox="0 0 100 100" style="enable-background:new 0 0 100 100;" xml:space="preserve">
<style type="text/css">
	.st0{fill:#DBDBDB;}
</style>
<path class="st0" d="M98.8,29.6H30.5c-0.7,0-1.2-0.6-1.2-1.2v-4.6c0-0.7,0.6-1.2,1.2-1.2h68.2c0.7,0,1.3,0.6,1.3,1.2v4.6
	C100,29,99.4,29.6,98.8,29.6z"/>
<path class="st0" d="M98.8,54.6H30.5c-0.7,0-1.2-0.6-1.2-1.3v-4.6c0-0.7,0.6-1.3,1.2-1.3h68.2c0.7,0,1.3,0.6,1.3,1.3v4.6
	C100,54,99.4,54.6,98.8,54.6z"/>
<path class="st0" d="M98.8,79.6H30.5c-0.7,0-1.2-0.6-1.2-1.3v-4.6c0-0.7,0.6-1.3,1.2-1.3h68.2c0.7,0,1.3,0.6,1.3,1.3v4.6
	C100,79,99.4,79.6,98.8,79.6z"/>
<path class="st0" d="M11.3,29.6H1.2C0.6,29.6,0,29,0,28.3l0-4.6c0-0.7,0.6-1.2,1.2-1.2h10.1c0.7,0,1.2,0.6,1.2,1.2v4.6
	C12.6,29,12,29.6,11.3,29.6z"/>
<path class="st0" d="M11.3,54.6H1.2C0.6,54.6,0,54,0,53.3l0-4.6c0-0.7,0.6-1.3,1.2-1.3h10.1c0.7,0,1.2,0.6,1.2,1.3v4.6
	C12.6,54,12,54.6,11.3,54.6z"/>
<path class="st0" d="M11.3,79.6H1.2C0.6,79.6,0,79,0,78.3l0-4.6c0-0.7,0.6-1.3,1.2-1.3h10.1c0.7,0,1.2,0.6,1.2,1.3v4.6
	C12.6,79,12,79.6,11.3,79.6z"/>
</svg>
