<?xml version="1.0" encoding="utf-8"?>
<!-- Generator: Adobe Illustrator 22.0.1, SVG Export Plug-In . SVG Version: 6.00 Build 0)  -->
<svg version="1.1" id="Layer_1" xmlns="http://www.w3.org/2000/svg" xmlns:xlink="http://www.w3.org/1999/xlink" x="0px" y="0px"
	 viewBox="0 0 100 100" style="enable-background:new 0 0 100 100;" xml:space="preserve">
<style type="text/css">
	.st0{fill:#ECEFF0;}
	.st1{fill:#DBDBDB;}
</style>
<g>
	<path class="st0" d="M85.2,98.1l-70.4-0.7C7.5,97.3,1.6,91.3,1.6,84V33.6l16.1-11.7l0,27.1l14.8,16.4l17.7-9l15.9,9l16.3-16.4
		l0-27.1l16.4,12.5v50.3C98.7,92.1,92.7,98.2,85.2,98.1z"/>
	<path class="st1" d="M31.5,21.9h19.6c1.1,0,2-0.9,2-2s-0.9-2-2-2H31.5c-1.1,0-2,0.9-2,2S30.5,21.9,31.5,21.9z"/>
	<path class="st1" d="M60.2,21.9c0.5,0,1-0.2,1.4-0.6c0.4-0.4,0.6-0.9,0.6-1.4s-0.2-1-0.6-1.4c-0.4-0.4-0.9-0.6-1.4-0.6
		c-0.5,0-1,0.2-1.4,0.6c-0.4,0.4-0.6,0.9-0.6,1.4s0.2,1,0.6,1.4C59.2,21.7,59.7,21.9,60.2,21.9z"/>
	<path class="st1" d="M31.5,35.9h36.9c1.1,0,2-0.9,2-2s-0.9-2-2-2H31.5c-1.1,0-2,0.9-2,2S30.5,35.9,31.5,35.9z"/>
	<path class="st1" d="M70.4,48c0-1.1-0.9-2-2-2H31.5c-1.1,0-2,0.9-2,2s0.9,2,2,2h36.9C69.5,50,70.4,49.1,70.4,48z"/>
	<path class="st1" d="M99.4,33L85.5,19.2V7.8C85.5,3.5,82,0,77.7,0H22.3c-4.3,0-7.8,3.5-7.8,7.8v11.3L0.6,33C0.2,33.4,0,33.8,0,34.4
		v50.1C0,93,7,100,15.5,100h66.3c1.1,0,2-0.9,2-2s-0.9-2-2-2H15.5c-2.3,0-4.4-0.7-6.2-1.8l7.6-7.6l23.3-23.3
		c5.4-5.4,14.2-5.4,19.7,0l30.9,30.9c-1.8,1.1-3.9,1.8-6.2,1.8h-2.6c-1.1,0-2,0.9-2,2s0.9,2,2,2h2.6c4,0,7.6-1.5,10.4-4
		c0.1-0.1,0.1-0.1,0.2-0.2c0,0,0-0.1,0.1-0.1c3-2.8,4.9-6.9,4.9-11.3V34.4C100,33.8,99.8,33.3,99.4,33z M95.3,34.4l-9.7,9.7V24.7
		L95.3,34.4z M14.4,44.1l-9.7-9.7l9.7-9.7V44.1z M3.9,84.5V39.1l27.5,27.5l-25,25C4.8,89.7,3.9,87.2,3.9,84.5z M37.4,60.7l-3.2,3.2
		L18.4,48V7.8c0-2.2,1.8-3.9,3.9-3.9h55.5c2.2,0,3.9,1.8,3.9,3.9V48L65.8,63.9l-3.2-3.2C55.6,53.7,44.3,53.7,37.4,60.7z M93.6,91.7
		l-25-25l27.5-27.5v45.4C96.1,87.2,95.2,89.7,93.6,91.7z"/>
</g>
</svg>
